STARTFONT 2.1
FONT -Misc-Fixed-Medium-O-Normal--13-120-75-75-C-80-ISO10646-1
SIZE 13 75 75
FONTBOUNDINGBOX 8 13 0 -2

STARTPROPERTIES 24
FONTNAME_REGISTRY ""
FOUNDRY "Misc"
FAMILY_NAME "Fixed"
WEIGHT_NAME "Medium"
SLANT "O"
SETWIDTH_NAME "Normal"
ADD_STYLE_NAME ""
PIXEL_SIZE 13
POINT_SIZE 120
RESOLUTION_X 75
RESOLUTION_Y 75
SPACING "C"
AVERAGE_WIDTH 80
CHARSET_REGISTRY "ISO10646"
CHARSET_ENCODING "1"
COPYRIGHT "Public domain font.  Share and enjoy."
_XMBDFED_INFO "Edited with xmbdfed 4.5."
CAP_HEIGHT 9
X_HEIGHT 6
WEIGHT 10
QUAD_WIDTH 8
DEFAULT_CHAR 0
FONT_DESCENT 2
FONT_ASCENT 11
ENDPROPERTIES

CHARS 1295

STARTCHAR char0
ENCODING 0
SWIDTH 568 0
DWIDTH 8 0
BBX 8 13 0 -2
BITMAP
00
00
55
00
41
00
41
00
82
00
AA
00
00
ENDCHAR

STARTCHAR space
ENCODING 32
SWIDTH 568 0
DWIDTH 8 0
BBX 8 13 0 -2
BITMAP
00
00
00
00
00
00
00
00
00
00
00
00
00
ENDCHAR

STARTCHAR exclam
ENCODING 33
SWIDTH 568 0
DWIDTH 8 0
BBX 8 13 0 -2
BITMAP
00
00
08
08
08
08
10
10
10
00
10
00
00
ENDCHAR

STARTCHAR quotedbl
ENCODING 34
SWIDTH 568 0
DWIDTH 8 0
BBX 8 13 0 -2
BITMAP
00
00
24
24
24
00
00
00
00
00
00
00
00
ENDCHAR

STARTCHAR numbersign
ENCODING 35
SWIDTH 568 0
DWIDTH 8 0
BBX 8 13 0 -2
BITMAP
00
00
00
24
24
7E
24
FC
48
48
00
00
00
ENDCHAR

STARTCHAR dollar
ENCODING 36
SWIDTH 568 0
DWIDTH 8 0
BBX 8 13 0 -2
BITMAP
00
00
08
1E
28
28
1C
14
14
78
10
00
00
ENDCHAR

STARTCHAR percent
ENCODING 37
SWIDTH 568 0
DWIDTH 8 0
BBX 8 13 0 -2
BITMAP
00
00
22
52
24
08
10
20
48
94
88
00
00
ENDCHAR

STARTCHAR ampersand
ENCODING 38
SWIDTH 568 0
DWIDTH 8 0
BBX 8 13 0 -2
BITMAP
00
00
00
0C
12
14
18
2A
44
4C
32
00
00
ENDCHAR

STARTCHAR quotesingle
ENCODING 39
SWIDTH 568 0
DWIDTH 8 0
BBX 8 13 0 -2
BITMAP
00
00
10
10
10
00
00
00
00
00
00
00
00
ENDCHAR

STARTCHAR parenleft
ENCODING 40
SWIDTH 568 0
DWIDTH 8 0
BBX 8 13 0 -2
BITMAP
00
00
04
08
10
10
20
20
10
10
08
00
00
ENDCHAR

STARTCHAR parenright
ENCODING 41
SWIDTH 568 0
DWIDTH 8 0
BBX 8 13 0 -2
BITMAP
00
00
10
08
08
04
04
08
08
10
20
00
00
ENDCHAR

STARTCHAR asterisk
ENCODING 42
SWIDTH 568 0
DWIDTH 8 0
BBX 8 13 0 -2
BITMAP
00
00
00
00
24
18
7E
30
48
00
00
00
00
ENDCHAR

STARTCHAR plus
ENCODING 43
SWIDTH 568 0
DWIDTH 8 0
BBX 8 13 0 -2
BITMAP
00
00
00
00
10
10
7C
20
20
00
00
00
00
ENDCHAR

STARTCHAR comma
ENCODING 44
SWIDTH 568 0
DWIDTH 8 0
BBX 8 13 0 -2
BITMAP
00
00
00
00
00
00
00
00
00
1C
18
20
00
ENDCHAR

STARTCHAR hyphen
ENCODING 45
SWIDTH 568 0
DWIDTH 8 0
BBX 8 13 0 -2
BITMAP
00
00
00
00
00
00
7C
00
00
00
00
00
00
ENDCHAR

STARTCHAR period
ENCODING 46
SWIDTH 568 0
DWIDTH 8 0
BBX 8 13 0 -2
BITMAP
00
00
00
00
00
00
00
00
00
10
38
10
00
ENDCHAR

STARTCHAR slash
ENCODING 47
SWIDTH 568 0
DWIDTH 8 0
BBX 8 13 0 -2
BITMAP
00
00
01
01
02
04
18
20
40
80
80
00
00
ENDCHAR

STARTCHAR zero
ENCODING 48
SWIDTH 568 0
DWIDTH 8 0
BBX 8 13 0 -2
BITMAP
00
00
18
24
42
42
42
84
84
48
30
00
00
ENDCHAR

STARTCHAR one
ENCODING 49
SWIDTH 568 0
DWIDTH 8 0
BBX 8 13 0 -2
BITMAP
00
00
08
18
28
08
08
10
10
10
7C
00
00
ENDCHAR

STARTCHAR two
ENCODING 50
SWIDTH 568 0
DWIDTH 8 0
BBX 8 13 0 -2
BITMAP
00
00
3C
42
42
02
0C
30
40
80
FC
00
00
ENDCHAR

STARTCHAR three
ENCODING 51
SWIDTH 568 0
DWIDTH 8 0
BBX 8 13 0 -2
BITMAP
00
00
7E
02
04
08
18
04
04
84
78
00
00
ENDCHAR

STARTCHAR four
ENCODING 52
SWIDTH 568 0
DWIDTH 8 0
BBX 8 13 0 -2
BITMAP
00
00
02
06
0A
12
24
44
7E
08
08
00
00
ENDCHAR

STARTCHAR five
ENCODING 53
SWIDTH 568 0
DWIDTH 8 0
BBX 8 13 0 -2
BITMAP
00
00
3E
20
20
5C
62
02
04
84
78
00
00
ENDCHAR

STARTCHAR six
ENCODING 54
SWIDTH 568 0
DWIDTH 8 0
BBX 8 13 0 -2
BITMAP
00
00
1C
22
40
40
78
84
84
84
78
00
00
ENDCHAR

STARTCHAR seven
ENCODING 55
SWIDTH 568 0
DWIDTH 8 0
BBX 8 13 0 -2
BITMAP
00
00
7E
02
04
08
10
20
20
40
40
00
00
ENDCHAR

STARTCHAR eight
ENCODING 56
SWIDTH 568 0
DWIDTH 8 0
BBX 8 13 0 -2
BITMAP
00
00
3C
42
42
42
7C
84
84
84
78
00
00
ENDCHAR

STARTCHAR nine
ENCODING 57
SWIDTH 568 0
DWIDTH 8 0
BBX 8 13 0 -2
BITMAP
00
00
3C
42
42
46
3A
04
04
08
70
00
00
ENDCHAR

STARTCHAR colon
ENCODING 58
SWIDTH 568 0
DWIDTH 8 0
BBX 8 13 0 -2
BITMAP
00
00
00
00
08
1C
08
00
00
10
38
10
00
ENDCHAR

STARTCHAR semicolon
ENCODING 59
SWIDTH 568 0
DWIDTH 8 0
BBX 8 13 0 -2
BITMAP
00
00
00
00
08
1C
08
00
00
38
30
40
00
ENDCHAR

STARTCHAR less
ENCODING 60
SWIDTH 568 0
DWIDTH 8 0
BBX 8 13 0 -2
BITMAP
00
00
04
08
10
20
40
40
20
10
08
00
00
ENDCHAR

STARTCHAR equal
ENCODING 61
SWIDTH 568 0
DWIDTH 8 0
BBX 8 13 0 -2
BITMAP
00
00
00
00
00
7E
00
00
FC
00
00
00
00
ENDCHAR

STARTCHAR greater
ENCODING 62
SWIDTH 568 0
DWIDTH 8 0
BBX 8 13 0 -2
BITMAP
00
00
20
10
08
04
04
08
10
20
40
00
00
ENDCHAR

STARTCHAR question
ENCODING 63
SWIDTH 568 0
DWIDTH 8 0
BBX 8 13 0 -2
BITMAP
00
00
1C
22
42
04
08
10
10
00
10
00
00
ENDCHAR

STARTCHAR at
ENCODING 64
SWIDTH 568 0
DWIDTH 8 0
BBX 8 13 0 -2
BITMAP
00
00
3C
42
42
4E
52
A6
98
80
78
00
00
ENDCHAR

STARTCHAR A
ENCODING 65
SWIDTH 568 0
DWIDTH 8 0
BBX 8 13 0 -2
BITMAP
00
00
18
24
42
42
42
FC
84
84
84
00
00
ENDCHAR

STARTCHAR B
ENCODING 66
SWIDTH 568 0
DWIDTH 8 0
BBX 8 13 0 -2
BITMAP
00
00
78
44
42
44
78
88
84
88
F0
00
00
ENDCHAR

STARTCHAR C
ENCODING 67
SWIDTH 568 0
DWIDTH 8 0
BBX 8 13 0 -2
BITMAP
00
00
3C
42
40
40
40
80
80
84
78
00
00
ENDCHAR

STARTCHAR D
ENCODING 68
SWIDTH 568 0
DWIDTH 8 0
BBX 8 13 0 -2
BITMAP
00
00
78
44
42
42
42
84
84
88
F0
00
00
ENDCHAR

STARTCHAR E
ENCODING 69
SWIDTH 568 0
DWIDTH 8 0
BBX 8 13 0 -2
BITMAP
00
00
7E
40
40
40
78
80
80
80
FC
00
00
ENDCHAR

STARTCHAR F
ENCODING 70
SWIDTH 568 0
DWIDTH 8 0
BBX 8 13 0 -2
BITMAP
00
00
7E
40
40
40
78
80
80
80
80
00
00
ENDCHAR

STARTCHAR G
ENCODING 71
SWIDTH 568 0
DWIDTH 8 0
BBX 8 13 0 -2
BITMAP
00
00
3C
42
40
40
40
9C
84
8C
74
00
00
ENDCHAR

STARTCHAR H
ENCODING 72
SWIDTH 568 0
DWIDTH 8 0
BBX 8 13 0 -2
BITMAP
00
00
42
42
42
42
7C
84
84
84
84
00
00
ENDCHAR

STARTCHAR I
ENCODING 73
SWIDTH 568 0
DWIDTH 8 0
BBX 8 13 0 -2
BITMAP
00
00
3E
08
08
08
08
10
10
10
7C
00
00
ENDCHAR

STARTCHAR J
ENCODING 74
SWIDTH 568 0
DWIDTH 8 0
BBX 8 13 0 -2
BITMAP
00
00
1E
04
04
04
04
08
08
88
70
00
00
ENDCHAR

STARTCHAR K
ENCODING 75
SWIDTH 568 0
DWIDTH 8 0
BBX 8 13 0 -2
BITMAP
00
00
42
44
48
50
60
A0
90
88
84
00
00
ENDCHAR

STARTCHAR L
ENCODING 76
SWIDTH 568 0
DWIDTH 8 0
BBX 8 13 0 -2
BITMAP
00
00
20
20
20
20
20
40
40
40
7E
00
00
ENDCHAR

STARTCHAR M
ENCODING 77
SWIDTH 568 0
DWIDTH 8 0
BBX 8 13 0 -2
BITMAP
00
00
41
41
63
55
49
82
82
82
82
00
00
ENDCHAR

STARTCHAR N
ENCODING 78
SWIDTH 568 0
DWIDTH 8 0
BBX 8 13 0 -2
BITMAP
00
00
42
42
62
52
4A
8C
84
84
84
00
00
ENDCHAR

STARTCHAR O
ENCODING 79
SWIDTH 568 0
DWIDTH 8 0
BBX 8 13 0 -2
BITMAP
00
00
3C
42
42
42
42
84
84
84
78
00
00
ENDCHAR

STARTCHAR P
ENCODING 80
SWIDTH 568 0
DWIDTH 8 0
BBX 8 13 0 -2
BITMAP
00
00
7C
42
42
42
7C
80
80
80
80
00
00
ENDCHAR

STARTCHAR Q
ENCODING 81
SWIDTH 568 0
DWIDTH 8 0
BBX 8 13 0 -2
BITMAP
00
00
3C
42
42
42
84
84
A4
94
78
04
00
ENDCHAR

STARTCHAR R
ENCODING 82
SWIDTH 568 0
DWIDTH 8 0
BBX 8 13 0 -2
BITMAP
00
00
7C
42
42
42
7C
A0
90
88
84
00
00
ENDCHAR

STARTCHAR S
ENCODING 83
SWIDTH 568 0
DWIDTH 8 0
BBX 8 13 0 -2
BITMAP
00
00
3C
42
40
40
38
04
04
84
78
00
00
ENDCHAR

STARTCHAR T
ENCODING 84
SWIDTH 568 0
DWIDTH 8 0
BBX 8 13 0 -2
BITMAP
00
00
FE
10
10
10
10
20
20
20
20
00
00
ENDCHAR

STARTCHAR U
ENCODING 85
SWIDTH 568 0
DWIDTH 8 0
BBX 8 13 0 -2
BITMAP
00
00
42
42
42
42
84
84
84
84
78
00
00
ENDCHAR

STARTCHAR V
ENCODING 86
SWIDTH 568 0
DWIDTH 8 0
BBX 8 13 0 -2
BITMAP
00
00
82
82
84
44
48
48
50
50
20
00
00
ENDCHAR

STARTCHAR W
ENCODING 87
SWIDTH 568 0
DWIDTH 8 0
BBX 8 13 0 -2
BITMAP
00
00
41
41
41
41
49
92
92
AA
44
00
00
ENDCHAR

STARTCHAR X
ENCODING 88
SWIDTH 568 0
DWIDTH 8 0
BBX 8 13 0 -2
BITMAP
00
00
41
41
22
14
18
28
44
82
82
00
00
ENDCHAR

STARTCHAR Y
ENCODING 89
SWIDTH 568 0
DWIDTH 8 0
BBX 8 13 0 -2
BITMAP
00
00
82
82
44
28
10
10
20
20
20
00
00
ENDCHAR

STARTCHAR Z
ENCODING 90
SWIDTH 568 0
DWIDTH 8 0
BBX 8 13 0 -2
BITMAP
00
00
7E
02
04
08
10
20
40
80
FC
00
00
ENDCHAR

STARTCHAR bracketleft
ENCODING 91
SWIDTH 568 0
DWIDTH 8 0
BBX 8 13 0 -2
BITMAP
00
00
3C
20
20
20
20
40
40
40
78
00
00
ENDCHAR

STARTCHAR backslash
ENCODING 92
SWIDTH 568 0
DWIDTH 8 0
BBX 8 13 0 -2
BITMAP
00
00
40
40
20
10
08
08
04
02
02
00
00
ENDCHAR

STARTCHAR bracketright
ENCODING 93
SWIDTH 568 0
DWIDTH 8 0
BBX 8 13 0 -2
BITMAP
00
00
3C
04
04
04
04
08
08
08
78
00
00
ENDCHAR

STARTCHAR asciicircum
ENCODING 94
SWIDTH 568 0
DWIDTH 8 0
BBX 8 13 0 -2
BITMAP
00
00
10
28
44
00
00
00
00
00
00
00
00
ENDCHAR

STARTCHAR underscore
ENCODING 95
SWIDTH 568 0
DWIDTH 8 0
BBX 8 13 0 -2
BITMAP
00
00
00
00
00
00
00
00
00
00
00
FE
00
ENDCHAR

STARTCHAR grave
ENCODING 96
SWIDTH 568 0
DWIDTH 8 0
BBX 8 13 0 -2
BITMAP
00
10
08
00
00
00
00
00
00
00
00
00
00
ENDCHAR

STARTCHAR a
ENCODING 97
SWIDTH 568 0
DWIDTH 8 0
BBX 8 13 0 -2
BITMAP
00
00
00
00
00
3C
02
7C
84
8C
74
00
00
ENDCHAR

STARTCHAR b
ENCODING 98
SWIDTH 568 0
DWIDTH 8 0
BBX 8 13 0 -2
BITMAP
00
00
40
40
40
5C
62
42
84
C4
B8
00
00
ENDCHAR

STARTCHAR c
ENCODING 99
SWIDTH 568 0
DWIDTH 8 0
BBX 8 13 0 -2
BITMAP
00
00
00
00
00
3C
42
80
80
84
78
00
00
ENDCHAR

STARTCHAR d
ENCODING 100
SWIDTH 568 0
DWIDTH 8 0
BBX 8 13 0 -2
BITMAP
00
00
02
02
02
3A
44
84
84
8C
74
00
00
ENDCHAR

STARTCHAR e
ENCODING 101
SWIDTH 568 0
DWIDTH 8 0
BBX 8 13 0 -2
BITMAP
00
00
00
00
00
3C
42
7C
80
84
78
00
00
ENDCHAR

STARTCHAR f
ENCODING 102
SWIDTH 568 0
DWIDTH 8 0
BBX 8 13 0 -2
BITMAP
00
00
1C
22
20
20
7C
20
40
40
40
00
00
ENDCHAR

STARTCHAR g
ENCODING 103
SWIDTH 568 0
DWIDTH 8 0
BBX 8 13 0 -2
BITMAP
00
00
00
00
00
3A
44
88
70
80
78
84
78
ENDCHAR

STARTCHAR h
ENCODING 104
SWIDTH 568 0
DWIDTH 8 0
BBX 8 13 0 -2
BITMAP
00
00
20
20
40
5C
62
42
84
84
84
00
00
ENDCHAR

STARTCHAR i
ENCODING 105
SWIDTH 568 0
DWIDTH 8 0
BBX 8 13 0 -2
BITMAP
00
00
00
08
00
18
08
08
10
10
7C
00
00
ENDCHAR

STARTCHAR j
ENCODING 106
SWIDTH 568 0
DWIDTH 8 0
BBX 8 13 0 -2
BITMAP
00
00
00
02
00
06
02
02
04
04
44
44
38
ENDCHAR

STARTCHAR k
ENCODING 107
SWIDTH 568 0
DWIDTH 8 0
BBX 8 13 0 -2
BITMAP
00
00
20
20
20
22
2C
30
48
44
42
00
00
ENDCHAR

STARTCHAR l
ENCODING 108
SWIDTH 568 0
DWIDTH 8 0
BBX 8 13 0 -2
BITMAP
00
00
18
08
08
08
08
10
10
10
7C
00
00
ENDCHAR

STARTCHAR m
ENCODING 109
SWIDTH 568 0
DWIDTH 8 0
BBX 8 13 0 -2
BITMAP
00
00
00
00
00
76
49
49
92
92
82
00
00
ENDCHAR

STARTCHAR n
ENCODING 110
SWIDTH 568 0
DWIDTH 8 0
BBX 8 13 0 -2
BITMAP
00
00
00
00
00
5C
62
42
84
84
84
00
00
ENDCHAR

STARTCHAR o
ENCODING 111
SWIDTH 568 0
DWIDTH 8 0
BBX 8 13 0 -2
BITMAP
00
00
00
00
00
3C
42
42
84
84
78
00
00
ENDCHAR

STARTCHAR p
ENCODING 112
SWIDTH 568 0
DWIDTH 8 0
BBX 8 13 0 -2
BITMAP
00
00
00
00
00
2E
31
21
62
5C
40
80
80
ENDCHAR

STARTCHAR q
ENCODING 113
SWIDTH 568 0
DWIDTH 8 0
BBX 8 13 0 -2
BITMAP
00
00
00
00
00
3A
46
84
8C
74
04
08
08
ENDCHAR

STARTCHAR r
ENCODING 114
SWIDTH 568 0
DWIDTH 8 0
BBX 8 13 0 -2
BITMAP
00
00
00
00
00
5C
22
20
40
40
40
00
00
ENDCHAR

STARTCHAR s
ENCODING 115
SWIDTH 568 0
DWIDTH 8 0
BBX 8 13 0 -2
BITMAP
00
00
00
00
00
3C
42
20
18
84
78
00
00
ENDCHAR

STARTCHAR t
ENCODING 116
SWIDTH 568 0
DWIDTH 8 0
BBX 8 13 0 -2
BITMAP
00
00
00
20
20
7C
20
40
40
44
38
00
00
ENDCHAR

STARTCHAR u
ENCODING 117
SWIDTH 568 0
DWIDTH 8 0
BBX 8 13 0 -2
BITMAP
00
00
00
00
00
22
22
22
44
44
3A
00
00
ENDCHAR

STARTCHAR v
ENCODING 118
SWIDTH 568 0
DWIDTH 8 0
BBX 8 13 0 -2
BITMAP
00
00
00
00
00
44
44
48
50
50
20
00
00
ENDCHAR

STARTCHAR w
ENCODING 119
SWIDTH 568 0
DWIDTH 8 0
BBX 8 13 0 -2
BITMAP
00
00
00
00
00
41
41
92
92
AA
44
00
00
ENDCHAR

STARTCHAR x
ENCODING 120
SWIDTH 568 0
DWIDTH 8 0
BBX 8 13 0 -2
BITMAP
00
00
00
00
00
42
24
18
30
48
84
00
00
ENDCHAR

STARTCHAR y
ENCODING 121
SWIDTH 568 0
DWIDTH 8 0
BBX 8 13 0 -2
BITMAP
00
00
00
00
00
42
42
84
8C
74
04
84
78
ENDCHAR

STARTCHAR z
ENCODING 122
SWIDTH 568 0
DWIDTH 8 0
BBX 8 13 0 -2
BITMAP
00
00
00
00
00
7E
04
18
20
40
FC
00
00
ENDCHAR

STARTCHAR braceleft
ENCODING 123
SWIDTH 568 0
DWIDTH 8 0
BBX 8 13 0 -2
BITMAP
00
00
1C
20
20
10
60
20
40
40
38
00
00
ENDCHAR

STARTCHAR bar
ENCODING 124
SWIDTH 568 0
DWIDTH 8 0
BBX 8 13 0 -2
BITMAP
00
00
08
08
08
08
08
10
10
10
10
00
00
ENDCHAR

STARTCHAR braceright
ENCODING 125
SWIDTH 568 0
DWIDTH 8 0
BBX 8 13 0 -2
BITMAP
00
00
38
04
04
08
0C
10
08
08
70
00
00
ENDCHAR

STARTCHAR asciitilde
ENCODING 126
SWIDTH 568 0
DWIDTH 8 0
BBX 8 13 0 -2
BITMAP
00
00
24
54
48
00
00
00
00
00
00
00
00
ENDCHAR

STARTCHAR space
ENCODING 160
SWIDTH 568 0
DWIDTH 8 0
BBX 8 13 0 -2
BITMAP
00
00
00
00
00
00
00
00
00
00
00
00
00
ENDCHAR

STARTCHAR exclamdown
ENCODING 161
SWIDTH 568 0
DWIDTH 8 0
BBX 8 13 0 -2
BITMAP
00
00
08
00
08
08
08
10
10
10
10
00
00
ENDCHAR

STARTCHAR cent
ENCODING 162
SWIDTH 568 0
DWIDTH 8 0
BBX 8 13 0 -2
BITMAP
00
00
08
1C
2A
28
50
54
38
10
00
00
00
ENDCHAR

STARTCHAR sterling
ENCODING 163
SWIDTH 568 0
DWIDTH 8 0
BBX 8 13 0 -2
BITMAP
00
00
0E
11
10
38
10
20
20
62
DC
00
00
ENDCHAR

STARTCHAR currency
ENCODING 164
SWIDTH 568 0
DWIDTH 8 0
BBX 8 13 0 -2
BITMAP
00
00
00
00
42
3C
24
48
78
84
00
00
00
ENDCHAR

STARTCHAR yen
ENCODING 165
SWIDTH 568 0
DWIDTH 8 0
BBX 8 13 0 -2
BITMAP
00
00
82
82
44
28
7C
10
F8
20
20
00
00
ENDCHAR

STARTCHAR brokenbar
ENCODING 166
SWIDTH 568 0
DWIDTH 8 0
BBX 8 13 0 -2
BITMAP
00
00
08
08
08
08
00
10
10
10
10
00
00
ENDCHAR

STARTCHAR section
ENCODING 167
SWIDTH 568 0
DWIDTH 8 0
BBX 8 13 0 -2
BITMAP
00
18
24
20
18
24
48
30
08
48
30
00
00
ENDCHAR

STARTCHAR dieresis
ENCODING 168
SWIDTH 568 0
DWIDTH 8 0
BBX 8 13 0 -2
BITMAP
00
24
24
00
00
00
00
00
00
00
00
00
00
ENDCHAR

STARTCHAR copyright
ENCODING 169
SWIDTH 568 0
DWIDTH 8 0
BBX 8 13 0 -2
BITMAP
00
00
1C
22
49
55
A2
AA
92
44
38
00
00
ENDCHAR

STARTCHAR ordfeminine
ENCODING 170
SWIDTH 568 0
DWIDTH 8 0
BBX 8 13 0 -2
BITMAP
00
00
1C
02
3C
44
3C
00
7C
00
00
00
00
ENDCHAR

STARTCHAR guillemotleft
ENCODING 171
SWIDTH 568 0
DWIDTH 8 0
BBX 8 13 0 -2
BITMAP
00
00
00
12
24
48
90
90
48
24
00
00
00
ENDCHAR

STARTCHAR logicalnot
ENCODING 172
SWIDTH 568 0
DWIDTH 8 0
BBX 8 13 0 -2
BITMAP
00
00
00
00
00
00
7E
02
04
04
00
00
00
ENDCHAR

STARTCHAR hyphen
ENCODING 173
SWIDTH 568 0
DWIDTH 8 0
BBX 8 13 0 -2
BITMAP
00
00
00
00
00
00
3C
00
00
00
00
00
00
ENDCHAR

STARTCHAR registered
ENCODING 174
SWIDTH 568 0
DWIDTH 8 0
BBX 8 13 0 -2
BITMAP
00
00
1C
22
59
55
AA
B2
AA
44
38
00
00
ENDCHAR

STARTCHAR macron
ENCODING 175
SWIDTH 568 0
DWIDTH 8 0
BBX 8 13 0 -2
BITMAP
00
00
7E
00
00
00
00
00
00
00
00
00
00
ENDCHAR

STARTCHAR degree
ENCODING 176
SWIDTH 568 0
DWIDTH 8 0
BBX 8 13 0 -2
BITMAP
00
00
18
24
24
18
00
00
00
00
00
00
00
ENDCHAR

STARTCHAR plusminus
ENCODING 177
SWIDTH 568 0
DWIDTH 8 0
BBX 8 13 0 -2
BITMAP
00
00
00
08
08
3E
10
10
00
7C
00
00
00
ENDCHAR

STARTCHAR twosuperior
ENCODING 178
SWIDTH 568 0
DWIDTH 8 0
BBX 8 13 0 -2
BITMAP
00
18
24
04
38
40
78
00
00
00
00
00
00
ENDCHAR

STARTCHAR threesuperior
ENCODING 179
SWIDTH 568 0
DWIDTH 8 0
BBX 8 13 0 -2
BITMAP
00
38
04
18
08
48
30
00
00
00
00
00
00
ENDCHAR

STARTCHAR acute
ENCODING 180
SWIDTH 568 0
DWIDTH 8 0
BBX 8 13 0 -2
BITMAP
00
08
10
00
00
00
00
00
00
00
00
00
00
ENDCHAR

STARTCHAR mu
ENCODING 181
SWIDTH 568 0
DWIDTH 8 0
BBX 8 13 0 -2
BITMAP
00
00
00
00
00
42
42
42
84
CC
B4
80
00
ENDCHAR

STARTCHAR paragraph
ENCODING 182
SWIDTH 568 0
DWIDTH 8 0
BBX 8 13 0 -2
BITMAP
00
00
3E
74
74
74
34
28
28
28
28
00
00
ENDCHAR

STARTCHAR periodcentered
ENCODING 183
SWIDTH 568 0
DWIDTH 8 0
BBX 8 13 0 -2
BITMAP
00
00
00
00
00
00
18
00
00
00
00
00
00
ENDCHAR

STARTCHAR cedilla
ENCODING 184
SWIDTH 568 0
DWIDTH 8 0
BBX 8 13 0 -2
BITMAP
00
00
00
00
00
00
00
00
00
00
00
08
18
ENDCHAR

STARTCHAR onesuperior
ENCODING 185
SWIDTH 568 0
DWIDTH 8 0
BBX 8 13 0 -2
BITMAP
00
08
18
08
10
10
38
00
00
00
00
00
00
ENDCHAR

STARTCHAR ordmasculine
ENCODING 186
SWIDTH 568 0
DWIDTH 8 0
BBX 8 13 0 -2
BITMAP
00
00
0C
12
24
18
00
78
00
00
00
00
00
ENDCHAR

STARTCHAR guillemotright
ENCODING 187
SWIDTH 568 0
DWIDTH 8 0
BBX 8 13 0 -2
BITMAP
00
00
00
48
24
12
12
24
48
90
00
00
00
ENDCHAR

STARTCHAR onequarter
ENCODING 188
SWIDTH 568 0
DWIDTH 8 0
BBX 8 13 0 -2
BITMAP
00
10
30
10
20
22
76
0A
14
1E
04
00
00
ENDCHAR

STARTCHAR onehalf
ENCODING 189
SWIDTH 568 0
DWIDTH 8 0
BBX 8 13 0 -2
BITMAP
00
20
60
20
40
4C
F2
04
18
20
3C
00
00
ENDCHAR

STARTCHAR threequarters
ENCODING 190
SWIDTH 568 0
DWIDTH 8 0
BBX 8 13 0 -2
BITMAP
00
38
04
18
08
4A
36
0A
14
1E
04
00
00
ENDCHAR

STARTCHAR questiondown
ENCODING 191
SWIDTH 568 0
DWIDTH 8 0
BBX 8 13 0 -2
BITMAP
00
00
08
00
08
08
10
20
42
44
38
00
00
ENDCHAR

STARTCHAR Agrave
ENCODING 192
SWIDTH 568 0
DWIDTH 8 0
BBX 8 13 0 -2
BITMAP
00
10
08
00
18
24
42
42
7C
84
84
00
00
ENDCHAR

STARTCHAR Aacute
ENCODING 193
SWIDTH 568 0
DWIDTH 8 0
BBX 8 13 0 -2
BITMAP
00
08
10
00
18
24
42
42
7C
84
84
00
00
ENDCHAR

STARTCHAR Acircumflex
ENCODING 194
SWIDTH 568 0
DWIDTH 8 0
BBX 8 13 0 -2
BITMAP
00
18
24
00
18
24
42
42
7C
84
84
00
00
ENDCHAR

STARTCHAR Atilde
ENCODING 195
SWIDTH 568 0
DWIDTH 8 0
BBX 8 13 0 -2
BITMAP
00
32
4C
00
18
24
42
42
7C
84
84
00
00
ENDCHAR

STARTCHAR Adieresis
ENCODING 196
SWIDTH 568 0
DWIDTH 8 0
BBX 8 13 0 -2
BITMAP
00
24
24
00
18
24
42
42
7C
84
84
00
00
ENDCHAR

STARTCHAR Aring
ENCODING 197
SWIDTH 568 0
DWIDTH 8 0
BBX 8 13 0 -2
BITMAP
00
18
24
18
18
24
42
42
7C
84
84
00
00
ENDCHAR

STARTCHAR AE
ENCODING 198
SWIDTH 568 0
DWIDTH 8 0
BBX 8 13 0 -2
BITMAP
00
00
37
48
48
48
4E
70
90
90
9E
00
00
ENDCHAR

STARTCHAR Ccedilla
ENCODING 199
SWIDTH 568 0
DWIDTH 8 0
BBX 8 13 0 -2
BITMAP
00
00
3C
42
40
40
40
80
80
84
78
10
20
ENDCHAR

STARTCHAR Egrave
ENCODING 200
SWIDTH 568 0
DWIDTH 8 0
BBX 8 13 0 -2
BITMAP
00
10
08
00
7E
40
40
70
80
80
FC
00
00
ENDCHAR

STARTCHAR Eacute
ENCODING 201
SWIDTH 568 0
DWIDTH 8 0
BBX 8 13 0 -2
BITMAP
00
08
10
00
7E
40
40
70
80
80
FC
00
00
ENDCHAR

STARTCHAR Ecircumflex
ENCODING 202
SWIDTH 568 0
DWIDTH 8 0
BBX 8 13 0 -2
BITMAP
00
18
24
00
7E
40
40
70
80
80
FC
00
00
ENDCHAR

STARTCHAR Edieresis
ENCODING 203
SWIDTH 568 0
DWIDTH 8 0
BBX 8 13 0 -2
BITMAP
00
24
24
00
7E
40
40
70
80
80
FC
00
00
ENDCHAR

STARTCHAR Igrave
ENCODING 204
SWIDTH 568 0
DWIDTH 8 0
BBX 8 13 0 -2
BITMAP
00
10
08
00
3E
08
08
10
10
10
7C
00
00
ENDCHAR

STARTCHAR Iacute
ENCODING 205
SWIDTH 568 0
DWIDTH 8 0
BBX 8 13 0 -2
BITMAP
00
04
08
00
3E
08
08
10
10
10
7C
00
00
ENDCHAR

STARTCHAR Icircumflex
ENCODING 206
SWIDTH 568 0
DWIDTH 8 0
BBX 8 13 0 -2
BITMAP
00
0C
12
00
3E
08
08
10
10
10
7C
00
00
ENDCHAR

STARTCHAR Idieresis
ENCODING 207
SWIDTH 568 0
DWIDTH 8 0
BBX 8 13 0 -2
BITMAP
00
22
22
00
3E
08
08
10
10
10
7C
00
00
ENDCHAR

STARTCHAR Eth
ENCODING 208
SWIDTH 568 0
DWIDTH 8 0
BBX 8 13 0 -2
BITMAP
00
00
78
44
42
42
E2
44
84
88
F0
00
00
ENDCHAR

STARTCHAR Ntilde
ENCODING 209
SWIDTH 568 0
DWIDTH 8 0
BBX 8 13 0 -2
BITMAP
00
32
4C
00
41
61
51
92
8A
86
82
00
00
ENDCHAR

STARTCHAR Ograve
ENCODING 210
SWIDTH 568 0
DWIDTH 8 0
BBX 8 13 0 -2
BITMAP
00
10
08
00
3E
41
41
82
82
82
7C
00
00
ENDCHAR

STARTCHAR Oacute
ENCODING 211
SWIDTH 568 0
DWIDTH 8 0
BBX 8 13 0 -2
BITMAP
00
04
08
00
3E
41
41
82
82
82
7C
00
00
ENDCHAR

STARTCHAR Ocircumflex
ENCODING 212
SWIDTH 568 0
DWIDTH 8 0
BBX 8 13 0 -2
BITMAP
00
0C
12
00
3E
41
41
82
82
82
7C
00
00
ENDCHAR

STARTCHAR Otilde
ENCODING 213
SWIDTH 568 0
DWIDTH 8 0
BBX 8 13 0 -2
BITMAP
00
32
4C
00
3E
41
41
82
82
82
7C
00
00
ENDCHAR

STARTCHAR Odieresis
ENCODING 214
SWIDTH 568 0
DWIDTH 8 0
BBX 8 13 0 -2
BITMAP
00
22
22
00
3E
41
41
82
82
82
7C
00
00
ENDCHAR

STARTCHAR multiply
ENCODING 215
SWIDTH 568 0
DWIDTH 8 0
BBX 8 13 0 -2
BITMAP
00
00
00
00
42
24
18
30
48
84
00
00
00
ENDCHAR

STARTCHAR Oslash
ENCODING 216
SWIDTH 568 0
DWIDTH 8 0
BBX 8 13 0 -2
BITMAP
00
02
3C
46
4A
4A
52
A4
A4
C4
78
80
00
ENDCHAR

STARTCHAR Ugrave
ENCODING 217
SWIDTH 568 0
DWIDTH 8 0
BBX 8 13 0 -2
BITMAP
00
20
10
00
42
42
42
84
84
84
78
00
00
ENDCHAR

STARTCHAR Uacute
ENCODING 218
SWIDTH 568 0
DWIDTH 8 0
BBX 8 13 0 -2
BITMAP
00
08
10
00
42
42
42
84
84
84
78
00
00
ENDCHAR

STARTCHAR Ucircumflex
ENCODING 219
SWIDTH 568 0
DWIDTH 8 0
BBX 8 13 0 -2
BITMAP
00
18
24
00
42
42
42
84
84
84
78
00
00
ENDCHAR

STARTCHAR Udieresis
ENCODING 220
SWIDTH 568 0
DWIDTH 8 0
BBX 8 13 0 -2
BITMAP
00
24
24
00
42
42
42
84
84
84
78
00
00
ENDCHAR

STARTCHAR Yacute
ENCODING 221
SWIDTH 568 0
DWIDTH 8 0
BBX 8 13 0 -2
BITMAP
00
08
10
00
44
44
28
30
20
20
20
00
00
ENDCHAR

STARTCHAR Thorn
ENCODING 222
SWIDTH 568 0
DWIDTH 8 0
BBX 8 13 0 -2
BITMAP
00
00
40
7C
42
42
42
7C
80
80
80
00
00
ENDCHAR

STARTCHAR germandbls
ENCODING 223
SWIDTH 568 0
DWIDTH 8 0
BBX 8 13 0 -2
BITMAP
00
00
1C
22
22
24
28
44
42
42
5C
00
00
ENDCHAR

STARTCHAR agrave
ENCODING 224
SWIDTH 568 0
DWIDTH 8 0
BBX 8 13 0 -2
BITMAP
00
00
10
08
00
3C
02
7C
84
8C
74
00
00
ENDCHAR

STARTCHAR aacute
ENCODING 225
SWIDTH 568 0
DWIDTH 8 0
BBX 8 13 0 -2
BITMAP
00
00
04
08
00
3C
02
7C
84
8C
74
00
00
ENDCHAR

STARTCHAR acircumflex
ENCODING 226
SWIDTH 568 0
DWIDTH 8 0
BBX 8 13 0 -2
BITMAP
00
00
18
24
00
3C
02
7C
84
8C
74
00
00
ENDCHAR

STARTCHAR atilde
ENCODING 227
SWIDTH 568 0
DWIDTH 8 0
BBX 8 13 0 -2
BITMAP
00
00
32
4C
00
3C
02
7C
84
8C
74
00
00
ENDCHAR

STARTCHAR adieresis
ENCODING 228
SWIDTH 568 0
DWIDTH 8 0
BBX 8 13 0 -2
BITMAP
00
00
24
24
00
3C
02
7C
84
8C
74
00
00
ENDCHAR

STARTCHAR aring
ENCODING 229
SWIDTH 568 0
DWIDTH 8 0
BBX 8 13 0 -2
BITMAP
00
18
24
18
00
3C
02
7C
84
8C
74
00
00
ENDCHAR

STARTCHAR ae
ENCODING 230
SWIDTH 568 0
DWIDTH 8 0
BBX 8 13 0 -2
BITMAP
00
00
00
00
00
36
09
7E
90
92
6C
00
00
ENDCHAR

STARTCHAR ccedilla
ENCODING 231
SWIDTH 568 0
DWIDTH 8 0
BBX 8 13 0 -2
BITMAP
00
00
00
00
00
3C
42
80
80
84
78
10
20
ENDCHAR

STARTCHAR egrave
ENCODING 232
SWIDTH 568 0
DWIDTH 8 0
BBX 8 13 0 -2
BITMAP
00
00
10
08
00
3C
42
7C
80
84
78
00
00
ENDCHAR

STARTCHAR eacute
ENCODING 233
SWIDTH 568 0
DWIDTH 8 0
BBX 8 13 0 -2
BITMAP
00
00
08
10
00
3C
42
7C
80
84
78
00
00
ENDCHAR

STARTCHAR ecircumflex
ENCODING 234
SWIDTH 568 0
DWIDTH 8 0
BBX 8 13 0 -2
BITMAP
00
00
18
24
00
3C
42
7C
80
84
78
00
00
ENDCHAR

STARTCHAR edieresis
ENCODING 235
SWIDTH 568 0
DWIDTH 8 0
BBX 8 13 0 -2
BITMAP
00
00
24
24
00
3C
42
7C
80
84
78
00
00
ENDCHAR

STARTCHAR igrave
ENCODING 236
SWIDTH 568 0
DWIDTH 8 0
BBX 8 13 0 -2
BITMAP
00
00
10
08
00
18
08
08
10
10
7C
00
00
ENDCHAR

STARTCHAR iacute
ENCODING 237
SWIDTH 568 0
DWIDTH 8 0
BBX 8 13 0 -2
BITMAP
00
00
08
10
00
18
08
08
10
10
7C
00
00
ENDCHAR

STARTCHAR icircumflex
ENCODING 238
SWIDTH 568 0
DWIDTH 8 0
BBX 8 13 0 -2
BITMAP
00
00
18
24
00
18
08
08
10
10
7C
00
00
ENDCHAR

STARTCHAR idieresis
ENCODING 239
SWIDTH 568 0
DWIDTH 8 0
BBX 8 13 0 -2
BITMAP
00
00
24
24
00
18
08
08
10
10
7C
00
00
ENDCHAR

STARTCHAR eth
ENCODING 240
SWIDTH 568 0
DWIDTH 8 0
BBX 8 13 0 -2
BITMAP
00
24
18
28
04
3C
42
42
84
84
78
00
00
ENDCHAR

STARTCHAR ntilde
ENCODING 241
SWIDTH 568 0
DWIDTH 8 0
BBX 8 13 0 -2
BITMAP
00
00
32
4C
00
5C
62
42
84
84
84
00
00
ENDCHAR

STARTCHAR ograve
ENCODING 242
SWIDTH 568 0
DWIDTH 8 0
BBX 8 13 0 -2
BITMAP
00
00
20
10
00
3C
42
42
84
84
78
00
00
ENDCHAR

STARTCHAR oacute
ENCODING 243
SWIDTH 568 0
DWIDTH 8 0
BBX 8 13 0 -2
BITMAP
00
00
08
10
00
3C
42
42
84
84
78
00
00
ENDCHAR

STARTCHAR ocircumflex
ENCODING 244
SWIDTH 568 0
DWIDTH 8 0
BBX 8 13 0 -2
BITMAP
00
00
18
24
00
3C
42
42
84
84
78
00
00
ENDCHAR

STARTCHAR otilde
ENCODING 245
SWIDTH 568 0
DWIDTH 8 0
BBX 8 13 0 -2
BITMAP
00
00
32
4C
00
3C
42
42
84
84
78
00
00
ENDCHAR

STARTCHAR odieresis
ENCODING 246
SWIDTH 568 0
DWIDTH 8 0
BBX 8 13 0 -2
BITMAP
00
00
24
24
00
3C
42
42
84
84
78
00
00
ENDCHAR

STARTCHAR divide
ENCODING 247
SWIDTH 568 0
DWIDTH 8 0
BBX 8 13 0 -2
BITMAP
00
00
00
08
08
00
7E
00
10
10
00
00
00
ENDCHAR

STARTCHAR oslash
ENCODING 248
SWIDTH 568 0
DWIDTH 8 0
BBX 8 13 0 -2
BITMAP
00
00
00
00
02
3C
46
5A
A4
C4
78
80
00
ENDCHAR

STARTCHAR ugrave
ENCODING 249
SWIDTH 568 0
DWIDTH 8 0
BBX 8 13 0 -2
BITMAP
00
00
10
08
00
22
22
22
44
44
3A
00
00
ENDCHAR

STARTCHAR uacute
ENCODING 250
SWIDTH 568 0
DWIDTH 8 0
BBX 8 13 0 -2
BITMAP
00
00
04
08
00
22
22
22
44
44
3A
00
00
ENDCHAR

STARTCHAR ucircumflex
ENCODING 251
SWIDTH 568 0
DWIDTH 8 0
BBX 8 13 0 -2
BITMAP
00
00
0C
12
00
22
22
22
44
44
3A
00
00
ENDCHAR

STARTCHAR udieresis
ENCODING 252
SWIDTH 568 0
DWIDTH 8 0
BBX 8 13 0 -2
BITMAP
00
00
14
14
00
22
22
22
44
44
3A
00
00
ENDCHAR

STARTCHAR yacute
ENCODING 253
SWIDTH 568 0
DWIDTH 8 0
BBX 8 13 0 -2
BITMAP
00
00
08
10
00
42
42
84
8C
74
04
84
78
ENDCHAR

STARTCHAR thorn
ENCODING 254
SWIDTH 568 0
DWIDTH 8 0
BBX 8 13 0 -2
BITMAP
00
00
00
40
40
5C
62
42
84
C4
B8
80
80
ENDCHAR

STARTCHAR ydieresis
ENCODING 255
SWIDTH 568 0
DWIDTH 8 0
BBX 8 13 0 -2
BITMAP
00
00
24
24
00
42
42
84
8C
74
04
84
78
ENDCHAR

STARTCHAR Amacron
ENCODING 256
SWIDTH 568 0
DWIDTH 8 0
BBX 8 13 0 -2
BITMAP
00
7E
00
18
24
42
42
7C
84
84
84
00
00
ENDCHAR

STARTCHAR amacron
ENCODING 257
SWIDTH 568 0
DWIDTH 8 0
BBX 8 13 0 -2
BITMAP
00
00
00
7E
00
3C
02
7C
84
8C
74
00
00
ENDCHAR

STARTCHAR Abreve
ENCODING 258
SWIDTH 568 0
DWIDTH 8 0
BBX 8 13 0 -2
BITMAP
00
42
3C
00
18
24
42
42
7C
84
84
00
00
ENDCHAR

STARTCHAR abreve
ENCODING 259
SWIDTH 568 0
DWIDTH 8 0
BBX 8 13 0 -2
BITMAP
00
00
42
3C
00
3C
02
7C
84
8C
74
00
00
ENDCHAR

STARTCHAR Aogonek
ENCODING 260
SWIDTH 568 0
DWIDTH 8 0
BBX 8 13 0 -2
BITMAP
00
00
18
24
42
42
42
7C
84
84
84
08
06
ENDCHAR

STARTCHAR aogonek
ENCODING 261
SWIDTH 568 0
DWIDTH 8 0
BBX 8 13 0 -2
BITMAP
00
00
00
00
00
3C
02
7C
84
8C
74
08
06
ENDCHAR

STARTCHAR Cacute
ENCODING 262
SWIDTH 568 0
DWIDTH 8 0
BBX 8 13 0 -2
BITMAP
00
08
10
00
3C
42
40
80
80
84
78
00
00
ENDCHAR

STARTCHAR cacute
ENCODING 263
SWIDTH 568 0
DWIDTH 8 0
BBX 8 13 0 -2
BITMAP
00
00
08
10
00
3C
42
80
80
84
78
00
00
ENDCHAR

STARTCHAR Ccircumflex
ENCODING 264
SWIDTH 568 0
DWIDTH 8 0
BBX 8 13 0 -2
BITMAP
00
18
24
00
3C
42
40
80
80
84
78
00
00
ENDCHAR

STARTCHAR ccircumflex
ENCODING 265
SWIDTH 568 0
DWIDTH 8 0
BBX 8 13 0 -2
BITMAP
00
00
18
24
00
3C
42
80
80
84
78
00
00
ENDCHAR

STARTCHAR Cdotaccent
ENCODING 266
SWIDTH 568 0
DWIDTH 8 0
BBX 8 13 0 -2
BITMAP
00
18
00
3C
42
40
40
80
80
84
78
00
00
ENDCHAR

STARTCHAR cdotaccent
ENCODING 267
SWIDTH 568 0
DWIDTH 8 0
BBX 8 13 0 -2
BITMAP
00
00
00
18
00
3C
42
80
80
84
78
00
00
ENDCHAR

STARTCHAR Ccaron
ENCODING 268
SWIDTH 568 0
DWIDTH 8 0
BBX 8 13 0 -2
BITMAP
00
24
18
00
3C
42
40
80
80
84
78
00
00
ENDCHAR

STARTCHAR ccaron
ENCODING 269
SWIDTH 568 0
DWIDTH 8 0
BBX 8 13 0 -2
BITMAP
00
00
24
18
00
3C
42
80
80
84
78
00
00
ENDCHAR

STARTCHAR Dcaron
ENCODING 270
SWIDTH 568 0
DWIDTH 8 0
BBX 8 13 0 -2
BITMAP
00
24
18
00
78
44
42
42
84
88
F0
00
00
ENDCHAR

STARTCHAR dcaron
ENCODING 271
SWIDTH 568 0
DWIDTH 8 0
BBX 8 13 0 -2
BITMAP
00
24
18
02
02
3A
46
42
84
8C
74
00
00
ENDCHAR

STARTCHAR Dcroat
ENCODING 272
SWIDTH 568 0
DWIDTH 8 0
BBX 8 13 0 -2
BITMAP
00
00
78
44
42
42
F2
44
84
88
F0
00
00
ENDCHAR

STARTCHAR dcroat
ENCODING 273
SWIDTH 568 0
DWIDTH 8 0
BBX 8 13 0 -2
BITMAP
00
00
02
0F
02
3A
44
84
84
8C
74
00
00
ENDCHAR

STARTCHAR Emacron
ENCODING 274
SWIDTH 568 0
DWIDTH 8 0
BBX 8 13 0 -2
BITMAP
00
7E
00
7E
40
40
78
80
80
80
FC
00
00
ENDCHAR

STARTCHAR emacron
ENCODING 275
SWIDTH 568 0
DWIDTH 8 0
BBX 8 13 0 -2
BITMAP
00
00
00
7E
00
3C
42
7C
80
84
78
00
00
ENDCHAR

STARTCHAR Ebreve
ENCODING 276
SWIDTH 568 0
DWIDTH 8 0
BBX 8 13 0 -2
BITMAP
00
42
3C
00
7E
40
40
70
80
80
FC
00
00
ENDCHAR

STARTCHAR ebreve
ENCODING 277
SWIDTH 568 0
DWIDTH 8 0
BBX 8 13 0 -2
BITMAP
00
00
42
3C
00
3C
42
7C
80
84
78
00
00
ENDCHAR

STARTCHAR Edotaccent
ENCODING 278
SWIDTH 568 0
DWIDTH 8 0
BBX 8 13 0 -2
BITMAP
00
18
00
7E
40
40
78
80
80
80
FC
00
00
ENDCHAR

STARTCHAR edotaccent
ENCODING 279
SWIDTH 568 0
DWIDTH 8 0
BBX 8 13 0 -2
BITMAP
00
00
00
18
00
3C
42
7C
80
84
78
00
00
ENDCHAR

STARTCHAR Eogonek
ENCODING 280
SWIDTH 568 0
DWIDTH 8 0
BBX 8 13 0 -2
BITMAP
00
00
7E
40
40
40
78
80
80
80
FC
20
38
ENDCHAR

STARTCHAR eogonek
ENCODING 281
SWIDTH 568 0
DWIDTH 8 0
BBX 8 13 0 -2
BITMAP
00
00
00
00
00
3C
42
7C
80
84
78
20
38
ENDCHAR

STARTCHAR Ecaron
ENCODING 282
SWIDTH 568 0
DWIDTH 8 0
BBX 8 13 0 -2
BITMAP
00
24
18
00
7E
40
40
70
80
80
FC
00
00
ENDCHAR

STARTCHAR ecaron
ENCODING 283
SWIDTH 568 0
DWIDTH 8 0
BBX 8 13 0 -2
BITMAP
00
00
24
18
00
3C
42
7C
80
84
78
00
00
ENDCHAR

STARTCHAR Gcircumflex
ENCODING 284
SWIDTH 568 0
DWIDTH 8 0
BBX 8 13 0 -2
BITMAP
00
18
24
00
3C
42
40
9C
84
8C
74
00
00
ENDCHAR

STARTCHAR gcircumflex
ENCODING 285
SWIDTH 568 0
DWIDTH 8 0
BBX 8 13 0 -2
BITMAP
00
00
18
24
00
3A
44
88
70
80
78
84
78
ENDCHAR

STARTCHAR Gbreve
ENCODING 286
SWIDTH 568 0
DWIDTH 8 0
BBX 8 13 0 -2
BITMAP
00
42
3C
00
3C
42
40
9C
84
8C
74
00
00
ENDCHAR

STARTCHAR gbreve
ENCODING 287
SWIDTH 568 0
DWIDTH 8 0
BBX 8 13 0 -2
BITMAP
00
00
42
3C
00
3A
44
88
70
80
78
84
78
ENDCHAR

STARTCHAR Gdotaccent
ENCODING 288
SWIDTH 568 0
DWIDTH 8 0
BBX 8 13 0 -2
BITMAP
00
18
00
3C
42
40
40
9C
84
8C
74
00
00
ENDCHAR

STARTCHAR gdotaccent
ENCODING 289
SWIDTH 568 0
DWIDTH 8 0
BBX 8 13 0 -2
BITMAP
00
00
00
18
00
3A
44
88
70
80
78
84
78
ENDCHAR

STARTCHAR Gcommaaccent
ENCODING 290
SWIDTH 568 0
DWIDTH 8 0
BBX 8 13 0 -2
BITMAP
00
00
3C
42
40
40
40
9C
84
8C
74
10
20
ENDCHAR

STARTCHAR gcommaaccent
ENCODING 291
SWIDTH 568 0
DWIDTH 8 0
BBX 8 13 0 -2
BITMAP
00
08
10
18
00
3A
44
88
70
80
78
84
78
ENDCHAR

STARTCHAR Hcircumflex
ENCODING 292
SWIDTH 568 0
DWIDTH 8 0
BBX 8 13 0 -2
BITMAP
00
18
24
00
42
42
42
7C
84
84
84
00
00
ENDCHAR

STARTCHAR hcircumflex
ENCODING 293
SWIDTH 568 0
DWIDTH 8 0
BBX 8 13 0 -2
BITMAP
00
0C
12
40
40
5C
62
42
84
84
84
00
00
ENDCHAR

STARTCHAR Hbar
ENCODING 294
SWIDTH 568 0
DWIDTH 8 0
BBX 8 13 0 -2
BITMAP
00
00
42
42
FF
42
7C
84
84
84
84
00
00
ENDCHAR

STARTCHAR hbar
ENCODING 295
SWIDTH 568 0
DWIDTH 8 0
BBX 8 13 0 -2
BITMAP
00
00
20
78
20
5C
62
42
84
84
84
00
00
ENDCHAR

STARTCHAR Itilde
ENCODING 296
SWIDTH 568 0
DWIDTH 8 0
BBX 8 13 0 -2
BITMAP
00
32
4C
00
7C
10
10
20
20
20
F8
00
00
ENDCHAR

STARTCHAR itilde
ENCODING 297
SWIDTH 568 0
DWIDTH 8 0
BBX 8 13 0 -2
BITMAP
00
00
32
4C
00
30
10
10
20
20
F8
00
00
ENDCHAR

STARTCHAR Imacron
ENCODING 298
SWIDTH 568 0
DWIDTH 8 0
BBX 8 13 0 -2
BITMAP
00
3E
00
3E
08
08
08
10
10
10
7C
00
00
ENDCHAR

STARTCHAR imacron
ENCODING 299
SWIDTH 568 0
DWIDTH 8 0
BBX 8 13 0 -2
BITMAP
00
00
00
3E
00
18
08
08
10
10
7C
00
00
ENDCHAR

STARTCHAR Ibreve
ENCODING 300
SWIDTH 568 0
DWIDTH 8 0
BBX 8 13 0 -2
BITMAP
00
22
1C
00
3E
08
08
10
10
10
7C
00
00
ENDCHAR

STARTCHAR ibreve
ENCODING 301
SWIDTH 568 0
DWIDTH 8 0
BBX 8 13 0 -2
BITMAP
00
00
22
1C
00
18
08
08
10
10
7C
00
00
ENDCHAR

STARTCHAR Iogonek
ENCODING 302
SWIDTH 568 0
DWIDTH 8 0
BBX 8 13 0 -2
BITMAP
00
00
3E
08
08
08
08
10
10
10
7C
10
18
ENDCHAR

STARTCHAR iogonek
ENCODING 303
SWIDTH 568 0
DWIDTH 8 0
BBX 8 13 0 -2
BITMAP
00
00
00
18
00
18
08
08
10
10
7C
10
18
ENDCHAR

STARTCHAR Idotaccent
ENCODING 304
SWIDTH 568 0
DWIDTH 8 0
BBX 8 13 0 -2
BITMAP
00
08
00
3E
08
08
08
10
10
10
7C
00
00
ENDCHAR

STARTCHAR dotlessi
ENCODING 305
SWIDTH 568 0
DWIDTH 8 0
BBX 8 13 0 -2
BITMAP
00
00
00
00
00
18
08
08
10
10
7C
00
00
ENDCHAR

STARTCHAR IJ
ENCODING 306
SWIDTH 568 0
DWIDTH 8 0
BBX 8 13 0 -2
BITMAP
00
00
77
21
21
21
21
42
42
52
EC
00
00
ENDCHAR

STARTCHAR ij
ENCODING 307
SWIDTH 568 0
DWIDTH 8 0
BBX 8 13 0 -2
BITMAP
00
00
00
21
00
63
21
21
42
42
F2
12
0C
ENDCHAR

STARTCHAR Jcircumflex
ENCODING 308
SWIDTH 568 0
DWIDTH 8 0
BBX 8 13 0 -2
BITMAP
00
0C
12
00
1E
04
04
08
08
88
70
00
00
ENDCHAR

STARTCHAR jcircumflex
ENCODING 309
SWIDTH 568 0
DWIDTH 8 0
BBX 8 13 0 -2
BITMAP
00
00
0C
12
00
0C
04
04
08
08
88
88
70
ENDCHAR

STARTCHAR Kcommaaccent
ENCODING 310
SWIDTH 568 0
DWIDTH 8 0
BBX 8 13 0 -2
BITMAP
00
00
21
22
24
28
30
50
48
44
42
20
C0
ENDCHAR

STARTCHAR kcommaaccent
ENCODING 311
SWIDTH 568 0
DWIDTH 8 0
BBX 8 13 0 -2
BITMAP
00
00
20
20
20
22
2C
30
48
44
42
20
C0
ENDCHAR

STARTCHAR kgreenlandic
ENCODING 312
SWIDTH 568 0
DWIDTH 8 0
BBX 8 13 0 -2
BITMAP
00
00
00
00
00
42
4C
70
88
84
84
00
00
ENDCHAR

STARTCHAR Lacute
ENCODING 313
SWIDTH 568 0
DWIDTH 8 0
BBX 8 13 0 -2
BITMAP
00
04
08
20
20
20
20
40
40
40
7E
00
00
ENDCHAR

STARTCHAR lacute
ENCODING 314
SWIDTH 568 0
DWIDTH 8 0
BBX 8 13 0 -2
BITMAP
04
08
00
18
08
08
08
10
10
10
7C
00
00
ENDCHAR

STARTCHAR Lcommaaccent
ENCODING 315
SWIDTH 568 0
DWIDTH 8 0
BBX 8 13 0 -2
BITMAP
00
00
20
20
20
20
20
40
40
40
7E
08
10
ENDCHAR

STARTCHAR lcommaaccent
ENCODING 316
SWIDTH 568 0
DWIDTH 8 0
BBX 8 13 0 -2
BITMAP
00
00
18
08
08
08
08
10
10
10
7C
10
20
ENDCHAR

STARTCHAR Lcaron
ENCODING 317
SWIDTH 568 0
DWIDTH 8 0
BBX 8 13 0 -2
BITMAP
24
18
00
20
20
20
20
40
40
40
7E
00
00
ENDCHAR

STARTCHAR lcaron
ENCODING 318
SWIDTH 568 0
DWIDTH 8 0
BBX 8 13 0 -2
BITMAP
24
18
00
18
08
08
08
10
10
10
7C
00
00
ENDCHAR

STARTCHAR Ldot
ENCODING 319
SWIDTH 568 0
DWIDTH 8 0
BBX 8 13 0 -2
BITMAP
00
00
20
20
20
24
24
40
40
40
7E
00
00
ENDCHAR

STARTCHAR ldot
ENCODING 320
SWIDTH 568 0
DWIDTH 8 0
BBX 8 13 0 -2
BITMAP
00
30
10
10
10
12
12
20
20
20
F8
00
00
ENDCHAR

STARTCHAR Lslash
ENCODING 321
SWIDTH 568 0
DWIDTH 8 0
BBX 8 13 0 -2
BITMAP
00
00
20
20
20
20
30
C0
40
40
7E
00
00
ENDCHAR

STARTCHAR lslash
ENCODING 322
SWIDTH 568 0
DWIDTH 8 0
BBX 8 13 0 -2
BITMAP
00
18
08
08
08
0C
30
10
10
10
7C
00
00
ENDCHAR

STARTCHAR Nacute
ENCODING 323
SWIDTH 568 0
DWIDTH 8 0
BBX 8 13 0 -2
BITMAP
00
08
10
42
42
62
52
94
8C
84
84
00
00
ENDCHAR

STARTCHAR nacute
ENCODING 324
SWIDTH 568 0
DWIDTH 8 0
BBX 8 13 0 -2
BITMAP
00
00
08
10
00
5C
62
42
84
84
84
00
00
ENDCHAR

STARTCHAR Ncommaaccent
ENCODING 325
SWIDTH 568 0
DWIDTH 8 0
BBX 8 13 0 -2
BITMAP
00
00
42
42
62
52
4A
84
84
84
84
40
80
ENDCHAR

STARTCHAR ncommaaccent
ENCODING 326
SWIDTH 568 0
DWIDTH 8 0
BBX 8 13 0 -2
BITMAP
00
00
00
00
00
5C
62
42
84
84
84
40
80
ENDCHAR

STARTCHAR Ncaron
ENCODING 327
SWIDTH 568 0
DWIDTH 8 0
BBX 8 13 0 -2
BITMAP
00
24
18
42
42
62
52
94
8C
84
84
00
00
ENDCHAR

STARTCHAR ncaron
ENCODING 328
SWIDTH 568 0
DWIDTH 8 0
BBX 8 13 0 -2
BITMAP
00
00
24
18
00
5C
62
42
84
84
84
00
00
ENDCHAR

STARTCHAR napostrophe
ENCODING 329
SWIDTH 568 0
DWIDTH 8 0
BBX 8 13 0 -2
BITMAP
00
C0
40
80
00
5C
62
42
84
84
84
00
00
ENDCHAR

STARTCHAR Eng
ENCODING 330
SWIDTH 568 0
DWIDTH 8 0
BBX 8 13 0 -2
BITMAP
00
00
42
42
62
52
4A
84
84
84
84
08
30
ENDCHAR

STARTCHAR eng
ENCODING 331
SWIDTH 568 0
DWIDTH 8 0
BBX 8 13 0 -2
BITMAP
00
00
00
00
00
5C
62
42
84
84
84
08
30
ENDCHAR

STARTCHAR Omacron
ENCODING 332
SWIDTH 568 0
DWIDTH 8 0
BBX 8 13 0 -2
BITMAP
00
00
3E
00
3E
41
41
82
82
82
7C
00
00
ENDCHAR

STARTCHAR omacron
ENCODING 333
SWIDTH 568 0
DWIDTH 8 0
BBX 8 13 0 -2
BITMAP
00
00
00
7E
00
3C
42
42
84
84
78
00
00
ENDCHAR

STARTCHAR Obreve
ENCODING 334
SWIDTH 568 0
DWIDTH 8 0
BBX 8 13 0 -2
BITMAP
00
22
1C
00
3E
41
41
82
82
82
7C
00
00
ENDCHAR

STARTCHAR obreve
ENCODING 335
SWIDTH 568 0
DWIDTH 8 0
BBX 8 13 0 -2
BITMAP
00
00
42
3C
00
3C
42
42
84
84
78
00
00
ENDCHAR

STARTCHAR Ohungarumlaut
ENCODING 336
SWIDTH 568 0
DWIDTH 8 0
BBX 8 13 0 -2
BITMAP
00
12
24
00
3E
41
41
82
82
82
7C
00
00
ENDCHAR

STARTCHAR ohungarumlaut
ENCODING 337
SWIDTH 568 0
DWIDTH 8 0
BBX 8 13 0 -2
BITMAP
00
00
12
24
00
3C
42
42
84
84
78
00
00
ENDCHAR

STARTCHAR OE
ENCODING 338
SWIDTH 568 0
DWIDTH 8 0
BBX 8 13 0 -2
BITMAP
00
00
3F
48
48
48
4E
90
90
90
7E
00
00
ENDCHAR

STARTCHAR oe
ENCODING 339
SWIDTH 568 0
DWIDTH 8 0
BBX 8 13 0 -2
BITMAP
00
00
00
00
00
36
49
9E
90
92
6C
00
00
ENDCHAR

STARTCHAR Racute
ENCODING 340
SWIDTH 568 0
DWIDTH 8 0
BBX 8 13 0 -2
BITMAP
00
08
10
00
7C
42
42
7C
90
88
84
00
00
ENDCHAR

STARTCHAR racute
ENCODING 341
SWIDTH 568 0
DWIDTH 8 0
BBX 8 13 0 -2
BITMAP
00
00
08
10
00
5C
22
20
40
40
40
00
00
ENDCHAR

STARTCHAR Rcommaaccent
ENCODING 342
SWIDTH 568 0
DWIDTH 8 0
BBX 8 13 0 -2
BITMAP
00
00
7C
42
42
42
7C
A0
90
88
84
40
80
ENDCHAR

STARTCHAR rcommaaccent
ENCODING 343
SWIDTH 568 0
DWIDTH 8 0
BBX 8 13 0 -2
BITMAP
00
00
00
00
00
5C
22
20
40
40
40
20
40
ENDCHAR

STARTCHAR Rcaron
ENCODING 344
SWIDTH 568 0
DWIDTH 8 0
BBX 8 13 0 -2
BITMAP
00
24
18
00
7C
42
42
7C
90
88
84
00
00
ENDCHAR

STARTCHAR rcaron
ENCODING 345
SWIDTH 568 0
DWIDTH 8 0
BBX 8 13 0 -2
BITMAP
00
00
24
18
00
5C
22
20
40
40
40
00
00
ENDCHAR

STARTCHAR Sacute
ENCODING 346
SWIDTH 568 0
DWIDTH 8 0
BBX 8 13 0 -2
BITMAP
00
08
10
00
3C
42
40
38
04
84
78
00
00
ENDCHAR

STARTCHAR sacute
ENCODING 347
SWIDTH 568 0
DWIDTH 8 0
BBX 8 13 0 -2
BITMAP
00
00
08
10
00
3C
42
30
08
84
78
00
00
ENDCHAR

STARTCHAR Scircumflex
ENCODING 348
SWIDTH 568 0
DWIDTH 8 0
BBX 8 13 0 -2
BITMAP
00
18
24
00
3C
42
40
38
04
84
78
00
00
ENDCHAR

STARTCHAR scircumflex
ENCODING 349
SWIDTH 568 0
DWIDTH 8 0
BBX 8 13 0 -2
BITMAP
00
00
18
24
00
3C
42
30
08
84
78
00
00
ENDCHAR

STARTCHAR Scedilla
ENCODING 350
SWIDTH 568 0
DWIDTH 8 0
BBX 8 13 0 -2
BITMAP
00
00
3C
42
40
40
38
04
04
84
78
10
20
ENDCHAR

STARTCHAR scedilla
ENCODING 351
SWIDTH 568 0
DWIDTH 8 0
BBX 8 13 0 -2
BITMAP
00
00
00
00
00
3C
42
30
08
84
78
10
20
ENDCHAR

STARTCHAR Scaron
ENCODING 352
SWIDTH 568 0
DWIDTH 8 0
BBX 8 13 0 -2
BITMAP
00
24
18
00
3C
42
40
38
04
84
78
00
00
ENDCHAR

STARTCHAR scaron
ENCODING 353
SWIDTH 568 0
DWIDTH 8 0
BBX 8 13 0 -2
BITMAP
00
00
24
18
00
3C
42
30
08
84
78
00
00
ENDCHAR

STARTCHAR Tcommaaccent
ENCODING 354
SWIDTH 568 0
DWIDTH 8 0
BBX 8 13 0 -2
BITMAP
00
00
FE
10
10
10
10
20
20
20
20
10
20
ENDCHAR

STARTCHAR tcommaaccent
ENCODING 355
SWIDTH 568 0
DWIDTH 8 0
BBX 8 13 0 -2
BITMAP
00
00
00
20
20
7C
20
40
40
44
38
10
20
ENDCHAR

STARTCHAR Tcaron
ENCODING 356
SWIDTH 568 0
DWIDTH 8 0
BBX 8 13 0 -2
BITMAP
00
28
10
00
FE
10
10
20
20
20
20
00
00
ENDCHAR

STARTCHAR tcaron
ENCODING 357
SWIDTH 568 0
DWIDTH 8 0
BBX 8 13 0 -2
BITMAP
00
48
30
00
20
20
7C
20
40
44
38
00
00
ENDCHAR

STARTCHAR Tbar
ENCODING 358
SWIDTH 568 0
DWIDTH 8 0
BBX 8 13 0 -2
BITMAP
00
00
FE
10
10
7C
10
20
20
20
20
00
00
ENDCHAR

STARTCHAR tbar
ENCODING 359
SWIDTH 568 0
DWIDTH 8 0
BBX 8 13 0 -2
BITMAP
00
00
00
10
3E
10
7C
20
20
22
1C
00
00
ENDCHAR

STARTCHAR Utilde
ENCODING 360
SWIDTH 568 0
DWIDTH 8 0
BBX 8 13 0 -2
BITMAP
00
32
4C
00
42
42
42
84
84
84
78
00
00
ENDCHAR

STARTCHAR utilde
ENCODING 361
SWIDTH 568 0
DWIDTH 8 0
BBX 8 13 0 -2
BITMAP
00
00
32
4C
00
44
44
44
88
88
74
00
00
ENDCHAR

STARTCHAR Umacron
ENCODING 362
SWIDTH 568 0
DWIDTH 8 0
BBX 8 13 0 -2
BITMAP
00
7E
00
42
42
42
42
84
84
84
78
00
00
ENDCHAR

STARTCHAR umacron
ENCODING 363
SWIDTH 568 0
DWIDTH 8 0
BBX 8 13 0 -2
BITMAP
00
00
00
3E
00
22
22
22
44
44
3A
00
00
ENDCHAR

STARTCHAR Ubreve
ENCODING 364
SWIDTH 568 0
DWIDTH 8 0
BBX 8 13 0 -2
BITMAP
00
42
3C
00
42
42
42
84
84
84
78
00
00
ENDCHAR

STARTCHAR ubreve
ENCODING 365
SWIDTH 568 0
DWIDTH 8 0
BBX 8 13 0 -2
BITMAP
00
00
22
1C
00
22
22
22
44
44
3A
00
00
ENDCHAR

STARTCHAR Uring
ENCODING 366
SWIDTH 568 0
DWIDTH 8 0
BBX 8 13 0 -2
BITMAP
00
18
24
18
42
42
42
84
84
84
78
00
00
ENDCHAR

STARTCHAR uring
ENCODING 367
SWIDTH 568 0
DWIDTH 8 0
BBX 8 13 0 -2
BITMAP
00
0C
12
0C
00
22
22
22
44
44
3A
00
00
ENDCHAR

STARTCHAR Uhungarumlaut
ENCODING 368
SWIDTH 568 0
DWIDTH 8 0
BBX 8 13 0 -2
BITMAP
00
12
24
00
42
42
42
84
84
84
78
00
00
ENDCHAR

STARTCHAR uhungarumlaut
ENCODING 369
SWIDTH 568 0
DWIDTH 8 0
BBX 8 13 0 -2
BITMAP
00
00
12
24
00
44
44
44
88
88
74
00
00
ENDCHAR

STARTCHAR Uogonek
ENCODING 370
SWIDTH 568 0
DWIDTH 8 0
BBX 8 13 0 -2
BITMAP
00
00
42
42
42
42
42
84
84
84
78
10
18
ENDCHAR

STARTCHAR uogonek
ENCODING 371
SWIDTH 568 0
DWIDTH 8 0
BBX 8 13 0 -2
BITMAP
00
00
00
00
00
22
22
22
44
44
3A
08
0C
ENDCHAR

STARTCHAR Wcircumflex
ENCODING 372
SWIDTH 568 0
DWIDTH 8 0
BBX 8 13 0 -2
BITMAP
00
08
14
00
41
41
49
92
92
AA
44
00
00
ENDCHAR

STARTCHAR wcircumflex
ENCODING 373
SWIDTH 568 0
DWIDTH 8 0
BBX 8 13 0 -2
BITMAP
00
00
08
14
00
41
41
92
92
AA
44
00
00
ENDCHAR

STARTCHAR Ycircumflex
ENCODING 374
SWIDTH 568 0
DWIDTH 8 0
BBX 8 13 0 -2
BITMAP
00
18
24
00
82
44
28
10
10
20
20
00
00
ENDCHAR

STARTCHAR ycircumflex
ENCODING 375
SWIDTH 568 0
DWIDTH 8 0
BBX 8 13 0 -2
BITMAP
00
00
18
24
00
42
42
84
8C
74
04
84
78
ENDCHAR

STARTCHAR Ydieresis
ENCODING 376
SWIDTH 568 0
DWIDTH 8 0
BBX 8 13 0 -2
BITMAP
00
44
44
00
82
44
28
10
10
20
20
00
00
ENDCHAR

STARTCHAR Zacute
ENCODING 377
SWIDTH 568 0
DWIDTH 8 0
BBX 8 13 0 -2
BITMAP
00
08
10
00
7E
04
08
30
40
80
FC
00
00
ENDCHAR

STARTCHAR zacute
ENCODING 378
SWIDTH 568 0
DWIDTH 8 0
BBX 8 13 0 -2
BITMAP
00
00
08
10
00
7E
04
18
20
40
FC
00
00
ENDCHAR

STARTCHAR Zdotaccent
ENCODING 379
SWIDTH 568 0
DWIDTH 8 0
BBX 8 13 0 -2
BITMAP
00
18
00
7E
02
04
18
20
40
80
FC
00
00
ENDCHAR

STARTCHAR zdotaccent
ENCODING 380
SWIDTH 568 0
DWIDTH 8 0
BBX 8 13 0 -2
BITMAP
00
00
00
18
00
7E
04
18
20
40
FC
00
00
ENDCHAR

STARTCHAR Zcaron
ENCODING 381
SWIDTH 568 0
DWIDTH 8 0
BBX 8 13 0 -2
BITMAP
00
24
18
00
7E
04
08
30
40
80
FC
00
00
ENDCHAR

STARTCHAR zcaron
ENCODING 382
SWIDTH 568 0
DWIDTH 8 0
BBX 8 13 0 -2
BITMAP
00
00
24
18
00
7E
04
18
20
40
FC
00
00
ENDCHAR

STARTCHAR longs
ENCODING 383
SWIDTH 568 0
DWIDTH 8 0
BBX 8 13 0 -2
BITMAP
00
00
18
24
20
20
60
20
40
40
40
00
00
ENDCHAR

STARTCHAR uni0180
ENCODING 384
SWIDTH 568 0
DWIDTH 8 0
BBX 8 13 0 -2
BITMAP
00
00
40
F0
40
5C
62
42
84
C4
B8
00
00
ENDCHAR

STARTCHAR uni0181
ENCODING 385
SWIDTH 568 0
DWIDTH 8 0
BBX 8 13 0 -2
BITMAP
00
00
FC
A2
22
22
3C
44
44
44
78
00
00
ENDCHAR

STARTCHAR uni0182
ENCODING 386
SWIDTH 568 0
DWIDTH 8 0
BBX 8 13 0 -2
BITMAP
00
00
7E
20
20
20
3C
42
42
42
FC
00
00
ENDCHAR

STARTCHAR uni0183
ENCODING 387
SWIDTH 568 0
DWIDTH 8 0
BBX 8 13 0 -2
BITMAP
00
00
7C
40
40
5C
62
42
84
C4
B8
00
00
ENDCHAR

STARTCHAR uni0184
ENCODING 388
SWIDTH 568 0
DWIDTH 8 0
BBX 8 13 0 -2
BITMAP
00
00
20
60
20
2C
32
22
44
64
58
00
00
ENDCHAR

STARTCHAR uni0185
ENCODING 389
SWIDTH 568 0
DWIDTH 8 0
BBX 8 13 0 -2
BITMAP
00
00
20
60
20
3C
22
22
44
44
38
00
00
ENDCHAR

STARTCHAR uni0186
ENCODING 390
SWIDTH 568 0
DWIDTH 8 0
BBX 8 13 0 -2
BITMAP
00
00
3C
42
02
02
02
04
04
84
78
00
00
ENDCHAR

STARTCHAR uni0187
ENCODING 391
SWIDTH 568 0
DWIDTH 8 0
BBX 8 13 0 -2
BITMAP
00
02
3C
44
40
40
40
80
80
88
70
00
00
ENDCHAR

STARTCHAR uni0188
ENCODING 392
SWIDTH 568 0
DWIDTH 8 0
BBX 8 13 0 -2
BITMAP
00
00
00
00
00
3A
44
80
80
88
70
00
00
ENDCHAR

STARTCHAR uni0189
ENCODING 393
SWIDTH 568 0
DWIDTH 8 0
BBX 8 13 0 -2
BITMAP
00
00
78
44
42
42
F2
44
84
88
F0
00
00
ENDCHAR

STARTCHAR uni018A
ENCODING 394
SWIDTH 568 0
DWIDTH 8 0
BBX 8 13 0 -2
BITMAP
00
00
7C
A2
22
22
22
44
44
44
78
00
00
ENDCHAR

STARTCHAR uni018B
ENCODING 395
SWIDTH 568 0
DWIDTH 8 0
BBX 8 13 0 -2
BITMAP
00
00
3E
02
02
3A
44
84
84
8C
74
00
00
ENDCHAR

STARTCHAR uni018C
ENCODING 396
SWIDTH 568 0
DWIDTH 8 0
BBX 8 13 0 -2
BITMAP
00
00
3C
04
04
14
28
48
48
58
28
00
00
ENDCHAR

STARTCHAR uni018D
ENCODING 397
SWIDTH 568 0
DWIDTH 8 0
BBX 8 13 0 -2
BITMAP
00
00
00
00
00
3C
42
42
84
48
30
08
70
ENDCHAR

STARTCHAR uni018E
ENCODING 398
SWIDTH 568 0
DWIDTH 8 0
BBX 8 13 0 -2
BITMAP
00
00
7E
02
02
02
1C
04
04
04
FC
00
00
ENDCHAR

STARTCHAR uni018F
ENCODING 399
SWIDTH 568 0
DWIDTH 8 0
BBX 8 13 0 -2
BITMAP
00
00
3C
42
02
02
02
FC
84
84
78
00
00
ENDCHAR

STARTCHAR uni0190
ENCODING 400
SWIDTH 568 0
DWIDTH 8 0
BBX 8 13 0 -2
BITMAP
00
00
3C
42
40
40
38
40
80
84
78
00
00
ENDCHAR

STARTCHAR uni0191
ENCODING 401
SWIDTH 568 0
DWIDTH 8 0
BBX 8 13 0 -2
BITMAP
00
00
1F
10
10
10
1E
20
20
20
A0
40
00
ENDCHAR

STARTCHAR florin
ENCODING 402
SWIDTH 568 0
DWIDTH 8 0
BBX 8 13 0 -2
BITMAP
00
00
06
09
08
08
1E
08
10
10
10
90
60
ENDCHAR

STARTCHAR uni0193
ENCODING 403
SWIDTH 568 0
DWIDTH 8 0
BBX 8 13 0 -2
BITMAP
00
02
3E
42
40
40
40
9C
84
8C
74
00
00
ENDCHAR

STARTCHAR uni0194
ENCODING 404
SWIDTH 568 0
DWIDTH 8 0
BBX 8 13 0 -2
BITMAP
00
00
82
82
44
44
28
10
20
50
50
20
00
ENDCHAR

STARTCHAR uni0195
ENCODING 405
SWIDTH 568 0
DWIDTH 8 0
BBX 8 13 0 -2
BITMAP
00
00
40
40
40
52
6A
4A
94
94
88
00
00
ENDCHAR

STARTCHAR uni0196
ENCODING 406
SWIDTH 568 0
DWIDTH 8 0
BBX 8 13 0 -2
BITMAP
00
00
30
10
10
10
10
20
20
20
18
00
00
ENDCHAR

STARTCHAR uni0197
ENCODING 407
SWIDTH 568 0
DWIDTH 8 0
BBX 8 13 0 -2
BITMAP
00
00
3E
08
08
08
3C
10
10
10
7C
00
00
ENDCHAR

STARTCHAR uni0198
ENCODING 408
SWIDTH 568 0
DWIDTH 8 0
BBX 8 13 0 -2
BITMAP
00
00
44
4A
50
60
60
A0
90
88
84
00
00
ENDCHAR

STARTCHAR uni0199
ENCODING 409
SWIDTH 568 0
DWIDTH 8 0
BBX 8 13 0 -2
BITMAP
00
00
18
24
20
22
2C
30
48
44
42
00
00
ENDCHAR

STARTCHAR uni019A
ENCODING 410
SWIDTH 568 0
DWIDTH 8 0
BBX 8 13 0 -2
BITMAP
00
00
18
08
08
1C
08
10
10
10
7C
00
00
ENDCHAR

STARTCHAR uni019B
ENCODING 411
SWIDTH 568 0
DWIDTH 8 0
BBX 8 13 0 -2
BITMAP
00
00
32
4C
18
28
18
28
28
4A
44
00
00
ENDCHAR

STARTCHAR uni019C
ENCODING 412
SWIDTH 568 0
DWIDTH 8 0
BBX 8 13 0 -2
BITMAP
00
00
49
49
49
49
49
92
92
92
6E
00
00
ENDCHAR

STARTCHAR uni019D
ENCODING 413
SWIDTH 568 0
DWIDTH 8 0
BBX 8 13 0 -2
BITMAP
00
00
21
21
31
29
25
46
42
42
42
40
80
ENDCHAR

STARTCHAR uni019E
ENCODING 414
SWIDTH 568 0
DWIDTH 8 0
BBX 8 13 0 -2
BITMAP
00
00
00
00
00
5C
62
42
84
84
84
04
04
ENDCHAR

STARTCHAR uni019F
ENCODING 415
SWIDTH 568 0
DWIDTH 8 0
BBX 8 13 0 -2
BITMAP
00
00
3C
42
42
42
7C
84
84
84
78
00
00
ENDCHAR

STARTCHAR Ohorn
ENCODING 416
SWIDTH 568 0
DWIDTH 8 0
BBX 8 13 0 -2
BITMAP
00
01
3D
42
42
42
42
84
84
84
78
00
00
ENDCHAR

STARTCHAR ohorn
ENCODING 417
SWIDTH 568 0
DWIDTH 8 0
BBX 8 13 0 -2
BITMAP
00
00
00
00
01
3D
42
42
84
84
78
00
00
ENDCHAR

STARTCHAR uni01A2
ENCODING 418
SWIDTH 568 0
DWIDTH 8 0
BBX 8 13 0 -2
BITMAP
00
00
36
4A
4A
4A
4A
94
94
94
64
04
00
ENDCHAR

STARTCHAR uni01A3
ENCODING 419
SWIDTH 568 0
DWIDTH 8 0
BBX 8 13 0 -2
BITMAP
00
00
00
00
00
36
4A
4A
94
94
64
04
00
ENDCHAR

STARTCHAR uni01A4
ENCODING 420
SWIDTH 568 0
DWIDTH 8 0
BBX 8 13 0 -2
BITMAP
00
00
7C
A2
A2
22
3C
40
40
40
40
00
00
ENDCHAR

STARTCHAR uni01A5
ENCODING 421
SWIDTH 568 0
DWIDTH 8 0
BBX 8 13 0 -2
BITMAP
00
00
00
18
20
2C
32
22
44
64
58
40
40
ENDCHAR

STARTCHAR uni01A6
ENCODING 422
SWIDTH 568 0
DWIDTH 8 0
BBX 8 13 0 -2
BITMAP
00
00
40
40
7C
42
42
7C
90
88
88
08
04
ENDCHAR

STARTCHAR uni01A7
ENCODING 423
SWIDTH 568 0
DWIDTH 8 0
BBX 8 13 0 -2
BITMAP
00
00
3C
42
02
04
38
40
80
84
78
00
00
ENDCHAR

STARTCHAR uni01A8
ENCODING 424
SWIDTH 568 0
DWIDTH 8 0
BBX 8 13 0 -2
BITMAP
00
00
00
00
00
3C
42
1C
60
84
78
00
00
ENDCHAR

STARTCHAR uni01A9
ENCODING 425
SWIDTH 568 0
DWIDTH 8 0
BBX 8 13 0 -2
BITMAP
00
00
7E
20
10
08
08
10
20
40
FC
00
00
ENDCHAR

STARTCHAR uni01AA
ENCODING 426
SWIDTH 568 0
DWIDTH 8 0
BBX 8 13 0 -2
BITMAP
00
00
30
48
48
38
08
08
10
10
10
14
08
ENDCHAR

STARTCHAR uni01AB
ENCODING 427
SWIDTH 568 0
DWIDTH 8 0
BBX 8 13 0 -2
BITMAP
00
00
00
20
20
7C
20
40
40
48
34
04
18
ENDCHAR

STARTCHAR uni01AC
ENCODING 428
SWIDTH 568 0
DWIDTH 8 0
BBX 8 13 0 -2
BITMAP
00
00
7E
90
90
10
10
20
20
20
20
00
00
ENDCHAR

STARTCHAR uni01AD
ENCODING 429
SWIDTH 568 0
DWIDTH 8 0
BBX 8 13 0 -2
BITMAP
00
1C
22
20
20
7C
20
40
40
44
38
00
00
ENDCHAR

STARTCHAR uni01AE
ENCODING 430
SWIDTH 568 0
DWIDTH 8 0
BBX 8 13 0 -2
BITMAP
00
00
FE
10
10
10
10
20
20
20
20
24
18
ENDCHAR

STARTCHAR Uhorn
ENCODING 431
SWIDTH 568 0
DWIDTH 8 0
BBX 8 13 0 -2
BITMAP
02
02
44
44
44
44
44
88
88
88
70
00
00
ENDCHAR

STARTCHAR uhorn
ENCODING 432
SWIDTH 568 0
DWIDTH 8 0
BBX 8 13 0 -2
BITMAP
00
00
00
02
02
44
44
44
88
88
74
00
00
ENDCHAR

STARTCHAR uni01B1
ENCODING 433
SWIDTH 568 0
DWIDTH 8 0
BBX 8 13 0 -2
BITMAP
00
00
24
24
24
42
42
84
84
48
30
00
00
ENDCHAR

STARTCHAR uni01B2
ENCODING 434
SWIDTH 568 0
DWIDTH 8 0
BBX 8 13 0 -2
BITMAP
00
00
48
44
44
42
42
84
84
88
70
00
00
ENDCHAR

STARTCHAR uni01B3
ENCODING 435
SWIDTH 568 0
DWIDTH 8 0
BBX 8 13 0 -2
BITMAP
00
00
C2
22
14
14
08
08
10
10
10
00
00
ENDCHAR

STARTCHAR uni01B4
ENCODING 436
SWIDTH 568 0
DWIDTH 8 0
BBX 8 13 0 -2
BITMAP
00
00
02
04
04
44
44
88
98
68
08
88
70
ENDCHAR

STARTCHAR uni01B5
ENCODING 437
SWIDTH 568 0
DWIDTH 8 0
BBX 8 13 0 -2
BITMAP
00
00
7E
02
04
08
7C
40
80
80
FC
00
00
ENDCHAR

STARTCHAR uni01B6
ENCODING 438
SWIDTH 568 0
DWIDTH 8 0
BBX 8 13 0 -2
BITMAP
00
00
00
00
00
7E
04
7C
20
40
FC
00
00
ENDCHAR

STARTCHAR uni01B7
ENCODING 439
SWIDTH 568 0
DWIDTH 8 0
BBX 8 13 0 -2
BITMAP
00
00
7E
02
04
08
1C
04
04
84
78
00
00
ENDCHAR

STARTCHAR uni01B8
ENCODING 440
SWIDTH 568 0
DWIDTH 8 0
BBX 8 13 0 -2
BITMAP
00
00
7E
40
20
10
78
80
80
84
78
00
00
ENDCHAR

STARTCHAR uni01B9
ENCODING 441
SWIDTH 568 0
DWIDTH 8 0
BBX 8 13 0 -2
BITMAP
00
00
00
00
7E
40
20
10
70
80
80
84
78
ENDCHAR

STARTCHAR uni01BA
ENCODING 442
SWIDTH 568 0
DWIDTH 8 0
BBX 8 13 0 -2
BITMAP
00
00
7E
02
04
08
1C
04
18
60
84
78
00
ENDCHAR

STARTCHAR uni01BB
ENCODING 443
SWIDTH 568 0
DWIDTH 8 0
BBX 8 13 0 -2
BITMAP
00
00
3C
42
42
04
08
FC
40
80
FC
00
00
ENDCHAR

STARTCHAR uni01BC
ENCODING 444
SWIDTH 568 0
DWIDTH 8 0
BBX 8 13 0 -2
BITMAP
00
00
7E
42
78
04
02
02
04
84
78
00
00
ENDCHAR

STARTCHAR uni01BD
ENCODING 445
SWIDTH 568 0
DWIDTH 8 0
BBX 8 13 0 -2
BITMAP
00
00
00
00
00
3C
20
38
04
48
70
00
00
ENDCHAR

STARTCHAR uni01BE
ENCODING 446
SWIDTH 568 0
DWIDTH 8 0
BBX 8 13 0 -2
BITMAP
00
00
08
08
3E
10
10
10
08
88
70
00
00
ENDCHAR

STARTCHAR uni01BF
ENCODING 447
SWIDTH 568 0
DWIDTH 8 0
BBX 8 13 0 -2
BITMAP
00
00
00
00
00
2C
32
22
4C
50
60
40
40
ENDCHAR

STARTCHAR uni01C0
ENCODING 448
SWIDTH 568 0
DWIDTH 8 0
BBX 8 13 0 -2
BITMAP
00
00
08
08
08
08
08
10
10
10
10
00
00
ENDCHAR

STARTCHAR uni01C1
ENCODING 449
SWIDTH 568 0
DWIDTH 8 0
BBX 8 13 0 -2
BITMAP
00
00
14
14
14
14
14
28
28
28
28
00
00
ENDCHAR

STARTCHAR uni01C2
ENCODING 450
SWIDTH 568 0
DWIDTH 8 0
BBX 8 13 0 -2
BITMAP
00
00
08
08
08
3E
08
7C
10
10
10
00
00
ENDCHAR

STARTCHAR uni01C3
ENCODING 451
SWIDTH 568 0
DWIDTH 8 0
BBX 8 13 0 -2
BITMAP
00
00
08
08
08
08
10
10
10
00
10
00
00
ENDCHAR

STARTCHAR uni01C4
ENCODING 452
SWIDTH 568 0
DWIDTH 8 0
BBX 8 13 0 -2
BITMAP
05
02
60
57
51
51
52
A4
A8
A8
CE
00
00
ENDCHAR

STARTCHAR uni01C5
ENCODING 453
SWIDTH 568 0
DWIDTH 8 0
BBX 8 13 0 -2
BITMAP
00
00
65
52
50
57
51
A6
A8
A8
CE
00
00
ENDCHAR

STARTCHAR uni01C6
ENCODING 454
SWIDTH 568 0
DWIDTH 8 0
BBX 8 13 0 -2
BITMAP
00
00
15
12
10
37
51
52
A4
A8
6E
00
00
ENDCHAR

STARTCHAR uni01C7
ENCODING 455
SWIDTH 568 0
DWIDTH 8 0
BBX 8 13 0 -2
BITMAP
00
00
47
41
41
41
41
82
82
92
EC
00
00
ENDCHAR

STARTCHAR uni01C8
ENCODING 456
SWIDTH 568 0
DWIDTH 8 0
BBX 8 13 0 -2
BITMAP
00
00
40
41
40
43
41
81
82
82
EA
0A
04
ENDCHAR

STARTCHAR uni01C9
ENCODING 457
SWIDTH 568 0
DWIDTH 8 0
BBX 8 13 0 -2
BITMAP
00
00
40
41
40
43
41
81
82
82
6A
0A
04
ENDCHAR

STARTCHAR uni01CA
ENCODING 458
SWIDTH 568 0
DWIDTH 8 0
BBX 8 13 0 -2
BITMAP
00
00
4B
49
69
59
49
92
92
9A
94
00
00
ENDCHAR

STARTCHAR uni01CB
ENCODING 459
SWIDTH 568 0
DWIDTH 8 0
BBX 8 13 0 -2
BITMAP
00
00
48
48
68
59
48
91
91
92
92
0A
04
ENDCHAR

STARTCHAR uni01CC
ENCODING 460
SWIDTH 568 0
DWIDTH 8 0
BBX 8 13 0 -2
BITMAP
00
00
00
00
00
71
48
49
91
92
92
0A
04
ENDCHAR

STARTCHAR uni01CD
ENCODING 461
SWIDTH 568 0
DWIDTH 8 0
BBX 8 13 0 -2
BITMAP
00
24
18
00
18
24
42
42
7C
84
84
00
00
ENDCHAR

STARTCHAR uni01CE
ENCODING 462
SWIDTH 568 0
DWIDTH 8 0
BBX 8 13 0 -2
BITMAP
00
00
24
18
00
3C
02
7C
84
8C
74
00
00
ENDCHAR

STARTCHAR uni01CF
ENCODING 463
SWIDTH 568 0
DWIDTH 8 0
BBX 8 13 0 -2
BITMAP
00
12
0C
00
3E
08
08
10
10
10
7C
00
00
ENDCHAR

STARTCHAR uni01D0
ENCODING 464
SWIDTH 568 0
DWIDTH 8 0
BBX 8 13 0 -2
BITMAP
00
00
24
18
00
18
08
08
10
10
7C
00
00
ENDCHAR

STARTCHAR uni01D1
ENCODING 465
SWIDTH 568 0
DWIDTH 8 0
BBX 8 13 0 -2
BITMAP
00
12
0C
00
3E
41
41
82
82
82
7C
00
00
ENDCHAR

STARTCHAR uni01D2
ENCODING 466
SWIDTH 568 0
DWIDTH 8 0
BBX 8 13 0 -2
BITMAP
00
00
24
18
00
3C
42
42
84
84
78
00
00
ENDCHAR

STARTCHAR uni01D3
ENCODING 467
SWIDTH 568 0
DWIDTH 8 0
BBX 8 13 0 -2
BITMAP
00
24
18
00
42
42
42
84
84
84
78
00
00
ENDCHAR

STARTCHAR uni01D4
ENCODING 468
SWIDTH 568 0
DWIDTH 8 0
BBX 8 13 0 -2
BITMAP
00
00
12
0C
00
22
22
22
44
44
3A
00
00
ENDCHAR

STARTCHAR uni01D5
ENCODING 469
SWIDTH 568 0
DWIDTH 8 0
BBX 8 13 0 -2
BITMAP
3C
00
24
00
42
42
42
84
84
84
78
00
00
ENDCHAR

STARTCHAR uni01D6
ENCODING 470
SWIDTH 568 0
DWIDTH 8 0
BBX 8 13 0 -2
BITMAP
00
1E
00
12
00
22
22
22
44
44
3A
00
00
ENDCHAR

STARTCHAR uni01D7
ENCODING 471
SWIDTH 568 0
DWIDTH 8 0
BBX 8 13 0 -2
BITMAP
04
08
22
00
42
42
42
84
84
84
78
00
00
ENDCHAR

STARTCHAR uni01D8
ENCODING 472
SWIDTH 568 0
DWIDTH 8 0
BBX 8 13 0 -2
BITMAP
00
04
08
22
00
22
22
22
44
44
3A
00
00
ENDCHAR

STARTCHAR uni01D9
ENCODING 473
SWIDTH 568 0
DWIDTH 8 0
BBX 8 13 0 -2
BITMAP
14
08
22
00
42
42
42
84
84
84
78
00
00
ENDCHAR

STARTCHAR uni01DA
ENCODING 474
SWIDTH 568 0
DWIDTH 8 0
BBX 8 13 0 -2
BITMAP
00
14
08
22
00
22
22
22
44
44
3A
00
00
ENDCHAR

STARTCHAR uni01DB
ENCODING 475
SWIDTH 568 0
DWIDTH 8 0
BBX 8 13 0 -2
BITMAP
10
08
22
00
42
42
42
84
84
84
78
00
00
ENDCHAR

STARTCHAR uni01DC
ENCODING 476
SWIDTH 568 0
DWIDTH 8 0
BBX 8 13 0 -2
BITMAP
00
10
08
22
00
22
22
22
44
44
3A
00
00
ENDCHAR

STARTCHAR uni01DD
ENCODING 477
SWIDTH 568 0
DWIDTH 8 0
BBX 8 13 0 -2
BITMAP
00
00
00
00
00
3C
42
02
FC
84
78
00
00
ENDCHAR

STARTCHAR uni01DE
ENCODING 478
SWIDTH 568 0
DWIDTH 8 0
BBX 8 13 0 -2
BITMAP
3C
00
24
00
18
24
42
42
7C
84
84
00
00
ENDCHAR

STARTCHAR uni01DF
ENCODING 479
SWIDTH 568 0
DWIDTH 8 0
BBX 8 13 0 -2
BITMAP
00
3C
00
24
00
3C
02
7C
84
8C
74
00
00
ENDCHAR

STARTCHAR uni01E0
ENCODING 480
SWIDTH 568 0
DWIDTH 8 0
BBX 8 13 0 -2
BITMAP
3C
00
18
00
18
24
42
42
7C
84
84
00
00
ENDCHAR

STARTCHAR uni01E1
ENCODING 481
SWIDTH 568 0
DWIDTH 8 0
BBX 8 13 0 -2
BITMAP
00
3C
00
18
00
3C
02
7C
84
8C
74
00
00
ENDCHAR

STARTCHAR uni01E2
ENCODING 482
SWIDTH 568 0
DWIDTH 8 0
BBX 8 13 0 -2
BITMAP
00
00
1E
00
3F
48
48
FC
90
90
9E
00
00
ENDCHAR

STARTCHAR uni01E3
ENCODING 483
SWIDTH 568 0
DWIDTH 8 0
BBX 8 13 0 -2
BITMAP
00
00
00
1E
00
36
09
7E
90
92
6C
00
00
ENDCHAR

STARTCHAR uni01E4
ENCODING 484
SWIDTH 568 0
DWIDTH 8 0
BBX 8 13 0 -2
BITMAP
00
00
3C
42
40
40
4E
84
8E
84
78
00
00
ENDCHAR

STARTCHAR uni01E5
ENCODING 485
SWIDTH 568 0
DWIDTH 8 0
BBX 8 13 0 -2
BITMAP
00
00
00
00
00
3A
44
88
70
80
78
8E
78
ENDCHAR

STARTCHAR Gcaron
ENCODING 486
SWIDTH 568 0
DWIDTH 8 0
BBX 8 13 0 -2
BITMAP
00
24
18
00
3C
42
40
9C
84
8C
74
00
00
ENDCHAR

STARTCHAR gcaron
ENCODING 487
SWIDTH 568 0
DWIDTH 8 0
BBX 8 13 0 -2
BITMAP
00
00
24
18
00
3A
44
88
70
80
78
84
78
ENDCHAR

STARTCHAR uni01E8
ENCODING 488
SWIDTH 568 0
DWIDTH 8 0
BBX 8 13 0 -2
BITMAP
00
12
0C
00
22
24
28
30
50
48
44
00
00
ENDCHAR

STARTCHAR uni01E9
ENCODING 489
SWIDTH 568 0
DWIDTH 8 0
BBX 8 13 0 -2
BITMAP
00
12
0C
20
20
22
24
38
48
44
42
00
00
ENDCHAR

STARTCHAR uni01EA
ENCODING 490
SWIDTH 568 0
DWIDTH 8 0
BBX 8 13 0 -2
BITMAP
00
00
3C
42
42
42
42
84
84
84
78
20
10
ENDCHAR

STARTCHAR uni01EB
ENCODING 491
SWIDTH 568 0
DWIDTH 8 0
BBX 8 13 0 -2
BITMAP
00
00
00
00
00
3C
42
42
84
84
78
20
10
ENDCHAR

STARTCHAR uni01EC
ENCODING 492
SWIDTH 568 0
DWIDTH 8 0
BBX 8 13 0 -2
BITMAP
00
00
3C
00
3C
42
42
84
84
84
78
20
10
ENDCHAR

STARTCHAR uni01ED
ENCODING 493
SWIDTH 568 0
DWIDTH 8 0
BBX 8 13 0 -2
BITMAP
00
00
00
3C
00
3C
42
42
84
84
78
20
10
ENDCHAR

STARTCHAR uni01EE
ENCODING 494
SWIDTH 568 0
DWIDTH 8 0
BBX 8 13 0 -2
BITMAP
24
18
00
7E
04
08
18
04
04
84
78
00
00
ENDCHAR

STARTCHAR uni01EF
ENCODING 495
SWIDTH 568 0
DWIDTH 8 0
BBX 8 13 0 -2
BITMAP
00
24
18
00
7E
02
04
08
18
04
04
84
78
ENDCHAR

STARTCHAR uni01F0
ENCODING 496
SWIDTH 568 0
DWIDTH 8 0
BBX 8 13 0 -2
BITMAP
00
00
12
0C
00
0C
04
04
04
08
88
88
70
ENDCHAR

STARTCHAR uni01F1
ENCODING 497
SWIDTH 568 0
DWIDTH 8 0
BBX 8 13 0 -2
BITMAP
00
00
67
51
51
52
52
A4
A8
A8
CE
00
00
ENDCHAR

STARTCHAR uni01F2
ENCODING 498
SWIDTH 568 0
DWIDTH 8 0
BBX 8 13 0 -2
BITMAP
00
00
60
50
50
57
51
A2
A4
A8
CE
00
00
ENDCHAR

STARTCHAR uni01F3
ENCODING 499
SWIDTH 568 0
DWIDTH 8 0
BBX 8 13 0 -2
BITMAP
00
00
10
10
10
37
51
52
A4
A8
6E
00
00
ENDCHAR

STARTCHAR uni01F4
ENCODING 500
SWIDTH 568 0
DWIDTH 8 0
BBX 8 13 0 -2
BITMAP
00
08
10
00
3C
42
40
9C
84
8C
74
00
00
ENDCHAR

STARTCHAR uni01F5
ENCODING 501
SWIDTH 568 0
DWIDTH 8 0
BBX 8 13 0 -2
BITMAP
00
00
08
10
00
3A
44
88
70
80
78
84
78
ENDCHAR

STARTCHAR uni01F6
ENCODING 502
SWIDTH 568 0
DWIDTH 8 0
BBX 8 13 0 -2
BITMAP
00
00
48
48
48
4A
72
94
94
94
88
00
00
ENDCHAR

STARTCHAR uni01F7
ENCODING 503
SWIDTH 568 0
DWIDTH 8 0
BBX 8 13 0 -2
BITMAP
00
00
5C
62
42
44
58
A0
C0
80
80
00
00
ENDCHAR

STARTCHAR uni01F8
ENCODING 504
SWIDTH 568 0
DWIDTH 8 0
BBX 8 13 0 -2
BITMAP
10
08
42
42
62
52
4A
84
84
84
84
00
00
ENDCHAR

STARTCHAR uni01F9
ENCODING 505
SWIDTH 568 0
DWIDTH 8 0
BBX 8 13 0 -2
BITMAP
00
00
10
08
00
5C
62
42
84
84
84
00
00
ENDCHAR

STARTCHAR Aringacute
ENCODING 506
SWIDTH 568 0
DWIDTH 8 0
BBX 8 13 0 -2
BITMAP
08
10
00
18
24
18
24
42
7C
84
84
00
00
ENDCHAR

STARTCHAR aringacute
ENCODING 507
SWIDTH 568 0
DWIDTH 8 0
BBX 8 13 0 -2
BITMAP
08
10
18
24
18
3C
02
7C
84
8C
74
00
00
ENDCHAR

STARTCHAR AEacute
ENCODING 508
SWIDTH 568 0
DWIDTH 8 0
BBX 8 13 0 -2
BITMAP
00
04
08
00
3F
48
48
FC
90
90
9E
00
00
ENDCHAR

STARTCHAR aeacute
ENCODING 509
SWIDTH 568 0
DWIDTH 8 0
BBX 8 13 0 -2
BITMAP
00
00
04
08
00
36
09
7E
90
92
6C
00
00
ENDCHAR

STARTCHAR Oslashacute
ENCODING 510
SWIDTH 568 0
DWIDTH 8 0
BBX 8 13 0 -2
BITMAP
00
08
10
02
3C
46
4A
94
A4
C4
78
80
00
ENDCHAR

STARTCHAR oslashacute
ENCODING 511
SWIDTH 568 0
DWIDTH 8 0
BBX 8 13 0 -2
BITMAP
00
00
08
10
02
3C
4A
52
A4
C4
78
80
00
ENDCHAR

STARTCHAR uni0200
ENCODING 512
SWIDTH 568 0
DWIDTH 8 0
BBX 8 13 0 -2
BITMAP
00
48
24
00
18
24
42
42
7C
84
84
00
00
ENDCHAR

STARTCHAR uni0201
ENCODING 513
SWIDTH 568 0
DWIDTH 8 0
BBX 8 13 0 -2
BITMAP
00
00
48
24
00
3C
02
7C
84
8C
74
00
00
ENDCHAR

STARTCHAR uni0202
ENCODING 514
SWIDTH 568 0
DWIDTH 8 0
BBX 8 13 0 -2
BITMAP
00
3C
42
00
18
24
42
42
FC
84
84
00
00
ENDCHAR

STARTCHAR uni0203
ENCODING 515
SWIDTH 568 0
DWIDTH 8 0
BBX 8 13 0 -2
BITMAP
00
00
3C
42
00
3C
02
7C
84
8C
74
00
00
ENDCHAR

STARTCHAR uni0204
ENCODING 516
SWIDTH 568 0
DWIDTH 8 0
BBX 8 13 0 -2
BITMAP
00
48
24
00
7E
40
40
70
80
80
FC
00
00
ENDCHAR

STARTCHAR uni0205
ENCODING 517
SWIDTH 568 0
DWIDTH 8 0
BBX 8 13 0 -2
BITMAP
00
00
48
24
00
3C
42
7C
80
84
78
00
00
ENDCHAR

STARTCHAR uni0206
ENCODING 518
SWIDTH 568 0
DWIDTH 8 0
BBX 8 13 0 -2
BITMAP
00
3C
42
00
7E
40
40
70
80
80
FC
00
00
ENDCHAR

STARTCHAR uni0207
ENCODING 519
SWIDTH 568 0
DWIDTH 8 0
BBX 8 13 0 -2
BITMAP
00
00
3C
42
00
3C
42
7C
80
84
78
00
00
ENDCHAR

STARTCHAR uni0208
ENCODING 520
SWIDTH 568 0
DWIDTH 8 0
BBX 8 13 0 -2
BITMAP
00
24
12
00
3E
08
08
10
10
10
7C
00
00
ENDCHAR

STARTCHAR uni0209
ENCODING 521
SWIDTH 568 0
DWIDTH 8 0
BBX 8 13 0 -2
BITMAP
00
00
48
24
00
18
08
08
10
10
7C
00
00
ENDCHAR

STARTCHAR uni020A
ENCODING 522
SWIDTH 568 0
DWIDTH 8 0
BBX 8 13 0 -2
BITMAP
00
1C
22
00
3E
08
08
10
10
10
7C
00
00
ENDCHAR

STARTCHAR uni020B
ENCODING 523
SWIDTH 568 0
DWIDTH 8 0
BBX 8 13 0 -2
BITMAP
00
00
1C
22
00
18
08
08
10
10
7C
00
00
ENDCHAR

STARTCHAR uni020C
ENCODING 524
SWIDTH 568 0
DWIDTH 8 0
BBX 8 13 0 -2
BITMAP
00
48
24
00
3E
41
41
82
82
82
7C
00
00
ENDCHAR

STARTCHAR uni020D
ENCODING 525
SWIDTH 568 0
DWIDTH 8 0
BBX 8 13 0 -2
BITMAP
00
00
48
24
00
3C
42
42
84
84
78
00
00
ENDCHAR

STARTCHAR uni020E
ENCODING 526
SWIDTH 568 0
DWIDTH 8 0
BBX 8 13 0 -2
BITMAP
00
1C
22
00
3E
41
41
82
82
82
7C
00
00
ENDCHAR

STARTCHAR uni020F
ENCODING 527
SWIDTH 568 0
DWIDTH 8 0
BBX 8 13 0 -2
BITMAP
00
00
3C
42
00
3C
42
42
84
84
78
00
00
ENDCHAR

STARTCHAR uni0210
ENCODING 528
SWIDTH 568 0
DWIDTH 8 0
BBX 8 13 0 -2
BITMAP
00
48
24
00
7C
42
42
7C
90
88
84
00
00
ENDCHAR

STARTCHAR uni0211
ENCODING 529
SWIDTH 568 0
DWIDTH 8 0
BBX 8 13 0 -2
BITMAP
00
00
48
24
00
5C
22
20
40
40
40
00
00
ENDCHAR

STARTCHAR uni0212
ENCODING 530
SWIDTH 568 0
DWIDTH 8 0
BBX 8 13 0 -2
BITMAP
00
3C
42
00
7C
42
42
7C
90
88
84
00
00
ENDCHAR

STARTCHAR uni0213
ENCODING 531
SWIDTH 568 0
DWIDTH 8 0
BBX 8 13 0 -2
BITMAP
00
00
3C
42
00
5C
22
20
40
40
40
00
00
ENDCHAR

STARTCHAR uni0214
ENCODING 532
SWIDTH 568 0
DWIDTH 8 0
BBX 8 13 0 -2
BITMAP
00
48
24
00
42
42
42
84
84
84
78
00
00
ENDCHAR

STARTCHAR uni0215
ENCODING 533
SWIDTH 568 0
DWIDTH 8 0
BBX 8 13 0 -2
BITMAP
00
00
24
12
00
22
22
22
44
44
3A
00
00
ENDCHAR

STARTCHAR uni0216
ENCODING 534
SWIDTH 568 0
DWIDTH 8 0
BBX 8 13 0 -2
BITMAP
00
3C
42
00
42
42
42
84
84
84
78
00
00
ENDCHAR

STARTCHAR uni0217
ENCODING 535
SWIDTH 568 0
DWIDTH 8 0
BBX 8 13 0 -2
BITMAP
00
00
1C
22
00
22
22
22
44
44
3A
00
00
ENDCHAR

STARTCHAR Scommaaccent
ENCODING 536
SWIDTH 568 0
DWIDTH 8 0
BBX 8 13 0 -2
BITMAP
00
00
3C
42
40
40
38
04
04
84
78
10
20
ENDCHAR

STARTCHAR scommaaccent
ENCODING 537
SWIDTH 568 0
DWIDTH 8 0
BBX 8 13 0 -2
BITMAP
00
00
00
00
00
3C
42
30
08
84
78
10
20
ENDCHAR

STARTCHAR Tcommaaccent
ENCODING 538
SWIDTH 568 0
DWIDTH 8 0
BBX 8 13 0 -2
BITMAP
00
00
FE
10
10
10
10
20
20
20
20
10
20
ENDCHAR

STARTCHAR tcommaaccent
ENCODING 539
SWIDTH 568 0
DWIDTH 8 0
BBX 8 13 0 -2
BITMAP
00
00
00
20
20
7C
20
40
40
44
38
10
20
ENDCHAR

STARTCHAR uni021C
ENCODING 540
SWIDTH 568 0
DWIDTH 8 0
BBX 8 13 0 -2
BITMAP
00
00
3C
42
04
08
18
24
04
04
08
70
00
ENDCHAR

STARTCHAR uni021D
ENCODING 541
SWIDTH 568 0
DWIDTH 8 0
BBX 8 13 0 -2
BITMAP
00
00
00
00
3C
02
04
08
18
04
04
08
70
ENDCHAR

STARTCHAR uni021E
ENCODING 542
SWIDTH 568 0
DWIDTH 8 0
BBX 8 13 0 -2
BITMAP
00
24
18
42
42
42
7C
84
84
84
84
00
00
ENDCHAR

STARTCHAR uni021F
ENCODING 543
SWIDTH 568 0
DWIDTH 8 0
BBX 8 13 0 -2
BITMAP
00
24
18
40
40
5C
62
42
84
84
84
00
00
ENDCHAR

STARTCHAR uni0222
ENCODING 546
SWIDTH 568 0
DWIDTH 8 0
BBX 8 13 0 -2
BITMAP
00
00
24
42
42
42
7C
84
84
84
78
00
00
ENDCHAR

STARTCHAR uni0223
ENCODING 547
SWIDTH 568 0
DWIDTH 8 0
BBX 8 13 0 -2
BITMAP
00
00
14
22
22
22
3C
44
44
44
38
00
00
ENDCHAR

STARTCHAR uni0224
ENCODING 548
SWIDTH 568 0
DWIDTH 8 0
BBX 8 13 0 -2
BITMAP
00
00
7E
02
04
08
10
20
40
80
FC
04
18
ENDCHAR

STARTCHAR uni0225
ENCODING 549
SWIDTH 568 0
DWIDTH 8 0
BBX 8 13 0 -2
BITMAP
00
00
00
00
00
7E
04
18
20
40
FC
04
18
ENDCHAR

STARTCHAR uni0226
ENCODING 550
SWIDTH 568 0
DWIDTH 8 0
BBX 8 13 0 -2
BITMAP
00
18
00
18
24
42
42
7C
84
84
84
00
00
ENDCHAR

STARTCHAR uni0227
ENCODING 551
SWIDTH 568 0
DWIDTH 8 0
BBX 8 13 0 -2
BITMAP
00
00
00
18
00
3C
02
7C
84
8C
74
00
00
ENDCHAR

STARTCHAR uni0228
ENCODING 552
SWIDTH 568 0
DWIDTH 8 0
BBX 8 13 0 -2
BITMAP
00
00
7E
40
40
40
78
80
80
80
FC
04
18
ENDCHAR

STARTCHAR uni0229
ENCODING 553
SWIDTH 568 0
DWIDTH 8 0
BBX 8 13 0 -2
BITMAP
00
00
00
00
00
3C
42
7C
80
84
7C
04
18
ENDCHAR

STARTCHAR uni022A
ENCODING 554
SWIDTH 568 0
DWIDTH 8 0
BBX 8 13 0 -2
BITMAP
3E
00
14
00
3E
41
41
82
82
82
7C
00
00
ENDCHAR

STARTCHAR uni022B
ENCODING 555
SWIDTH 568 0
DWIDTH 8 0
BBX 8 13 0 -2
BITMAP
00
7E
00
24
00
3C
42
42
84
84
78
00
00
ENDCHAR

STARTCHAR uni022C
ENCODING 556
SWIDTH 568 0
DWIDTH 8 0
BBX 8 13 0 -2
BITMAP
3E
1A
2C
00
3E
41
41
82
82
82
7C
00
00
ENDCHAR

STARTCHAR uni022D
ENCODING 557
SWIDTH 568 0
DWIDTH 8 0
BBX 8 13 0 -2
BITMAP
7E
00
14
28
00
3C
42
42
84
84
78
00
00
ENDCHAR

STARTCHAR uni022E
ENCODING 558
SWIDTH 568 0
DWIDTH 8 0
BBX 8 13 0 -2
BITMAP
08
00
3E
41
41
41
41
82
82
82
7C
00
00
ENDCHAR

STARTCHAR uni022F
ENCODING 559
SWIDTH 568 0
DWIDTH 8 0
BBX 8 13 0 -2
BITMAP
00
00
00
18
00
3C
42
42
84
84
78
00
00
ENDCHAR

STARTCHAR uni0230
ENCODING 560
SWIDTH 568 0
DWIDTH 8 0
BBX 8 13 0 -2
BITMAP
3E
00
08
00
3E
41
41
82
82
82
7C
00
00
ENDCHAR

STARTCHAR uni0231
ENCODING 561
SWIDTH 568 0
DWIDTH 8 0
BBX 8 13 0 -2
BITMAP
00
7E
00
18
00
3C
42
42
84
84
78
00
00
ENDCHAR

STARTCHAR uni0232
ENCODING 562
SWIDTH 568 0
DWIDTH 8 0
BBX 8 13 0 -2
BITMAP
00
7C
00
82
44
28
10
10
20
20
20
00
00
ENDCHAR

STARTCHAR uni0233
ENCODING 563
SWIDTH 568 0
DWIDTH 8 0
BBX 8 13 0 -2
BITMAP
00
00
00
3C
00
42
42
84
8C
74
04
84
78
ENDCHAR

STARTCHAR uni0250
ENCODING 592
SWIDTH 568 0
DWIDTH 8 0
BBX 8 13 0 -2
BITMAP
00
00
00
00
00
5C
62
42
7C
80
78
00
00
ENDCHAR

STARTCHAR uni0251
ENCODING 593
SWIDTH 568 0
DWIDTH 8 0
BBX 8 13 0 -2
BITMAP
00
00
00
00
00
3A
46
42
84
8C
74
00
00
ENDCHAR

STARTCHAR uni0252
ENCODING 594
SWIDTH 568 0
DWIDTH 8 0
BBX 8 13 0 -2
BITMAP
00
00
00
00
00
5C
62
42
84
C4
B8
00
00
ENDCHAR

STARTCHAR uni0253
ENCODING 595
SWIDTH 568 0
DWIDTH 8 0
BBX 8 13 0 -2
BITMAP
00
38
44
40
40
5C
62
42
84
C4
B8
00
00
ENDCHAR

STARTCHAR uni0254
ENCODING 596
SWIDTH 568 0
DWIDTH 8 0
BBX 8 13 0 -2
BITMAP
00
00
00
00
00
3C
42
02
04
84
78
00
00
ENDCHAR

STARTCHAR uni0255
ENCODING 597
SWIDTH 568 0
DWIDTH 8 0
BBX 8 13 0 -2
BITMAP
00
00
00
00
00
3C
42
80
88
94
78
20
00
ENDCHAR

STARTCHAR uni0256
ENCODING 598
SWIDTH 568 0
DWIDTH 8 0
BBX 8 13 0 -2
BITMAP
00
00
02
02
02
1A
26
22
44
4C
34
04
02
ENDCHAR

STARTCHAR uni0257
ENCODING 599
SWIDTH 568 0
DWIDTH 8 0
BBX 8 13 0 -2
BITMAP
00
02
04
04
04
34
4C
44
88
98
68
00
00
ENDCHAR

STARTCHAR uni0258
ENCODING 600
SWIDTH 568 0
DWIDTH 8 0
BBX 8 13 0 -2
BITMAP
00
00
00
00
00
3C
42
7E
04
84
78
00
00
ENDCHAR

STARTCHAR uni0259
ENCODING 601
SWIDTH 568 0
DWIDTH 8 0
BBX 8 13 0 -2
BITMAP
00
00
00
00
00
3C
42
02
FC
84
78
00
00
ENDCHAR

STARTCHAR uni025A
ENCODING 602
SWIDTH 568 0
DWIDTH 8 0
BBX 8 13 0 -2
BITMAP
00
00
00
00
00
38
44
04
FA
8A
70
00
00
ENDCHAR

STARTCHAR uni025B
ENCODING 603
SWIDTH 568 0
DWIDTH 8 0
BBX 8 13 0 -2
BITMAP
00
00
00
00
00
3C
42
70
80
84
78
00
00
ENDCHAR

STARTCHAR uni025C
ENCODING 604
SWIDTH 568 0
DWIDTH 8 0
BBX 8 13 0 -2
BITMAP
00
00
00
00
00
3C
42
1C
04
84
78
00
00
ENDCHAR

STARTCHAR uni025D
ENCODING 605
SWIDTH 568 0
DWIDTH 8 0
BBX 8 13 0 -2
BITMAP
00
00
00
00
00
38
44
1A
08
88
70
00
00
ENDCHAR

STARTCHAR uni025E
ENCODING 606
SWIDTH 568 0
DWIDTH 8 0
BBX 8 13 0 -2
BITMAP
00
00
00
00
00
3C
42
9C
84
84
78
00
00
ENDCHAR

STARTCHAR uni025F
ENCODING 607
SWIDTH 568 0
DWIDTH 8 0
BBX 8 13 0 -2
BITMAP
00
00
00
00
00
02
02
04
3E
04
04
44
38
ENDCHAR

STARTCHAR uni0260
ENCODING 608
SWIDTH 568 0
DWIDTH 8 0
BBX 8 13 0 -2
BITMAP
00
00
00
00
02
34
4C
88
98
68
08
88
70
ENDCHAR

STARTCHAR uni0261
ENCODING 609
SWIDTH 568 0
DWIDTH 8 0
BBX 8 13 0 -2
BITMAP
00
00
00
00
00
3A
46
42
8C
74
04
84
78
ENDCHAR

STARTCHAR uni0262
ENCODING 610
SWIDTH 568 0
DWIDTH 8 0
BBX 8 13 0 -2
BITMAP
00
00
00
00
00
3C
42
80
8C
84
78
00
00
ENDCHAR

STARTCHAR uni0263
ENCODING 611
SWIDTH 568 0
DWIDTH 8 0
BBX 8 13 0 -2
BITMAP
00
00
00
00
00
44
44
48
50
20
50
20
00
ENDCHAR

STARTCHAR uni0264
ENCODING 612
SWIDTH 568 0
DWIDTH 8 0
BBX 8 13 0 -2
BITMAP
00
00
00
00
00
22
54
18
10
28
10
00
00
ENDCHAR

STARTCHAR uni0265
ENCODING 613
SWIDTH 568 0
DWIDTH 8 0
BBX 8 13 0 -2
BITMAP
00
00
00
00
00
42
42
42
84
8C
74
04
04
ENDCHAR

STARTCHAR uni0266
ENCODING 614
SWIDTH 568 0
DWIDTH 8 0
BBX 8 13 0 -2
BITMAP
00
30
48
40
40
5C
62
42
84
84
84
00
00
ENDCHAR

STARTCHAR uni0267
ENCODING 615
SWIDTH 568 0
DWIDTH 8 0
BBX 8 13 0 -2
BITMAP
00
30
48
40
40
5C
62
42
84
84
84
04
18
ENDCHAR

STARTCHAR uni0268
ENCODING 616
SWIDTH 568 0
DWIDTH 8 0
BBX 8 13 0 -2
BITMAP
00
00
00
08
00
18
08
3C
10
10
7C
00
00
ENDCHAR

STARTCHAR uni0269
ENCODING 617
SWIDTH 568 0
DWIDTH 8 0
BBX 8 13 0 -2
BITMAP
00
00
00
00
00
30
10
10
20
20
18
00
00
ENDCHAR

STARTCHAR uni026A
ENCODING 618
SWIDTH 568 0
DWIDTH 8 0
BBX 8 13 0 -2
BITMAP
00
00
00
00
00
3E
08
08
10
10
7C
00
00
ENDCHAR

STARTCHAR uni026B
ENCODING 619
SWIDTH 568 0
DWIDTH 8 0
BBX 8 13 0 -2
BITMAP
00
00
18
08
08
1A
2C
10
10
10
7C
00
00
ENDCHAR

STARTCHAR uni026C
ENCODING 620
SWIDTH 568 0
DWIDTH 8 0
BBX 8 13 0 -2
BITMAP
00
00
18
08
08
18
28
1C
10
10
7C
00
00
ENDCHAR

STARTCHAR uni026D
ENCODING 621
SWIDTH 568 0
DWIDTH 8 0
BBX 8 13 0 -2
BITMAP
00
00
30
10
10
10
10
20
20
20
20
20
18
ENDCHAR

STARTCHAR uni026E
ENCODING 622
SWIDTH 568 0
DWIDTH 8 0
BBX 8 13 0 -2
BITMAP
00
00
60
20
20
3E
22
44
48
44
E4
04
38
ENDCHAR

STARTCHAR uni026F
ENCODING 623
SWIDTH 568 0
DWIDTH 8 0
BBX 8 13 0 -2
BITMAP
00
00
00
00
00
41
49
49
92
92
6E
00
00
ENDCHAR

STARTCHAR uni0270
ENCODING 624
SWIDTH 568 0
DWIDTH 8 0
BBX 8 13 0 -2
BITMAP
00
00
00
00
00
41
49
49
92
92
6E
02
02
ENDCHAR

STARTCHAR uni0271
ENCODING 625
SWIDTH 568 0
DWIDTH 8 0
BBX 8 13 0 -2
BITMAP
00
00
00
00
00
76
49
49
92
92
82
02
0C
ENDCHAR

STARTCHAR uni0272
ENCODING 626
SWIDTH 568 0
DWIDTH 8 0
BBX 8 13 0 -2
BITMAP
00
00
00
00
00
16
19
11
22
22
22
A0
40
ENDCHAR

STARTCHAR uni0273
ENCODING 627
SWIDTH 568 0
DWIDTH 8 0
BBX 8 13 0 -2
BITMAP
00
00
00
00
00
58
64
44
88
88
88
0A
04
ENDCHAR

STARTCHAR uni0274
ENCODING 628
SWIDTH 568 0
DWIDTH 8 0
BBX 8 13 0 -2
BITMAP
00
00
00
00
00
42
62
52
94
8C
84
00
00
ENDCHAR

STARTCHAR uni0275
ENCODING 629
SWIDTH 568 0
DWIDTH 8 0
BBX 8 13 0 -2
BITMAP
00
00
00
00
00
3C
42
7C
84
84
78
00
00
ENDCHAR

STARTCHAR uni0276
ENCODING 630
SWIDTH 568 0
DWIDTH 8 0
BBX 8 13 0 -2
BITMAP
00
00
00
00
00
3E
48
4C
90
90
7C
00
00
ENDCHAR

STARTCHAR uni0277
ENCODING 631
SWIDTH 568 0
DWIDTH 8 0
BBX 8 13 0 -2
BITMAP
00
00
00
00
00
3E
41
49
92
92
6C
00
00
ENDCHAR

STARTCHAR uni0278
ENCODING 632
SWIDTH 568 0
DWIDTH 8 0
BBX 8 13 0 -2
BITMAP
00
00
00
08
08
3E
49
49
92
92
7C
10
10
ENDCHAR

STARTCHAR uni0279
ENCODING 633
SWIDTH 568 0
DWIDTH 8 0
BBX 8 13 0 -2
BITMAP
00
00
00
00
00
02
02
02
04
44
3A
00
00
ENDCHAR

STARTCHAR uni027A
ENCODING 634
SWIDTH 568 0
DWIDTH 8 0
BBX 8 13 0 -2
BITMAP
00
00
02
02
02
02
02
04
04
44
3A
00
00
ENDCHAR

STARTCHAR uni027B
ENCODING 635
SWIDTH 568 0
DWIDTH 8 0
BBX 8 13 0 -2
BITMAP
00
00
00
00
00
04
04
08
08
48
38
08
06
ENDCHAR

STARTCHAR uni027C
ENCODING 636
SWIDTH 568 0
DWIDTH 8 0
BBX 8 13 0 -2
BITMAP
00
00
00
00
00
5C
22
20
40
40
40
40
40
ENDCHAR

STARTCHAR uni027D
ENCODING 637
SWIDTH 568 0
DWIDTH 8 0
BBX 8 13 0 -2
BITMAP
00
00
00
00
00
5C
22
20
40
40
40
48
30
ENDCHAR

STARTCHAR uni027E
ENCODING 638
SWIDTH 568 0
DWIDTH 8 0
BBX 8 13 0 -2
BITMAP
00
00
00
00
00
1C
22
20
40
40
40
00
00
ENDCHAR

STARTCHAR uni027F
ENCODING 639
SWIDTH 568 0
DWIDTH 8 0
BBX 8 13 0 -2
BITMAP
00
00
00
00
00
38
44
04
08
08
08
00
00
ENDCHAR

STARTCHAR uni0280
ENCODING 640
SWIDTH 568 0
DWIDTH 8 0
BBX 8 13 0 -2
BITMAP
00
00
00
00
00
7C
42
44
78
88
84
00
00
ENDCHAR

STARTCHAR uni0281
ENCODING 641
SWIDTH 568 0
DWIDTH 8 0
BBX 8 13 0 -2
BITMAP
00
00
00
00
00
42
44
78
84
84
F8
00
00
ENDCHAR

STARTCHAR uni0282
ENCODING 642
SWIDTH 568 0
DWIDTH 8 0
BBX 8 13 0 -2
BITMAP
00
00
00
00
00
3C
42
20
18
04
78
80
60
ENDCHAR

STARTCHAR uni0283
ENCODING 643
SWIDTH 568 0
DWIDTH 8 0
BBX 8 13 0 -2
BITMAP
00
04
0A
08
08
08
08
10
10
10
50
20
00
ENDCHAR

STARTCHAR uni0284
ENCODING 644
SWIDTH 568 0
DWIDTH 8 0
BBX 8 13 0 -2
BITMAP
00
04
0A
08
08
08
08
3C
10
10
50
20
00
ENDCHAR

STARTCHAR uni0285
ENCODING 645
SWIDTH 568 0
DWIDTH 8 0
BBX 8 13 0 -2
BITMAP
00
00
10
28
08
08
08
10
10
14
08
00
00
ENDCHAR

STARTCHAR uni0286
ENCODING 646
SWIDTH 568 0
DWIDTH 8 0
BBX 8 13 0 -2
BITMAP
00
00
04
0A
08
08
08
10
10
38
54
50
20
ENDCHAR

STARTCHAR uni0287
ENCODING 647
SWIDTH 568 0
DWIDTH 8 0
BBX 8 13 0 -2
BITMAP
00
00
00
00
00
38
44
04
08
08
3C
08
08
ENDCHAR

STARTCHAR uni0288
ENCODING 648
SWIDTH 568 0
DWIDTH 8 0
BBX 8 13 0 -2
BITMAP
00
00
00
20
20
7C
20
20
40
40
40
44
38
ENDCHAR

STARTCHAR uni0289
ENCODING 649
SWIDTH 568 0
DWIDTH 8 0
BBX 8 13 0 -2
BITMAP
00
00
00
00
00
22
22
FE
44
44
3A
00
00
ENDCHAR

STARTCHAR uni028A
ENCODING 650
SWIDTH 568 0
DWIDTH 8 0
BBX 8 13 0 -2
BITMAP
00
00
00
00
00
66
24
44
84
84
78
00
00
ENDCHAR

STARTCHAR uni028B
ENCODING 651
SWIDTH 568 0
DWIDTH 8 0
BBX 8 13 0 -2
BITMAP
00
00
00
00
00
44
42
42
84
88
70
00
00
ENDCHAR

STARTCHAR uni028C
ENCODING 652
SWIDTH 568 0
DWIDTH 8 0
BBX 8 13 0 -2
BITMAP
00
00
00
00
00
08
14
24
44
44
44
00
00
ENDCHAR

STARTCHAR uni028D
ENCODING 653
SWIDTH 568 0
DWIDTH 8 0
BBX 8 13 0 -2
BITMAP
00
00
00
00
00
22
55
49
92
82
82
00
00
ENDCHAR

STARTCHAR uni028E
ENCODING 654
SWIDTH 568 0
DWIDTH 8 0
BBX 8 13 0 -2
BITMAP
00
00
04
0A
08
10
30
50
50
88
88
00
00
ENDCHAR

STARTCHAR uni028F
ENCODING 655
SWIDTH 568 0
DWIDTH 8 0
BBX 8 13 0 -2
BITMAP
00
00
00
00
00
42
24
18
08
10
10
00
00
ENDCHAR

STARTCHAR uni0290
ENCODING 656
SWIDTH 568 0
DWIDTH 8 0
BBX 8 13 0 -2
BITMAP
00
00
00
00
00
7E
04
18
20
40
F8
08
06
ENDCHAR

STARTCHAR uni0291
ENCODING 657
SWIDTH 568 0
DWIDTH 8 0
BBX 8 13 0 -2
BITMAP
00
00
00
00
00
7E
04
18
24
4A
FC
10
00
ENDCHAR

STARTCHAR uni0292
ENCODING 658
SWIDTH 568 0
DWIDTH 8 0
BBX 8 13 0 -2
BITMAP
00
00
00
00
7E
02
0C
10
38
04
04
84
78
ENDCHAR

STARTCHAR uni0293
ENCODING 659
SWIDTH 568 0
DWIDTH 8 0
BBX 8 13 0 -2
BITMAP
00
00
00
00
7E
02
0C
10
38
04
7C
86
78
ENDCHAR

STARTCHAR uni0294
ENCODING 660
SWIDTH 568 0
DWIDTH 8 0
BBX 8 13 0 -2
BITMAP
00
00
1C
22
02
04
1C
10
10
20
20
00
00
ENDCHAR

STARTCHAR uni0295
ENCODING 661
SWIDTH 568 0
DWIDTH 8 0
BBX 8 13 0 -2
BITMAP
00
00
18
24
40
40
30
10
10
20
20
00
00
ENDCHAR

STARTCHAR uni0296
ENCODING 662
SWIDTH 568 0
DWIDTH 8 0
BBX 8 13 0 -2
BITMAP
00
00
08
08
10
10
18
04
04
48
30
00
00
ENDCHAR

STARTCHAR uni0297
ENCODING 663
SWIDTH 568 0
DWIDTH 8 0
BBX 8 13 0 -2
BITMAP
00
00
00
00
00
3C
42
40
80
80
80
84
78
ENDCHAR

STARTCHAR uni0298
ENCODING 664
SWIDTH 568 0
DWIDTH 8 0
BBX 8 13 0 -2
BITMAP
00
00
00
00
00
3C
42
5A
B4
84
78
00
00
ENDCHAR

STARTCHAR uni0299
ENCODING 665
SWIDTH 568 0
DWIDTH 8 0
BBX 8 13 0 -2
BITMAP
00
00
00
00
00
7C
42
7C
84
84
F8
00
00
ENDCHAR

STARTCHAR uni029A
ENCODING 666
SWIDTH 568 0
DWIDTH 8 0
BBX 8 13 0 -2
BITMAP
00
00
00
00
1C
22
22
3A
44
44
38
00
00
ENDCHAR

STARTCHAR uni029B
ENCODING 667
SWIDTH 568 0
DWIDTH 8 0
BBX 8 13 0 -2
BITMAP
00
00
00
00
02
3C
42
40
8C
84
78
00
00
ENDCHAR

STARTCHAR uni029C
ENCODING 668
SWIDTH 568 0
DWIDTH 8 0
BBX 8 13 0 -2
BITMAP
00
00
00
00
00
42
42
7C
84
84
84
00
00
ENDCHAR

STARTCHAR uni029D
ENCODING 669
SWIDTH 568 0
DWIDTH 8 0
BBX 8 13 0 -2
BITMAP
00
00
00
04
00
0C
04
04
0E
18
28
48
30
ENDCHAR

STARTCHAR uni029E
ENCODING 670
SWIDTH 568 0
DWIDTH 8 0
BBX 8 13 0 -2
BITMAP
00
00
00
00
00
42
22
12
1C
24
44
04
04
ENDCHAR

STARTCHAR uni029F
ENCODING 671
SWIDTH 568 0
DWIDTH 8 0
BBX 8 13 0 -2
BITMAP
00
00
00
00
00
20
20
20
40
40
7E
00
00
ENDCHAR

STARTCHAR uni02A0
ENCODING 672
SWIDTH 568 0
DWIDTH 8 0
BBX 8 13 0 -2
BITMAP
00
00
02
04
04
34
4C
44
98
68
08
10
10
ENDCHAR

STARTCHAR uni02A1
ENCODING 673
SWIDTH 568 0
DWIDTH 8 0
BBX 8 13 0 -2
BITMAP
00
00
1C
22
02
04
18
10
10
78
20
20
00
ENDCHAR

STARTCHAR uni02A2
ENCODING 674
SWIDTH 568 0
DWIDTH 8 0
BBX 8 13 0 -2
BITMAP
00
00
18
24
40
40
30
10
10
78
20
20
00
ENDCHAR

STARTCHAR uni02A3
ENCODING 675
SWIDTH 568 0
DWIDTH 8 0
BBX 8 13 0 -2
BITMAP
00
00
08
08
08
2F
59
4A
92
B4
57
00
00
ENDCHAR

STARTCHAR uni02A4
ENCODING 676
SWIDTH 568 0
DWIDTH 8 0
BBX 8 13 0 -2
BITMAP
00
00
08
08
08
2B
59
4A
96
B1
51
06
00
ENDCHAR

STARTCHAR uni02A5
ENCODING 677
SWIDTH 568 0
DWIDTH 8 0
BBX 8 13 0 -2
BITMAP
00
00
08
08
08
2B
59
4A
92
B5
57
02
02
ENDCHAR

STARTCHAR uni02A6
ENCODING 678
SWIDTH 568 0
DWIDTH 8 0
BBX 8 13 0 -2
BITMAP
00
00
40
40
40
F2
44
44
82
82
6C
00
00
ENDCHAR

STARTCHAR uni02A7
ENCODING 679
SWIDTH 568 0
DWIDTH 8 0
BBX 8 13 0 -2
BITMAP
00
02
44
44
44
F4
44
48
88
88
48
28
10
ENDCHAR

STARTCHAR uni02A8
ENCODING 680
SWIDTH 568 0
DWIDTH 8 0
BBX 8 13 0 -2
BITMAP
00
00
40
40
40
F6
48
90
94
9A
6C
08
00
ENDCHAR

STARTCHAR uni02A9
ENCODING 681
SWIDTH 568 0
DWIDTH 8 0
BBX 8 13 0 -2
BITMAP
00
00
1C
22
20
20
FA
2D
49
52
52
02
0C
ENDCHAR

STARTCHAR uni02AA
ENCODING 682
SWIDTH 568 0
DWIDTH 8 0
BBX 8 13 0 -2
BITMAP
00
00
60
20
20
2C
32
50
48
64
F8
00
00
ENDCHAR

STARTCHAR uni02AB
ENCODING 683
SWIDTH 568 0
DWIDTH 8 0
BBX 8 13 0 -2
BITMAP
00
00
60
20
20
3E
22
4C
50
60
FC
00
00
ENDCHAR

STARTCHAR uni02AC
ENCODING 684
SWIDTH 568 0
DWIDTH 8 0
BBX 8 13 0 -2
BITMAP
00
00
2A
2A
14
14
00
54
54
28
28
00
00
ENDCHAR

STARTCHAR uni02AD
ENCODING 685
SWIDTH 568 0
DWIDTH 8 0
BBX 8 13 0 -2
BITMAP
00
00
00
00
7E
42
00
FC
84
00
00
00
00
ENDCHAR

STARTCHAR uni02B0
ENCODING 688
SWIDTH 568 0
DWIDTH 8 0
BBX 8 13 0 -2
BITMAP
00
00
20
28
34
48
48
00
00
00
00
00
00
ENDCHAR

STARTCHAR uni02B1
ENCODING 689
SWIDTH 568 0
DWIDTH 8 0
BBX 8 13 0 -2
BITMAP
00
18
20
28
34
48
48
00
00
00
00
00
00
ENDCHAR

STARTCHAR uni02B2
ENCODING 690
SWIDTH 568 0
DWIDTH 8 0
BBX 8 13 0 -2
BITMAP
00
04
00
04
04
28
10
00
00
00
00
00
00
ENDCHAR

STARTCHAR uni02B3
ENCODING 691
SWIDTH 568 0
DWIDTH 8 0
BBX 8 13 0 -2
BITMAP
00
00
28
34
20
40
40
00
00
00
00
00
00
ENDCHAR

STARTCHAR uni02B4
ENCODING 692
SWIDTH 568 0
DWIDTH 8 0
BBX 8 13 0 -2
BITMAP
00
00
04
04
08
58
28
00
00
00
00
00
00
ENDCHAR

STARTCHAR uni02B5
ENCODING 693
SWIDTH 568 0
DWIDTH 8 0
BBX 8 13 0 -2
BITMAP
00
00
04
04
08
58
2A
04
00
00
00
00
00
ENDCHAR

STARTCHAR uni02B6
ENCODING 694
SWIDTH 568 0
DWIDTH 8 0
BBX 8 13 0 -2
BITMAP
00
00
24
28
30
48
70
00
00
00
00
00
00
ENDCHAR

STARTCHAR uni02B7
ENCODING 695
SWIDTH 568 0
DWIDTH 8 0
BBX 8 13 0 -2
BITMAP
00
00
41
49
92
6C
00
00
00
00
00
00
00
ENDCHAR

STARTCHAR uni02B8
ENCODING 696
SWIDTH 568 0
DWIDTH 8 0
BBX 8 13 0 -2
BITMAP
00
00
44
28
10
20
40
00
00
00
00
00
00
ENDCHAR

STARTCHAR uni02B9
ENCODING 697
SWIDTH 568 0
DWIDTH 8 0
BBX 8 13 0 -2
BITMAP
00
00
08
08
10
00
00
00
00
00
00
00
00
ENDCHAR

STARTCHAR uni02BA
ENCODING 698
SWIDTH 568 0
DWIDTH 8 0
BBX 8 13 0 -2
BITMAP
00
00
14
14
28
00
00
00
00
00
00
00
00
ENDCHAR

STARTCHAR uni02BB
ENCODING 699
SWIDTH 568 0
DWIDTH 8 0
BBX 8 13 0 -2
BITMAP
00
00
08
10
18
00
00
00
00
00
00
00
00
ENDCHAR

STARTCHAR afii57929
ENCODING 700
SWIDTH 568 0
DWIDTH 8 0
BBX 8 13 0 -2
BITMAP
00
00
18
08
10
00
00
00
00
00
00
00
00
ENDCHAR

STARTCHAR afii64937
ENCODING 701
SWIDTH 568 0
DWIDTH 8 0
BBX 8 13 0 -2
BITMAP
00
00
18
10
08
00
00
00
00
00
00
00
00
ENDCHAR

STARTCHAR uni02BE
ENCODING 702
SWIDTH 568 0
DWIDTH 8 0
BBX 8 13 0 -2
BITMAP
00
10
08
08
10
00
00
00
00
00
00
00
00
ENDCHAR

STARTCHAR uni02BF
ENCODING 703
SWIDTH 568 0
DWIDTH 8 0
BBX 8 13 0 -2
BITMAP
00
08
10
10
08
00
00
00
00
00
00
00
00
ENDCHAR

STARTCHAR uni02C0
ENCODING 704
SWIDTH 568 0
DWIDTH 8 0
BBX 8 13 0 -2
BITMAP
00
10
28
08
10
10
00
00
00
00
00
00
00
ENDCHAR

STARTCHAR uni02C1
ENCODING 705
SWIDTH 568 0
DWIDTH 8 0
BBX 8 13 0 -2
BITMAP
00
10
28
20
10
10
00
00
00
00
00
00
00
ENDCHAR

STARTCHAR uni02C2
ENCODING 706
SWIDTH 568 0
DWIDTH 8 0
BBX 8 13 0 -2
BITMAP
00
08
10
20
10
08
00
00
00
00
00
00
00
ENDCHAR

STARTCHAR uni02C3
ENCODING 707
SWIDTH 568 0
DWIDTH 8 0
BBX 8 13 0 -2
BITMAP
00
20
10
08
10
20
00
00
00
00
00
00
00
ENDCHAR

STARTCHAR uni02C4
ENCODING 708
SWIDTH 568 0
DWIDTH 8 0
BBX 8 13 0 -2
BITMAP
00
10
28
44
00
00
00
00
00
00
00
00
00
ENDCHAR

STARTCHAR uni02C5
ENCODING 709
SWIDTH 568 0
DWIDTH 8 0
BBX 8 13 0 -2
BITMAP
00
44
28
10
00
00
00
00
00
00
00
00
00
ENDCHAR

STARTCHAR circumflex
ENCODING 710
SWIDTH 568 0
DWIDTH 8 0
BBX 8 13 0 -2
BITMAP
00
18
24
00
00
00
00
00
00
00
00
00
00
ENDCHAR

STARTCHAR caron
ENCODING 711
SWIDTH 568 0
DWIDTH 8 0
BBX 8 13 0 -2
BITMAP
00
24
18
00
00
00
00
00
00
00
00
00
00
ENDCHAR

STARTCHAR uni02C8
ENCODING 712
SWIDTH 568 0
DWIDTH 8 0
BBX 8 13 0 -2
BITMAP
00
00
10
10
10
00
00
00
00
00
00
00
00
ENDCHAR

STARTCHAR macron
ENCODING 713
SWIDTH 568 0
DWIDTH 8 0
BBX 8 13 0 -2
BITMAP
00
00
7C
00
00
00
00
00
00
00
00
00
00
ENDCHAR

STARTCHAR uni02CA
ENCODING 714
SWIDTH 568 0
DWIDTH 8 0
BBX 8 13 0 -2
BITMAP
00
00
08
10
00
00
00
00
00
00
00
00
00
ENDCHAR

STARTCHAR uni02CB
ENCODING 715
SWIDTH 568 0
DWIDTH 8 0
BBX 8 13 0 -2
BITMAP
00
00
10
08
00
00
00
00
00
00
00
00
00
ENDCHAR

STARTCHAR uni02CC
ENCODING 716
SWIDTH 568 0
DWIDTH 8 0
BBX 8 13 0 -2
BITMAP
00
00
00
00
00
00
00
00
10
10
10
00
00
ENDCHAR

STARTCHAR uni02CD
ENCODING 717
SWIDTH 568 0
DWIDTH 8 0
BBX 8 13 0 -2
BITMAP
00
00
00
00
00
00
00
00
00
00
00
00
38
ENDCHAR

STARTCHAR uni02CE
ENCODING 718
SWIDTH 568 0
DWIDTH 8 0
BBX 8 13 0 -2
BITMAP
00
00
00
00
00
00
00
00
00
00
00
10
08
ENDCHAR

STARTCHAR uni02CF
ENCODING 719
SWIDTH 568 0
DWIDTH 8 0
BBX 8 13 0 -2
BITMAP
00
00
00
00
00
00
00
00
00
00
00
08
10
ENDCHAR

STARTCHAR uni02D0
ENCODING 720
SWIDTH 568 0
DWIDTH 8 0
BBX 8 13 0 -2
BITMAP
00
00
00
00
00
1C
08
00
00
10
38
00
00
ENDCHAR

STARTCHAR uni02D1
ENCODING 721
SWIDTH 568 0
DWIDTH 8 0
BBX 8 13 0 -2
BITMAP
00
00
00
00
00
38
10
00
00
00
00
00
00
ENDCHAR

STARTCHAR uni02D2
ENCODING 722
SWIDTH 568 0
DWIDTH 8 0
BBX 8 13 0 -2
BITMAP
00
00
00
00
00
10
08
08
30
00
00
00
00
ENDCHAR

STARTCHAR uni02D3
ENCODING 723
SWIDTH 568 0
DWIDTH 8 0
BBX 8 13 0 -2
BITMAP
00
00
00
00
00
18
20
20
10
00
00
00
00
ENDCHAR

STARTCHAR uni02D4
ENCODING 724
SWIDTH 568 0
DWIDTH 8 0
BBX 8 13 0 -2
BITMAP
00
00
00
00
10
10
7C
00
00
00
00
00
00
ENDCHAR

STARTCHAR uni02D5
ENCODING 725
SWIDTH 568 0
DWIDTH 8 0
BBX 8 13 0 -2
BITMAP
00
00
00
00
00
00
7C
10
10
00
00
00
00
ENDCHAR

STARTCHAR uni02D6
ENCODING 726
SWIDTH 568 0
DWIDTH 8 0
BBX 8 13 0 -2
BITMAP
00
00
00
00
10
10
7C
20
20
00
00
00
00
ENDCHAR

STARTCHAR uni02D7
ENCODING 727
SWIDTH 568 0
DWIDTH 8 0
BBX 8 13 0 -2
BITMAP
00
00
00
00
00
22
3E
44
00
00
00
00
00
ENDCHAR

STARTCHAR breve
ENCODING 728
SWIDTH 568 0
DWIDTH 8 0
BBX 8 13 0 -2
BITMAP
00
42
3C
00
00
00
00
00
00
00
00
00
00
ENDCHAR

STARTCHAR dotaccent
ENCODING 729
SWIDTH 568 0
DWIDTH 8 0
BBX 8 13 0 -2
BITMAP
00
00
18
00
00
00
00
00
00
00
00
00
00
ENDCHAR

STARTCHAR ring
ENCODING 730
SWIDTH 568 0
DWIDTH 8 0
BBX 8 13 0 -2
BITMAP
18
24
18
00
00
00
00
00
00
00
00
00
00
ENDCHAR

STARTCHAR ogonek
ENCODING 731
SWIDTH 568 0
DWIDTH 8 0
BBX 8 13 0 -2
BITMAP
00
00
00
00
00
00
00
00
00
00
00
20
38
ENDCHAR

STARTCHAR tilde
ENCODING 732
SWIDTH 568 0
DWIDTH 8 0
BBX 8 13 0 -2
BITMAP
00
14
28
00
00
00
00
00
00
00
00
00
00
ENDCHAR

STARTCHAR hungarumlaut
ENCODING 733
SWIDTH 568 0
DWIDTH 8 0
BBX 8 13 0 -2
BITMAP
00
22
44
00
00
00
00
00
00
00
00
00
00
ENDCHAR

STARTCHAR uni02DE
ENCODING 734
SWIDTH 568 0
DWIDTH 8 0
BBX 8 13 0 -2
BITMAP
00
00
00
00
00
10
32
4C
00
00
00
00
00
ENDCHAR

STARTCHAR uni02DF
ENCODING 735
SWIDTH 568 0
DWIDTH 8 0
BBX 8 13 0 -2
BITMAP
00
28
10
28
00
00
00
00
00
00
00
00
00
ENDCHAR

STARTCHAR uni02E0
ENCODING 736
SWIDTH 568 0
DWIDTH 8 0
BBX 8 13 0 -2
BITMAP
00
00
44
28
10
28
10
00
00
00
00
00
00
ENDCHAR

STARTCHAR uni02E1
ENCODING 737
SWIDTH 568 0
DWIDTH 8 0
BBX 8 13 0 -2
BITMAP
00
18
08
10
10
38
00
00
00
00
00
00
00
ENDCHAR

STARTCHAR uni02E2
ENCODING 738
SWIDTH 568 0
DWIDTH 8 0
BBX 8 13 0 -2
BITMAP
00
00
0C
10
18
08
30
00
00
00
00
00
00
ENDCHAR

STARTCHAR uni02E3
ENCODING 739
SWIDTH 568 0
DWIDTH 8 0
BBX 8 13 0 -2
BITMAP
00
00
24
18
18
24
00
00
00
00
00
00
00
ENDCHAR

STARTCHAR uni02E4
ENCODING 740
SWIDTH 568 0
DWIDTH 8 0
BBX 8 13 0 -2
BITMAP
00
00
18
24
40
30
10
20
20
00
00
00
00
ENDCHAR

STARTCHAR uni02E5
ENCODING 741
SWIDTH 568 0
DWIDTH 8 0
BBX 8 13 0 -2
BITMAP
00
00
3C
04
04
04
04
08
08
08
08
08
08
ENDCHAR

STARTCHAR uni02E6
ENCODING 742
SWIDTH 568 0
DWIDTH 8 0
BBX 8 13 0 -2
BITMAP
00
00
04
04
3C
04
04
08
08
08
08
08
08
ENDCHAR

STARTCHAR uni02E7
ENCODING 743
SWIDTH 568 0
DWIDTH 8 0
BBX 8 13 0 -2
BITMAP
00
00
04
04
04
04
04
78
08
08
08
08
08
ENDCHAR

STARTCHAR uni02E8
ENCODING 744
SWIDTH 568 0
DWIDTH 8 0
BBX 8 13 0 -2
BITMAP
00
00
04
04
04
04
04
08
08
08
78
08
08
ENDCHAR

STARTCHAR uni02E9
ENCODING 745
SWIDTH 568 0
DWIDTH 8 0
BBX 8 13 0 -2
BITMAP
00
00
04
04
04
04
04
08
08
08
08
08
78
ENDCHAR

STARTCHAR uni02EA
ENCODING 746
SWIDTH 568 0
DWIDTH 8 0
BBX 8 13 0 -2
BITMAP
00
00
00
00
00
00
00
10
10
20
3C
00
00
ENDCHAR

STARTCHAR uni02EB
ENCODING 747
SWIDTH 568 0
DWIDTH 8 0
BBX 8 13 0 -2
BITMAP
00
00
00
00
10
10
10
1C
20
20
20
00
00
ENDCHAR

STARTCHAR uni02EC
ENCODING 748
SWIDTH 568 0
DWIDTH 8 0
BBX 8 13 0 -2
BITMAP
00
00
00
00
00
00
00
00
00
00
44
28
10
ENDCHAR

STARTCHAR uni02ED
ENCODING 749
SWIDTH 568 0
DWIDTH 8 0
BBX 8 13 0 -2
BITMAP
00
00
3E
00
7C
00
00
00
00
00
00
00
00
ENDCHAR

STARTCHAR uni02EE
ENCODING 750
SWIDTH 568 0
DWIDTH 8 0
BBX 8 13 0 -2
BITMAP
00
00
66
22
44
00
00
00
00
00
00
00
00
ENDCHAR

STARTCHAR uni0374
ENCODING 884
SWIDTH 568 0
DWIDTH 8 0
BBX 8 13 0 -2
BITMAP
00
00
08
10
00
00
00
00
00
00
00
00
00
ENDCHAR

STARTCHAR uni0375
ENCODING 885
SWIDTH 568 0
DWIDTH 8 0
BBX 8 13 0 -2
BITMAP
00
00
00
00
00
00
00
00
00
00
00
08
10
ENDCHAR

STARTCHAR uni037A
ENCODING 890
SWIDTH 568 0
DWIDTH 8 0
BBX 8 13 0 -2
BITMAP
00
00
00
00
00
00
00
00
00
00
00
10
18
ENDCHAR

STARTCHAR uni037E
ENCODING 894
SWIDTH 568 0
DWIDTH 8 0
BBX 8 13 0 -2
BITMAP
00
00
00
00
08
1C
08
00
00
38
30
40
00
ENDCHAR

STARTCHAR tonos
ENCODING 900
SWIDTH 568 0
DWIDTH 8 0
BBX 8 13 0 -2
BITMAP
00
00
08
10
00
00
00
00
00
00
00
00
00
ENDCHAR

STARTCHAR dieresistonos
ENCODING 901
SWIDTH 568 0
DWIDTH 8 0
BBX 8 13 0 -2
BITMAP
00
08
52
42
00
00
00
00
00
00
00
00
00
ENDCHAR

STARTCHAR Alphatonos
ENCODING 902
SWIDTH 568 0
DWIDTH 8 0
BBX 8 13 0 -2
BITMAP
00
00
4C
92
12
12
12
1C
24
24
24
00
00
ENDCHAR

STARTCHAR anoteleia
ENCODING 903
SWIDTH 568 0
DWIDTH 8 0
BBX 8 13 0 -2
BITMAP
00
00
00
00
00
18
00
00
00
00
00
00
00
ENDCHAR

STARTCHAR Epsilontonos
ENCODING 904
SWIDTH 568 0
DWIDTH 8 0
BBX 8 13 0 -2
BITMAP
00
00
5E
90
10
10
1C
20
20
20
3C
00
00
ENDCHAR

STARTCHAR Etatonos
ENCODING 905
SWIDTH 568 0
DWIDTH 8 0
BBX 8 13 0 -2
BITMAP
00
00
52
92
12
12
1C
24
24
24
24
00
00
ENDCHAR

STARTCHAR Iotatonos
ENCODING 906
SWIDTH 568 0
DWIDTH 8 0
BBX 8 13 0 -2
BITMAP
00
00
2E
44
04
04
04
08
08
08
1C
00
00
ENDCHAR

STARTCHAR Omicrontonos
ENCODING 908
SWIDTH 568 0
DWIDTH 8 0
BBX 8 13 0 -2
BITMAP
00
00
4C
92
12
12
12
24
24
24
18
00
00
ENDCHAR

STARTCHAR Upsilontonos
ENCODING 910
SWIDTH 568 0
DWIDTH 8 0
BBX 8 13 0 -2
BITMAP
00
00
2A
4A
0A
04
04
04
08
08
08
00
00
ENDCHAR

STARTCHAR Omegatonos
ENCODING 911
SWIDTH 568 0
DWIDTH 8 0
BBX 8 13 0 -2
BITMAP
00
00
4C
92
12
12
24
24
18
18
24
00
00
ENDCHAR

STARTCHAR iotadieresistonos
ENCODING 912
SWIDTH 568 0
DWIDTH 8 0
BBX 8 13 0 -2
BITMAP
00
08
52
42
00
10
10
20
20
24
18
00
00
ENDCHAR

STARTCHAR Alpha
ENCODING 913
SWIDTH 568 0
DWIDTH 8 0
BBX 8 13 0 -2
BITMAP
00
00
18
24
42
42
42
7C
84
84
84
00
00
ENDCHAR

STARTCHAR Beta
ENCODING 914
SWIDTH 568 0
DWIDTH 8 0
BBX 8 13 0 -2
BITMAP
00
00
7C
42
42
42
7C
84
84
84
F8
00
00
ENDCHAR

STARTCHAR Gamma
ENCODING 915
SWIDTH 568 0
DWIDTH 8 0
BBX 8 13 0 -2
BITMAP
00
00
7E
40
40
40
40
80
80
80
80
00
00
ENDCHAR

STARTCHAR Delta
ENCODING 916
SWIDTH 568 0
DWIDTH 8 0
BBX 8 13 0 -2
BITMAP
00
00
08
14
14
24
24
42
42
82
FE
00
00
ENDCHAR

STARTCHAR Epsilon
ENCODING 917
SWIDTH 568 0
DWIDTH 8 0
BBX 8 13 0 -2
BITMAP
00
00
7E
40
40
40
78
80
80
80
FC
00
00
ENDCHAR

STARTCHAR Zeta
ENCODING 918
SWIDTH 568 0
DWIDTH 8 0
BBX 8 13 0 -2
BITMAP
00
00
7E
02
04
08
10
20
40
80
FC
00
00
ENDCHAR

STARTCHAR Eta
ENCODING 919
SWIDTH 568 0
DWIDTH 8 0
BBX 8 13 0 -2
BITMAP
00
00
42
42
42
42
7C
84
84
84
84
00
00
ENDCHAR

STARTCHAR Theta
ENCODING 920
SWIDTH 568 0
DWIDTH 8 0
BBX 8 13 0 -2
BITMAP
00
00
3C
42
42
42
7C
84
84
84
78
00
00
ENDCHAR

STARTCHAR Iota
ENCODING 921
SWIDTH 568 0
DWIDTH 8 0
BBX 8 13 0 -2
BITMAP
00
00
3E
08
08
08
08
10
10
10
7C
00
00
ENDCHAR

STARTCHAR Kappa
ENCODING 922
SWIDTH 568 0
DWIDTH 8 0
BBX 8 13 0 -2
BITMAP
00
00
42
44
48
50
60
A0
90
88
84
00
00
ENDCHAR

STARTCHAR Lambda
ENCODING 923
SWIDTH 568 0
DWIDTH 8 0
BBX 8 13 0 -2
BITMAP
00
00
08
14
14
24
24
42
42
82
82
00
00
ENDCHAR

STARTCHAR Mu
ENCODING 924
SWIDTH 568 0
DWIDTH 8 0
BBX 8 13 0 -2
BITMAP
00
00
41
41
63
55
49
92
82
82
82
00
00
ENDCHAR

STARTCHAR Nu
ENCODING 925
SWIDTH 568 0
DWIDTH 8 0
BBX 8 13 0 -2
BITMAP
00
00
42
42
62
52
4A
84
84
84
84
00
00
ENDCHAR

STARTCHAR Xi
ENCODING 926
SWIDTH 568 0
DWIDTH 8 0
BBX 8 13 0 -2
BITMAP
00
00
7E
00
00
00
3C
00
00
00
FC
00
00
ENDCHAR

STARTCHAR Omicron
ENCODING 927
SWIDTH 568 0
DWIDTH 8 0
BBX 8 13 0 -2
BITMAP
00
00
3C
42
42
42
42
84
84
84
78
00
00
ENDCHAR

STARTCHAR Pi
ENCODING 928
SWIDTH 568 0
DWIDTH 8 0
BBX 8 13 0 -2
BITMAP
00
00
FE
44
44
44
44
88
88
88
88
00
00
ENDCHAR

STARTCHAR Rho
ENCODING 929
SWIDTH 568 0
DWIDTH 8 0
BBX 8 13 0 -2
BITMAP
00
00
7C
42
42
42
7C
80
80
80
80
00
00
ENDCHAR

STARTCHAR Sigma
ENCODING 931
SWIDTH 568 0
DWIDTH 8 0
BBX 8 13 0 -2
BITMAP
00
00
7E
40
20
10
18
20
40
80
FC
00
00
ENDCHAR

STARTCHAR Tau
ENCODING 932
SWIDTH 568 0
DWIDTH 8 0
BBX 8 13 0 -2
BITMAP
00
00
FE
10
10
10
10
20
20
20
20
00
00
ENDCHAR

STARTCHAR Upsilon
ENCODING 933
SWIDTH 568 0
DWIDTH 8 0
BBX 8 13 0 -2
BITMAP
00
00
82
82
44
28
10
10
20
20
20
00
00
ENDCHAR

STARTCHAR Phi
ENCODING 934
SWIDTH 568 0
DWIDTH 8 0
BBX 8 13 0 -2
BITMAP
00
00
08
3E
49
49
49
92
92
7C
10
00
00
ENDCHAR

STARTCHAR Chi
ENCODING 935
SWIDTH 568 0
DWIDTH 8 0
BBX 8 13 0 -2
BITMAP
00
00
41
41
22
14
18
28
44
82
82
00
00
ENDCHAR

STARTCHAR Psi
ENCODING 936
SWIDTH 568 0
DWIDTH 8 0
BBX 8 13 0 -2
BITMAP
00
00
49
49
49
92
92
7C
10
20
20
00
00
ENDCHAR

STARTCHAR Omega
ENCODING 937
SWIDTH 568 0
DWIDTH 8 0
BBX 8 13 0 -2
BITMAP
00
00
3E
41
41
41
82
82
6C
28
EE
00
00
ENDCHAR

STARTCHAR Iotadieresis
ENCODING 938
SWIDTH 568 0
DWIDTH 8 0
BBX 8 13 0 -2
BITMAP
00
22
22
00
3E
08
08
10
10
10
7C
00
00
ENDCHAR

STARTCHAR Upsilondieresis
ENCODING 939
SWIDTH 568 0
DWIDTH 8 0
BBX 8 13 0 -2
BITMAP
00
44
44
00
44
44
28
10
10
20
20
00
00
ENDCHAR

STARTCHAR alphatonos
ENCODING 940
SWIDTH 568 0
DWIDTH 8 0
BBX 8 13 0 -2
BITMAP
00
04
08
00
00
3A
46
84
8C
94
64
00
00
ENDCHAR

STARTCHAR epsilontonos
ENCODING 941
SWIDTH 568 0
DWIDTH 8 0
BBX 8 13 0 -2
BITMAP
00
04
08
00
00
3C
42
70
80
84
78
00
00
ENDCHAR

STARTCHAR etatonos
ENCODING 942
SWIDTH 568 0
DWIDTH 8 0
BBX 8 13 0 -2
BITMAP
00
04
08
00
00
5C
62
42
84
84
84
08
08
ENDCHAR

STARTCHAR iotatonos
ENCODING 943
SWIDTH 568 0
DWIDTH 8 0
BBX 8 13 0 -2
BITMAP
00
08
10
00
00
10
10
20
20
24
18
00
00
ENDCHAR

STARTCHAR upsilondieresistonos
ENCODING 944
SWIDTH 568 0
DWIDTH 8 0
BBX 8 13 0 -2
BITMAP
00
08
52
42
00
42
42
84
84
84
78
00
00
ENDCHAR

STARTCHAR alpha
ENCODING 945
SWIDTH 568 0
DWIDTH 8 0
BBX 8 13 0 -2
BITMAP
00
00
00
00
00
3A
46
84
8C
94
64
00
00
ENDCHAR

STARTCHAR beta
ENCODING 946
SWIDTH 568 0
DWIDTH 8 0
BBX 8 13 0 -2
BITMAP
00
00
0C
12
22
3E
21
21
42
64
58
80
80
ENDCHAR

STARTCHAR gamma
ENCODING 947
SWIDTH 568 0
DWIDTH 8 0
BBX 8 13 0 -2
BITMAP
00
00
00
00
00
44
44
48
50
50
20
20
20
ENDCHAR

STARTCHAR delta
ENCODING 948
SWIDTH 568 0
DWIDTH 8 0
BBX 8 13 0 -2
BITMAP
00
00
3C
42
20
3C
42
42
84
84
78
00
00
ENDCHAR

STARTCHAR epsilon
ENCODING 949
SWIDTH 568 0
DWIDTH 8 0
BBX 8 13 0 -2
BITMAP
00
00
00
00
00
3C
42
70
80
84
78
00
00
ENDCHAR

STARTCHAR zeta
ENCODING 950
SWIDTH 568 0
DWIDTH 8 0
BBX 8 13 0 -2
BITMAP
00
00
7E
10
20
20
40
80
80
80
78
04
18
ENDCHAR

STARTCHAR eta
ENCODING 951
SWIDTH 568 0
DWIDTH 8 0
BBX 8 13 0 -2
BITMAP
00
00
00
00
00
5C
62
42
84
84
84
08
08
ENDCHAR

STARTCHAR theta
ENCODING 952
SWIDTH 568 0
DWIDTH 8 0
BBX 8 13 0 -2
BITMAP
00
00
1C
22
22
22
3C
44
44
44
38
00
00
ENDCHAR

STARTCHAR iota
ENCODING 953
SWIDTH 568 0
DWIDTH 8 0
BBX 8 13 0 -2
BITMAP
00
00
00
00
00
10
10
20
20
24
18
00
00
ENDCHAR

STARTCHAR kappa
ENCODING 954
SWIDTH 568 0
DWIDTH 8 0
BBX 8 13 0 -2
BITMAP
00
00
00
00
00
22
24
38
30
48
44
00
00
ENDCHAR

STARTCHAR lambda
ENCODING 955
SWIDTH 568 0
DWIDTH 8 0
BBX 8 13 0 -2
BITMAP
00
00
3C
42
02
3A
46
42
84
84
84
00
00
ENDCHAR

STARTCHAR mu
ENCODING 956
SWIDTH 568 0
DWIDTH 8 0
BBX 8 13 0 -2
BITMAP
00
00
00
00
00
42
42
42
84
CC
B4
80
80
ENDCHAR

STARTCHAR nu
ENCODING 957
SWIDTH 568 0
DWIDTH 8 0
BBX 8 13 0 -2
BITMAP
00
00
00
00
00
44
44
48
50
50
20
00
00
ENDCHAR

STARTCHAR xi
ENCODING 958
SWIDTH 568 0
DWIDTH 8 0
BBX 8 13 0 -2
BITMAP
00
00
7E
10
20
20
1C
60
80
80
78
04
18
ENDCHAR

STARTCHAR omicron
ENCODING 959
SWIDTH 568 0
DWIDTH 8 0
BBX 8 13 0 -2
BITMAP
00
00
00
00
00
3C
42
42
84
84
78
00
00
ENDCHAR

STARTCHAR pi
ENCODING 960
SWIDTH 568 0
DWIDTH 8 0
BBX 8 13 0 -2
BITMAP
00
00
00
00
00
FE
44
44
88
88
88
00
00
ENDCHAR

STARTCHAR rho
ENCODING 961
SWIDTH 568 0
DWIDTH 8 0
BBX 8 13 0 -2
BITMAP
00
00
00
00
00
1E
21
21
42
62
5C
80
80
ENDCHAR

STARTCHAR sigma1
ENCODING 962
SWIDTH 568 0
DWIDTH 8 0
BBX 8 13 0 -2
BITMAP
00
00
00
00
00
3C
42
80
80
80
78
04
18
ENDCHAR

STARTCHAR sigma
ENCODING 963
SWIDTH 568 0
DWIDTH 8 0
BBX 8 13 0 -2
BITMAP
00
00
00
00
00
3E
48
84
84
88
70
00
00
ENDCHAR

STARTCHAR tau
ENCODING 964
SWIDTH 568 0
DWIDTH 8 0
BBX 8 13 0 -2
BITMAP
00
00
00
00
00
7E
10
10
20
24
18
00
00
ENDCHAR

STARTCHAR upsilon
ENCODING 965
SWIDTH 568 0
DWIDTH 8 0
BBX 8 13 0 -2
BITMAP
00
00
00
00
00
42
42
42
84
84
78
00
00
ENDCHAR

STARTCHAR phi
ENCODING 966
SWIDTH 568 0
DWIDTH 8 0
BBX 8 13 0 -2
BITMAP
00
00
00
00
00
26
49
49
92
94
78
20
20
ENDCHAR

STARTCHAR chi
ENCODING 967
SWIDTH 568 0
DWIDTH 8 0
BBX 8 13 0 -2
BITMAP
00
00
00
00
00
42
44
48
30
30
48
84
84
ENDCHAR

STARTCHAR psi
ENCODING 968
SWIDTH 568 0
DWIDTH 8 0
BBX 8 13 0 -2
BITMAP
00
00
00
00
00
49
49
49
92
92
7C
10
10
ENDCHAR

STARTCHAR omega
ENCODING 969
SWIDTH 568 0
DWIDTH 8 0
BBX 8 13 0 -2
BITMAP
00
00
00
00
00
41
49
49
92
92
6C
00
00
ENDCHAR

STARTCHAR iotadieresis
ENCODING 970
SWIDTH 568 0
DWIDTH 8 0
BBX 8 13 0 -2
BITMAP
00
00
42
42
00
10
10
10
20
24
18
00
00
ENDCHAR

STARTCHAR upsilondieresis
ENCODING 971
SWIDTH 568 0
DWIDTH 8 0
BBX 8 13 0 -2
BITMAP
00
00
42
42
00
42
42
42
84
84
78
00
00
ENDCHAR

STARTCHAR omicrontonos
ENCODING 972
SWIDTH 568 0
DWIDTH 8 0
BBX 8 13 0 -2
BITMAP
00
04
08
00
00
3C
42
42
84
84
78
00
00
ENDCHAR

STARTCHAR upsilontonos
ENCODING 973
SWIDTH 568 0
DWIDTH 8 0
BBX 8 13 0 -2
BITMAP
00
04
08
00
00
42
42
42
84
84
78
00
00
ENDCHAR

STARTCHAR omegatonos
ENCODING 974
SWIDTH 568 0
DWIDTH 8 0
BBX 8 13 0 -2
BITMAP
00
04
08
00
00
41
49
49
92
92
6C
00
00
ENDCHAR

STARTCHAR uni03D0
ENCODING 976
SWIDTH 568 0
DWIDTH 8 0
BBX 8 13 0 -2
BITMAP
00
00
0C
12
22
24
2E
42
42
44
38
00
00
ENDCHAR

STARTCHAR theta1
ENCODING 977
SWIDTH 568 0
DWIDTH 8 0
BBX 8 13 0 -2
BITMAP
00
00
38
44
44
3E
04
88
88
88
70
00
00
ENDCHAR

STARTCHAR Upsilon1
ENCODING 978
SWIDTH 568 0
DWIDTH 8 0
BBX 8 13 0 -2
BITMAP
00
00
44
AA
28
28
10
10
20
20
20
00
00
ENDCHAR

STARTCHAR uni03D3
ENCODING 979
SWIDTH 568 0
DWIDTH 8 0
BBX 8 13 0 -2
BITMAP
00
00
A4
AA
28
28
10
10
20
20
20
00
00
ENDCHAR

STARTCHAR uni03D4
ENCODING 980
SWIDTH 568 0
DWIDTH 8 0
BBX 8 13 0 -2
BITMAP
00
44
44
00
44
AA
28
10
10
20
20
00
00
ENDCHAR

STARTCHAR phi1
ENCODING 981
SWIDTH 568 0
DWIDTH 8 0
BBX 8 13 0 -2
BITMAP
00
00
00
08
08
3E
49
49
92
92
7C
10
10
ENDCHAR

STARTCHAR omega1
ENCODING 982
SWIDTH 568 0
DWIDTH 8 0
BBX 8 13 0 -2
BITMAP
00
00
00
00
00
7F
41
49
92
92
6C
00
00
ENDCHAR

STARTCHAR uni03D7
ENCODING 983
SWIDTH 568 0
DWIDTH 8 0
BBX 8 13 0 -2
BITMAP
00
10
08
00
00
42
24
18
30
48
84
04
38
ENDCHAR

STARTCHAR uni03DA
ENCODING 986
SWIDTH 568 0
DWIDTH 8 0
BBX 8 13 0 -2
BITMAP
00
00
1C
22
40
40
80
80
80
78
04
08
00
ENDCHAR

STARTCHAR uni03DB
ENCODING 987
SWIDTH 568 0
DWIDTH 8 0
BBX 8 13 0 -2
BITMAP
00
00
00
00
02
3C
40
80
80
80
78
04
18
ENDCHAR

STARTCHAR uni03DC
ENCODING 988
SWIDTH 568 0
DWIDTH 8 0
BBX 8 13 0 -2
BITMAP
00
00
7E
40
40
40
78
80
80
80
80
00
00
ENDCHAR

STARTCHAR uni03DD
ENCODING 989
SWIDTH 568 0
DWIDTH 8 0
BBX 8 13 0 -2
BITMAP
00
00
00
00
00
3E
20
20
38
40
40
40
40
ENDCHAR

STARTCHAR uni03F0
ENCODING 1008
SWIDTH 568 0
DWIDTH 8 0
BBX 8 13 0 -2
BITMAP
00
00
00
00
00
42
24
28
30
48
84
00
00
ENDCHAR

STARTCHAR uni03F1
ENCODING 1009
SWIDTH 568 0
DWIDTH 8 0
BBX 8 13 0 -2
BITMAP
00
00
00
00
00
3C
42
42
84
C4
B8
80
78
ENDCHAR

STARTCHAR uni03F2
ENCODING 1010
SWIDTH 568 0
DWIDTH 8 0
BBX 8 13 0 -2
BITMAP
00
00
00
00
00
3C
42
80
80
84
78
00
00
ENDCHAR

STARTCHAR uni03F3
ENCODING 1011
SWIDTH 568 0
DWIDTH 8 0
BBX 8 13 0 -2
BITMAP
00
00
00
02
00
06
02
02
04
04
44
44
38
ENDCHAR

STARTCHAR uni03F4
ENCODING 1012
SWIDTH 568 0
DWIDTH 8 0
BBX 8 13 0 -2
BITMAP
00
00
3C
42
42
42
7C
84
84
84
78
00
00
ENDCHAR

STARTCHAR uni03F5
ENCODING 1013
SWIDTH 568 0
DWIDTH 8 0
BBX 8 13 0 -2
BITMAP
00
00
00
00
00
1E
20
78
40
40
3C
00
00
ENDCHAR

STARTCHAR uni0400
ENCODING 1024
SWIDTH 568 0
DWIDTH 8 0
BBX 8 13 0 -2
BITMAP
00
10
08
00
7E
40
40
78
80
80
FC
00
00
ENDCHAR

STARTCHAR afii10023
ENCODING 1025
SWIDTH 568 0
DWIDTH 8 0
BBX 8 13 0 -2
BITMAP
00
24
24
00
7E
40
40
78
80
80
FC
00
00
ENDCHAR

STARTCHAR afii10051
ENCODING 1026
SWIDTH 568 0
DWIDTH 8 0
BBX 8 13 0 -2
BITMAP
00
00
FC
20
20
3C
22
22
42
44
44
04
18
ENDCHAR

STARTCHAR afii10052
ENCODING 1027
SWIDTH 568 0
DWIDTH 8 0
BBX 8 13 0 -2
BITMAP
00
08
10
00
7E
42
40
40
80
80
80
00
00
ENDCHAR

STARTCHAR afii10053
ENCODING 1028
SWIDTH 568 0
DWIDTH 8 0
BBX 8 13 0 -2
BITMAP
00
00
1E
22
40
40
78
80
80
44
38
00
00
ENDCHAR

STARTCHAR afii10054
ENCODING 1029
SWIDTH 568 0
DWIDTH 8 0
BBX 8 13 0 -2
BITMAP
00
00
3C
42
40
40
38
04
04
84
78
00
00
ENDCHAR

STARTCHAR afii10055
ENCODING 1030
SWIDTH 568 0
DWIDTH 8 0
BBX 8 13 0 -2
BITMAP
00
00
1C
08
08
08
08
10
10
10
38
00
00
ENDCHAR

STARTCHAR afii10056
ENCODING 1031
SWIDTH 568 0
DWIDTH 8 0
BBX 8 13 0 -2
BITMAP
00
22
22
00
3E
08
08
10
10
10
7C
00
00
ENDCHAR

STARTCHAR afii10057
ENCODING 1032
SWIDTH 568 0
DWIDTH 8 0
BBX 8 13 0 -2
BITMAP
00
00
0E
04
04
04
04
08
08
88
70
00
00
ENDCHAR

STARTCHAR afii10058
ENCODING 1033
SWIDTH 568 0
DWIDTH 8 0
BBX 8 13 0 -2
BITMAP
00
00
38
48
48
48
4C
92
92
92
9C
00
00
ENDCHAR

STARTCHAR afii10059
ENCODING 1034
SWIDTH 568 0
DWIDTH 8 0
BBX 8 13 0 -2
BITMAP
00
00
48
48
48
48
7C
92
92
92
9C
00
00
ENDCHAR

STARTCHAR afii10060
ENCODING 1035
SWIDTH 568 0
DWIDTH 8 0
BBX 8 13 0 -2
BITMAP
00
00
FC
20
20
2C
32
22
44
44
44
00
00
ENDCHAR

STARTCHAR afii10061
ENCODING 1036
SWIDTH 568 0
DWIDTH 8 0
BBX 8 13 0 -2
BITMAP
04
08
00
22
24
28
30
50
48
44
44
00
00
ENDCHAR

STARTCHAR uni040D
ENCODING 1037
SWIDTH 568 0
DWIDTH 8 0
BBX 8 13 0 -2
BITMAP
00
10
08
42
46
46
4A
54
64
84
84
00
00
ENDCHAR

STARTCHAR afii10062
ENCODING 1038
SWIDTH 568 0
DWIDTH 8 0
BBX 8 13 0 -2
BITMAP
00
42
3C
00
42
42
84
7C
04
04
78
00
00
ENDCHAR

STARTCHAR afii10145
ENCODING 1039
SWIDTH 568 0
DWIDTH 8 0
BBX 8 13 0 -2
BITMAP
00
00
22
22
22
22
22
44
44
44
7C
10
10
ENDCHAR

STARTCHAR afii10017
ENCODING 1040
SWIDTH 568 0
DWIDTH 8 0
BBX 8 13 0 -2
BITMAP
00
00
18
24
42
42
42
7C
84
84
84
00
00
ENDCHAR

STARTCHAR afii10018
ENCODING 1041
SWIDTH 568 0
DWIDTH 8 0
BBX 8 13 0 -2
BITMAP
00
00
3E
20
20
20
3C
42
42
42
7C
00
00
ENDCHAR

STARTCHAR afii10019
ENCODING 1042
SWIDTH 568 0
DWIDTH 8 0
BBX 8 13 0 -2
BITMAP
00
00
7C
42
42
42
7C
84
84
84
F8
00
00
ENDCHAR

STARTCHAR afii10020
ENCODING 1043
SWIDTH 568 0
DWIDTH 8 0
BBX 8 13 0 -2
BITMAP
00
00
7E
42
40
40
40
80
80
80
80
00
00
ENDCHAR

STARTCHAR afii10021
ENCODING 1044
SWIDTH 568 0
DWIDTH 8 0
BBX 8 13 0 -2
BITMAP
00
00
1E
12
12
22
22
24
44
44
FE
82
00
ENDCHAR

STARTCHAR afii10022
ENCODING 1045
SWIDTH 568 0
DWIDTH 8 0
BBX 8 13 0 -2
BITMAP
00
00
7E
40
40
40
7C
80
80
80
FC
00
00
ENDCHAR

STARTCHAR afii10024
ENCODING 1046
SWIDTH 568 0
DWIDTH 8 0
BBX 8 13 0 -2
BITMAP
00
00
49
49
2A
1C
2A
4A
52
92
92
00
00
ENDCHAR

STARTCHAR afii10025
ENCODING 1047
SWIDTH 568 0
DWIDTH 8 0
BBX 8 13 0 -2
BITMAP
00
00
3C
42
02
02
0C
04
04
84
78
00
00
ENDCHAR

STARTCHAR afii10026
ENCODING 1048
SWIDTH 568 0
DWIDTH 8 0
BBX 8 13 0 -2
BITMAP
00
00
42
46
46
4A
52
A4
A4
C4
84
00
00
ENDCHAR

STARTCHAR afii10027
ENCODING 1049
SWIDTH 568 0
DWIDTH 8 0
BBX 8 13 0 -2
BITMAP
00
42
3C
42
46
4A
52
A4
C4
C4
84
00
00
ENDCHAR

STARTCHAR afii10028
ENCODING 1050
SWIDTH 568 0
DWIDTH 8 0
BBX 8 13 0 -2
BITMAP
00
00
42
44
48
50
60
A0
90
88
84
00
00
ENDCHAR

STARTCHAR afii10029
ENCODING 1051
SWIDTH 568 0
DWIDTH 8 0
BBX 8 13 0 -2
BITMAP
00
00
1E
22
22
22
22
44
44
84
84
00
00
ENDCHAR

STARTCHAR afii10030
ENCODING 1052
SWIDTH 568 0
DWIDTH 8 0
BBX 8 13 0 -2
BITMAP
00
00
41
41
63
55
49
92
82
82
82
00
00
ENDCHAR

STARTCHAR afii10031
ENCODING 1053
SWIDTH 568 0
DWIDTH 8 0
BBX 8 13 0 -2
BITMAP
00
00
42
42
42
42
7C
84
84
84
84
00
00
ENDCHAR

STARTCHAR afii10032
ENCODING 1054
SWIDTH 568 0
DWIDTH 8 0
BBX 8 13 0 -2
BITMAP
00
00
3C
42
42
42
42
84
84
84
78
00
00
ENDCHAR

STARTCHAR afii10033
ENCODING 1055
SWIDTH 568 0
DWIDTH 8 0
BBX 8 13 0 -2
BITMAP
00
00
7E
42
42
42
42
84
84
84
84
00
00
ENDCHAR

STARTCHAR afii10034
ENCODING 1056
SWIDTH 568 0
DWIDTH 8 0
BBX 8 13 0 -2
BITMAP
00
00
7C
42
42
42
42
7C
80
80
80
00
00
ENDCHAR

STARTCHAR afii10035
ENCODING 1057
SWIDTH 568 0
DWIDTH 8 0
BBX 8 13 0 -2
BITMAP
00
00
3C
42
40
40
40
80
80
84
78
00
00
ENDCHAR

STARTCHAR afii10036
ENCODING 1058
SWIDTH 568 0
DWIDTH 8 0
BBX 8 13 0 -2
BITMAP
00
00
FE
10
10
10
10
20
20
20
20
00
00
ENDCHAR

STARTCHAR afii10037
ENCODING 1059
SWIDTH 568 0
DWIDTH 8 0
BBX 8 13 0 -2
BITMAP
00
00
42
42
44
44
28
30
20
40
80
00
00
ENDCHAR

STARTCHAR afii10038
ENCODING 1060
SWIDTH 568 0
DWIDTH 8 0
BBX 8 13 0 -2
BITMAP
00
00
08
3E
49
49
92
92
7C
10
10
00
00
ENDCHAR

STARTCHAR afii10039
ENCODING 1061
SWIDTH 568 0
DWIDTH 8 0
BBX 8 13 0 -2
BITMAP
00
00
22
22
14
14
18
28
28
44
44
00
00
ENDCHAR

STARTCHAR afii10040
ENCODING 1062
SWIDTH 568 0
DWIDTH 8 0
BBX 8 13 0 -2
BITMAP
00
00
42
42
42
42
42
84
84
84
FE
02
02
ENDCHAR

STARTCHAR afii10041
ENCODING 1063
SWIDTH 568 0
DWIDTH 8 0
BBX 8 13 0 -2
BITMAP
00
00
42
42
42
84
7C
04
08
08
08
00
00
ENDCHAR

STARTCHAR afii10042
ENCODING 1064
SWIDTH 568 0
DWIDTH 8 0
BBX 8 13 0 -2
BITMAP
00
00
49
49
49
49
49
92
92
92
FE
00
00
ENDCHAR

STARTCHAR afii10043
ENCODING 1065
SWIDTH 568 0
DWIDTH 8 0
BBX 8 13 0 -2
BITMAP
00
00
49
49
49
49
49
92
92
92
FE
02
02
ENDCHAR

STARTCHAR afii10044
ENCODING 1066
SWIDTH 568 0
DWIDTH 8 0
BBX 8 13 0 -2
BITMAP
00
00
70
10
10
10
1C
22
22
22
3C
00
00
ENDCHAR

STARTCHAR afii10045
ENCODING 1067
SWIDTH 568 0
DWIDTH 8 0
BBX 8 13 0 -2
BITMAP
00
00
42
42
42
72
4A
94
94
94
E4
00
00
ENDCHAR

STARTCHAR afii10046
ENCODING 1068
SWIDTH 568 0
DWIDTH 8 0
BBX 8 13 0 -2
BITMAP
00
00
20
20
20
20
3C
42
42
42
7C
00
00
ENDCHAR

STARTCHAR afii10047
ENCODING 1069
SWIDTH 568 0
DWIDTH 8 0
BBX 8 13 0 -2
BITMAP
00
00
78
04
02
02
3C
04
04
08
F0
00
00
ENDCHAR

STARTCHAR afii10048
ENCODING 1070
SWIDTH 568 0
DWIDTH 8 0
BBX 8 13 0 -2
BITMAP
00
00
46
49
49
49
79
92
92
92
8C
00
00
ENDCHAR

STARTCHAR afii10049
ENCODING 1071
SWIDTH 568 0
DWIDTH 8 0
BBX 8 13 0 -2
BITMAP
00
00
1E
22
22
22
1C
14
24
44
44
00
00
ENDCHAR

STARTCHAR afii10065
ENCODING 1072
SWIDTH 568 0
DWIDTH 8 0
BBX 8 13 0 -2
BITMAP
00
00
00
00
00
3C
02
7C
84
84
7C
00
00
ENDCHAR

STARTCHAR afii10066
ENCODING 1073
SWIDTH 568 0
DWIDTH 8 0
BBX 8 13 0 -2
BITMAP
00
00
02
3C
40
7C
42
42
84
84
78
00
00
ENDCHAR

STARTCHAR afii10067
ENCODING 1074
SWIDTH 568 0
DWIDTH 8 0
BBX 8 13 0 -2
BITMAP
00
00
00
00
00
7C
42
78
84
84
F8
00
00
ENDCHAR

STARTCHAR afii10068
ENCODING 1075
SWIDTH 568 0
DWIDTH 8 0
BBX 8 13 0 -2
BITMAP
00
00
00
00
00
7E
42
40
80
80
80
00
00
ENDCHAR

STARTCHAR afii10069
ENCODING 1076
SWIDTH 568 0
DWIDTH 8 0
BBX 8 13 0 -2
BITMAP
00
00
00
00
00
0E
12
12
24
24
7E
42
00
ENDCHAR

STARTCHAR afii10070
ENCODING 1077
SWIDTH 568 0
DWIDTH 8 0
BBX 8 13 0 -2
BITMAP
00
00
00
00
00
3C
42
7C
80
84
78
00
00
ENDCHAR

STARTCHAR afii10072
ENCODING 1078
SWIDTH 568 0
DWIDTH 8 0
BBX 8 13 0 -2
BITMAP
00
00
00
00
00
49
49
3E
54
92
92
00
00
ENDCHAR

STARTCHAR afii10073
ENCODING 1079
SWIDTH 568 0
DWIDTH 8 0
BBX 8 13 0 -2
BITMAP
00
00
00
00
00
3C
42
38
04
84
78
00
00
ENDCHAR

STARTCHAR afii10074
ENCODING 1080
SWIDTH 568 0
DWIDTH 8 0
BBX 8 13 0 -2
BITMAP
00
00
00
00
00
42
46
5A
A4
C4
84
00
00
ENDCHAR

STARTCHAR afii10075
ENCODING 1081
SWIDTH 568 0
DWIDTH 8 0
BBX 8 13 0 -2
BITMAP
00
00
42
3C
00
42
46
5A
A4
C4
84
00
00
ENDCHAR

STARTCHAR afii10076
ENCODING 1082
SWIDTH 568 0
DWIDTH 8 0
BBX 8 13 0 -2
BITMAP
00
00
00
00
00
22
24
38
48
44
44
00
00
ENDCHAR

STARTCHAR afii10077
ENCODING 1083
SWIDTH 568 0
DWIDTH 8 0
BBX 8 13 0 -2
BITMAP
00
00
00
00
00
1E
22
22
44
44
84
00
00
ENDCHAR

STARTCHAR afii10078
ENCODING 1084
SWIDTH 568 0
DWIDTH 8 0
BBX 8 13 0 -2
BITMAP
00
00
00
00
00
22
36
2A
54
44
44
00
00
ENDCHAR

STARTCHAR afii10079
ENCODING 1085
SWIDTH 568 0
DWIDTH 8 0
BBX 8 13 0 -2
BITMAP
00
00
00
00
00
42
42
7C
84
84
84
00
00
ENDCHAR

STARTCHAR afii10080
ENCODING 1086
SWIDTH 568 0
DWIDTH 8 0
BBX 8 13 0 -2
BITMAP
00
00
00
00
00
3C
42
42
84
84
78
00
00
ENDCHAR

STARTCHAR afii10081
ENCODING 1087
SWIDTH 568 0
DWIDTH 8 0
BBX 8 13 0 -2
BITMAP
00
00
00
00
00
7E
42
42
84
84
84
00
00
ENDCHAR

STARTCHAR afii10082
ENCODING 1088
SWIDTH 568 0
DWIDTH 8 0
BBX 8 13 0 -2
BITMAP
00
00
00
00
00
5C
62
42
84
C4
B8
80
80
ENDCHAR

STARTCHAR afii10083
ENCODING 1089
SWIDTH 568 0
DWIDTH 8 0
BBX 8 13 0 -2
BITMAP
00
00
00
00
00
3C
42
80
80
84
78
00
00
ENDCHAR

STARTCHAR afii10084
ENCODING 1090
SWIDTH 568 0
DWIDTH 8 0
BBX 8 13 0 -2
BITMAP
00
00
00
00
00
7C
10
10
20
20
20
00
00
ENDCHAR

STARTCHAR afii10085
ENCODING 1091
SWIDTH 568 0
DWIDTH 8 0
BBX 8 13 0 -2
BITMAP
00
00
00
00
00
42
42
84
8C
74
04
84
78
ENDCHAR

STARTCHAR afii10086
ENCODING 1092
SWIDTH 568 0
DWIDTH 8 0
BBX 8 13 0 -2
BITMAP
00
00
08
08
08
3E
49
49
92
92
7C
10
10
ENDCHAR

STARTCHAR afii10087
ENCODING 1093
SWIDTH 568 0
DWIDTH 8 0
BBX 8 13 0 -2
BITMAP
00
00
00
00
00
42
24
18
30
48
84
00
00
ENDCHAR

STARTCHAR afii10088
ENCODING 1094
SWIDTH 568 0
DWIDTH 8 0
BBX 8 13 0 -2
BITMAP
00
00
00
00
00
22
22
22
44
44
7E
02
02
ENDCHAR

STARTCHAR afii10089
ENCODING 1095
SWIDTH 568 0
DWIDTH 8 0
BBX 8 13 0 -2
BITMAP
00
00
00
00
00
42
42
8C
74
04
04
00
00
ENDCHAR

STARTCHAR afii10090
ENCODING 1096
SWIDTH 568 0
DWIDTH 8 0
BBX 8 13 0 -2
BITMAP
00
00
00
00
00
49
49
49
92
92
FE
00
00
ENDCHAR

STARTCHAR afii10091
ENCODING 1097
SWIDTH 568 0
DWIDTH 8 0
BBX 8 13 0 -2
BITMAP
00
00
00
00
00
49
49
49
92
92
FE
02
02
ENDCHAR

STARTCHAR afii10092
ENCODING 1098
SWIDTH 568 0
DWIDTH 8 0
BBX 8 13 0 -2
BITMAP
00
00
00
00
00
70
10
1C
22
22
3C
00
00
ENDCHAR

STARTCHAR afii10093
ENCODING 1099
SWIDTH 568 0
DWIDTH 8 0
BBX 8 13 0 -2
BITMAP
00
00
00
00
00
42
42
62
94
94
E4
00
00
ENDCHAR

STARTCHAR afii10094
ENCODING 1100
SWIDTH 568 0
DWIDTH 8 0
BBX 8 13 0 -2
BITMAP
00
00
00
00
00
20
20
38
44
44
78
00
00
ENDCHAR

STARTCHAR afii10095
ENCODING 1101
SWIDTH 568 0
DWIDTH 8 0
BBX 8 13 0 -2
BITMAP
00
00
00
00
00
3C
02
1C
04
04
78
00
00
ENDCHAR

STARTCHAR afii10096
ENCODING 1102
SWIDTH 568 0
DWIDTH 8 0
BBX 8 13 0 -2
BITMAP
00
00
00
00
00
46
49
49
72
92
8C
00
00
ENDCHAR

STARTCHAR afii10097
ENCODING 1103
SWIDTH 568 0
DWIDTH 8 0
BBX 8 13 0 -2
BITMAP
00
00
00
00
00
3E
42
42
3C
44
84
00
00
ENDCHAR

STARTCHAR uni0450
ENCODING 1104
SWIDTH 568 0
DWIDTH 8 0
BBX 8 13 0 -2
BITMAP
00
00
10
08
00
3C
42
7C
80
84
78
00
00
ENDCHAR

STARTCHAR afii10071
ENCODING 1105
SWIDTH 568 0
DWIDTH 8 0
BBX 8 13 0 -2
BITMAP
00
00
24
24
00
3C
42
7C
80
84
78
00
00
ENDCHAR

STARTCHAR afii10099
ENCODING 1106
SWIDTH 568 0
DWIDTH 8 0
BBX 8 13 0 -2
BITMAP
00
00
20
7C
20
2C
32
22
44
44
44
04
08
ENDCHAR

STARTCHAR afii10100
ENCODING 1107
SWIDTH 568 0
DWIDTH 8 0
BBX 8 13 0 -2
BITMAP
00
00
08
10
00
7E
42
40
80
80
80
00
00
ENDCHAR

STARTCHAR afii10101
ENCODING 1108
SWIDTH 568 0
DWIDTH 8 0
BBX 8 13 0 -2
BITMAP
00
00
00
00
00
3E
40
70
80
80
7C
00
00
ENDCHAR

STARTCHAR afii10102
ENCODING 1109
SWIDTH 568 0
DWIDTH 8 0
BBX 8 13 0 -2
BITMAP
00
00
00
00
00
3C
42
20
18
84
78
00
00
ENDCHAR

STARTCHAR afii10103
ENCODING 1110
SWIDTH 568 0
DWIDTH 8 0
BBX 8 13 0 -2
BITMAP
00
00
00
08
00
18
08
08
10
10
38
00
00
ENDCHAR

STARTCHAR afii10104
ENCODING 1111
SWIDTH 568 0
DWIDTH 8 0
BBX 8 13 0 -2
BITMAP
00
00
24
24
00
18
08
08
10
10
7C
00
00
ENDCHAR

STARTCHAR afii10105
ENCODING 1112
SWIDTH 568 0
DWIDTH 8 0
BBX 8 13 0 -2
BITMAP
00
00
00
04
00
0C
04
04
08
08
48
48
30
ENDCHAR

STARTCHAR afii10106
ENCODING 1113
SWIDTH 568 0
DWIDTH 8 0
BBX 8 13 0 -2
BITMAP
00
00
00
00
00
38
48
4C
92
92
9C
00
00
ENDCHAR

STARTCHAR afii10107
ENCODING 1114
SWIDTH 568 0
DWIDTH 8 0
BBX 8 13 0 -2
BITMAP
00
00
00
00
00
48
48
7C
92
92
9C
00
00
ENDCHAR

STARTCHAR afii10108
ENCODING 1115
SWIDTH 568 0
DWIDTH 8 0
BBX 8 13 0 -2
BITMAP
00
00
20
7C
20
2C
32
22
44
44
44
00
00
ENDCHAR

STARTCHAR afii10109
ENCODING 1116
SWIDTH 568 0
DWIDTH 8 0
BBX 8 13 0 -2
BITMAP
00
00
08
10
00
22
24
38
48
44
44
00
00
ENDCHAR

STARTCHAR uni045D
ENCODING 1117
SWIDTH 568 0
DWIDTH 8 0
BBX 8 13 0 -2
BITMAP
00
00
10
08
00
42
46
5A
A4
C4
84
00
00
ENDCHAR

STARTCHAR afii10110
ENCODING 1118
SWIDTH 568 0
DWIDTH 8 0
BBX 8 13 0 -2
BITMAP
00
00
42
3C
00
42
42
84
8C
74
04
84
78
ENDCHAR

STARTCHAR afii10193
ENCODING 1119
SWIDTH 568 0
DWIDTH 8 0
BBX 8 13 0 -2
BITMAP
00
00
00
00
00
22
22
22
44
44
7C
10
10
ENDCHAR

STARTCHAR uni0460
ENCODING 1120
SWIDTH 568 0
DWIDTH 8 0
BBX 8 13 0 -2
BITMAP
00
00
36
41
41
41
41
92
92
92
6C
00
00
ENDCHAR

STARTCHAR uni0461
ENCODING 1121
SWIDTH 568 0
DWIDTH 8 0
BBX 8 13 0 -2
BITMAP
00
00
00
00
00
21
49
49
92
92
6C
00
00
ENDCHAR

STARTCHAR afii10146
ENCODING 1122
SWIDTH 568 0
DWIDTH 8 0
BBX 8 13 0 -2
BITMAP
00
00
10
7C
10
10
1C
22
22
22
3C
00
00
ENDCHAR

STARTCHAR afii10194
ENCODING 1123
SWIDTH 568 0
DWIDTH 8 0
BBX 8 13 0 -2
BITMAP
00
00
10
10
10
7C
10
1C
22
22
3C
00
00
ENDCHAR

STARTCHAR uni0464
ENCODING 1124
SWIDTH 568 0
DWIDTH 8 0
BBX 8 13 0 -2
BITMAP
00
00
47
48
48
48
7E
90
90
90
8E
00
00
ENDCHAR

STARTCHAR uni0465
ENCODING 1125
SWIDTH 568 0
DWIDTH 8 0
BBX 8 13 0 -2
BITMAP
00
00
00
00
00
47
48
7C
90
90
8E
00
00
ENDCHAR

STARTCHAR uni0466
ENCODING 1126
SWIDTH 568 0
DWIDTH 8 0
BBX 8 13 0 -2
BITMAP
00
00
08
14
14
22
42
6E
92
92
92
00
00
ENDCHAR

STARTCHAR uni0467
ENCODING 1127
SWIDTH 568 0
DWIDTH 8 0
BBX 8 13 0 -2
BITMAP
00
00
00
00
00
08
14
24
6C
92
92
00
00
ENDCHAR

STARTCHAR uni0468
ENCODING 1128
SWIDTH 568 0
DWIDTH 8 0
BBX 8 13 0 -2
BITMAP
00
00
48
48
54
54
A4
A4
D2
92
92
00
00
ENDCHAR

STARTCHAR uni0469
ENCODING 1129
SWIDTH 568 0
DWIDTH 8 0
BBX 8 13 0 -2
BITMAP
00
00
00
00
00
24
2A
2A
52
5A
6A
00
00
ENDCHAR

STARTCHAR uni046A
ENCODING 1130
SWIDTH 568 0
DWIDTH 8 0
BBX 8 13 0 -2
BITMAP
00
00
3E
22
22
24
38
54
92
92
92
00
00
ENDCHAR

STARTCHAR uni046B
ENCODING 1131
SWIDTH 568 0
DWIDTH 8 0
BBX 8 13 0 -2
BITMAP
00
00
00
00
00
1C
14
18
3C
52
92
00
00
ENDCHAR

STARTCHAR uni046C
ENCODING 1132
SWIDTH 568 0
DWIDTH 8 0
BBX 8 13 0 -2
BITMAP
00
00
5F
51
51
4A
7C
9C
AA
AA
AA
00
00
ENDCHAR

STARTCHAR uni046D
ENCODING 1133
SWIDTH 568 0
DWIDTH 8 0
BBX 8 13 0 -2
BITMAP
00
00
00
00
00
4E
4A
7C
9C
AA
AA
00
00
ENDCHAR

STARTCHAR uni046E
ENCODING 1134
SWIDTH 568 0
DWIDTH 8 0
BBX 8 13 0 -2
BITMAP
00
22
1C
00
3C
42
02
3C
04
04
78
80
70
ENDCHAR

STARTCHAR uni046F
ENCODING 1135
SWIDTH 568 0
DWIDTH 8 0
BBX 8 13 0 -2
BITMAP
00
22
1C
00
00
3C
42
38
04
04
78
80
70
ENDCHAR

STARTCHAR uni0470
ENCODING 1136
SWIDTH 568 0
DWIDTH 8 0
BBX 8 13 0 -2
BITMAP
00
00
49
49
49
92
92
7C
10
10
10
00
00
ENDCHAR

STARTCHAR uni0471
ENCODING 1137
SWIDTH 568 0
DWIDTH 8 0
BBX 8 13 0 -2
BITMAP
00
00
00
00
00
49
49
49
92
92
7C
10
10
ENDCHAR

STARTCHAR afii10147
ENCODING 1138
SWIDTH 568 0
DWIDTH 8 0
BBX 8 13 0 -2
BITMAP
00
00
3C
42
42
42
7C
84
84
84
78
00
00
ENDCHAR

STARTCHAR afii10195
ENCODING 1139
SWIDTH 568 0
DWIDTH 8 0
BBX 8 13 0 -2
BITMAP
00
00
00
00
00
3C
42
7C
84
84
78
00
00
ENDCHAR

STARTCHAR afii10148
ENCODING 1140
SWIDTH 568 0
DWIDTH 8 0
BBX 8 13 0 -2
BITMAP
00
00
42
44
44
48
48
50
50
20
20
00
00
ENDCHAR

STARTCHAR afii10196
ENCODING 1141
SWIDTH 568 0
DWIDTH 8 0
BBX 8 13 0 -2
BITMAP
00
00
00
00
00
42
44
48
50
50
20
00
00
ENDCHAR

STARTCHAR uni0476
ENCODING 1142
SWIDTH 568 0
DWIDTH 8 0
BBX 8 13 0 -2
BITMAP
00
48
24
00
42
44
48
50
50
20
20
00
00
ENDCHAR

STARTCHAR uni0477
ENCODING 1143
SWIDTH 568 0
DWIDTH 8 0
BBX 8 13 0 -2
BITMAP
00
00
48
24
00
42
44
48
50
50
20
00
00
ENDCHAR

STARTCHAR uni0478
ENCODING 1144
SWIDTH 568 0
DWIDTH 8 0
BBX 8 13 0 -2
BITMAP
00
00
20
50
50
55
55
AA
AA
AA
46
02
0C
ENDCHAR

STARTCHAR uni0479
ENCODING 1145
SWIDTH 568 0
DWIDTH 8 0
BBX 8 13 0 -2
BITMAP
00
00
00
00
00
25
55
55
AA
AA
46
02
0C
ENDCHAR

STARTCHAR uni047A
ENCODING 1146
SWIDTH 568 0
DWIDTH 8 0
BBX 8 13 0 -2
BITMAP
00
08
3E
49
41
41
41
82
82
92
7C
10
00
ENDCHAR

STARTCHAR uni047B
ENCODING 1147
SWIDTH 568 0
DWIDTH 8 0
BBX 8 13 0 -2
BITMAP
00
00
00
00
08
3E
49
41
82
92
7C
10
00
ENDCHAR

STARTCHAR uni047C
ENCODING 1148
SWIDTH 568 0
DWIDTH 8 0
BBX 8 13 0 -2
BITMAP
02
3E
20
00
36
41
49
49
92
92
6C
00
00
ENDCHAR

STARTCHAR uni047D
ENCODING 1149
SWIDTH 568 0
DWIDTH 8 0
BBX 8 13 0 -2
BITMAP
02
3E
20
00
00
36
41
49
92
92
6C
00
00
ENDCHAR

STARTCHAR uni047E
ENCODING 1150
SWIDTH 568 0
DWIDTH 8 0
BBX 8 13 0 -2
BITMAP
00
3E
08
00
36
41
49
49
92
92
6C
00
00
ENDCHAR

STARTCHAR uni047F
ENCODING 1151
SWIDTH 568 0
DWIDTH 8 0
BBX 8 13 0 -2
BITMAP
00
7C
10
00
00
92
92
94
A4
A8
50
00
00
ENDCHAR

STARTCHAR afii10050
ENCODING 1168
SWIDTH 568 0
DWIDTH 8 0
BBX 8 13 0 -2
BITMAP
00
02
7E
40
40
40
40
80
80
80
80
00
00
ENDCHAR

STARTCHAR afii10098
ENCODING 1169
SWIDTH 568 0
DWIDTH 8 0
BBX 8 13 0 -2
BITMAP
00
00
00
00
02
7E
40
40
80
80
80
00
00
ENDCHAR

STARTCHAR uni0E01
ENCODING 3585
SWIDTH 568 0
DWIDTH 8 0
BBX 8 13 0 -2
BITMAP
00
00
00
00
00
3C
42
22
44
44
44
00
00
ENDCHAR

STARTCHAR uni0E02
ENCODING 3586
SWIDTH 568 0
DWIDTH 8 0
BBX 8 13 0 -2
BITMAP
00
00
00
00
00
74
74
14
E8
88
70
00
00
ENDCHAR

STARTCHAR uni0E03
ENCODING 3587
SWIDTH 568 0
DWIDTH 8 0
BBX 8 13 0 -2
BITMAP
00
00
00
00
00
4A
7A
0A
74
44
38
00
00
ENDCHAR

STARTCHAR uni0E04
ENCODING 3588
SWIDTH 568 0
DWIDTH 8 0
BBX 8 13 0 -2
BITMAP
00
00
00
00
00
3C
42
5A
BC
A4
64
00
00
ENDCHAR

STARTCHAR uni0E05
ENCODING 3589
SWIDTH 568 0
DWIDTH 8 0
BBX 8 13 0 -2
BITMAP
00
00
00
00
00
34
4A
5A
BC
A4
64
00
00
ENDCHAR

STARTCHAR uni0E06
ENCODING 3590
SWIDTH 568 0
DWIDTH 8 0
BBX 8 13 0 -2
BITMAP
00
00
00
00
00
52
72
22
44
E4
D8
00
00
ENDCHAR

STARTCHAR uni0E07
ENCODING 3591
SWIDTH 568 0
DWIDTH 8 0
BBX 8 13 0 -2
BITMAP
00
00
00
00
00
0C
0C
84
48
48
30
00
00
ENDCHAR

STARTCHAR uni0E08
ENCODING 3592
SWIDTH 568 0
DWIDTH 8 0
BBX 8 13 0 -2
BITMAP
00
00
00
00
00
3C
42
32
34
14
18
00
00
ENDCHAR

STARTCHAR uni0E09
ENCODING 3593
SWIDTH 568 0
DWIDTH 8 0
BBX 8 13 0 -2
BITMAP
00
00
00
00
00
78
04
64
28
5C
6C
00
00
ENDCHAR

STARTCHAR uni0E0A
ENCODING 3594
SWIDTH 568 0
DWIDTH 8 0
BBX 8 13 0 -2
BITMAP
00
00
00
00
04
64
68
24
C8
88
70
00
00
ENDCHAR

STARTCHAR uni0E0B
ENCODING 3595
SWIDTH 568 0
DWIDTH 8 0
BBX 8 13 0 -2
BITMAP
00
00
00
00
02
52
74
22
44
44
38
00
00
ENDCHAR

STARTCHAR uni0E0C
ENCODING 3596
SWIDTH 568 0
DWIDTH 8 0
BBX 8 13 0 -2
BITMAP
00
00
00
00
00
39
45
65
8A
DE
DA
00
00
ENDCHAR

STARTCHAR uni0E0D
ENCODING 3597
SWIDTH 568 0
DWIDTH 8 0
BBX 8 13 0 -2
BITMAP
00
00
00
00
00
32
4A
6A
9C
D0
DC
00
00
ENDCHAR

STARTCHAR uni0E0E
ENCODING 3598
SWIDTH 568 0
DWIDTH 8 0
BBX 8 13 0 -2
BITMAP
00
00
00
00
00
3C
42
22
44
C4
D4
68
B8
ENDCHAR

STARTCHAR uni0E0F
ENCODING 3599
SWIDTH 568 0
DWIDTH 8 0
BBX 8 13 0 -2
BITMAP
00
00
00
00
00
3C
42
22
44
C4
D4
78
A8
ENDCHAR

STARTCHAR uni0E10
ENCODING 3600
SWIDTH 568 0
DWIDTH 8 0
BBX 8 13 0 -2
BITMAP
00
00
00
00
00
3C
40
30
68
68
18
50
B0
ENDCHAR

STARTCHAR uni0E11
ENCODING 3601
SWIDTH 568 0
DWIDTH 8 0
BBX 8 13 0 -2
BITMAP
00
00
00
00
00
54
7A
32
64
44
44
00
00
ENDCHAR

STARTCHAR uni0E12
ENCODING 3602
SWIDTH 568 0
DWIDTH 8 0
BBX 8 13 0 -2
BITMAP
00
00
00
00
00
29
55
45
EA
BE
DA
00
00
ENDCHAR

STARTCHAR uni0E13
ENCODING 3603
SWIDTH 568 0
DWIDTH 8 0
BBX 8 13 0 -2
BITMAP
00
00
00
00
00
32
4A
6A
94
DE
D6
00
00
ENDCHAR

STARTCHAR uni0E14
ENCODING 3604
SWIDTH 568 0
DWIDTH 8 0
BBX 8 13 0 -2
BITMAP
00
00
00
00
00
3C
42
72
B4
94
64
00
00
ENDCHAR

STARTCHAR uni0E15
ENCODING 3605
SWIDTH 568 0
DWIDTH 8 0
BBX 8 13 0 -2
BITMAP
00
00
00
00
00
34
4A
72
B4
94
64
00
00
ENDCHAR

STARTCHAR uni0E16
ENCODING 3606
SWIDTH 568 0
DWIDTH 8 0
BBX 8 13 0 -2
BITMAP
00
00
00
00
00
3C
42
22
44
64
64
00
00
ENDCHAR

STARTCHAR uni0E17
ENCODING 3607
SWIDTH 568 0
DWIDTH 8 0
BBX 8 13 0 -2
BITMAP
00
00
00
00
00
64
6A
32
64
44
44
00
00
ENDCHAR

STARTCHAR uni0E18
ENCODING 3608
SWIDTH 568 0
DWIDTH 8 0
BBX 8 13 0 -2
BITMAP
00
00
00
00
00
3C
40
30
48
48
30
00
00
ENDCHAR

STARTCHAR uni0E19
ENCODING 3609
SWIDTH 568 0
DWIDTH 8 0
BBX 8 13 0 -2
BITMAP
00
00
00
00
00
64
64
24
C8
9C
6C
00
00
ENDCHAR

STARTCHAR uni0E1A
ENCODING 3610
SWIDTH 568 0
DWIDTH 8 0
BBX 8 13 0 -2
BITMAP
00
00
00
00
00
62
62
22
44
44
38
00
00
ENDCHAR

STARTCHAR uni0E1B
ENCODING 3611
SWIDTH 568 0
DWIDTH 8 0
BBX 8 13 0 -2
BITMAP
00
00
00
01
01
62
62
22
44
44
38
00
00
ENDCHAR

STARTCHAR uni0E1C
ENCODING 3612
SWIDTH 568 0
DWIDTH 8 0
BBX 8 13 0 -2
BITMAP
00
00
00
00
00
62
62
42
94
94
68
00
00
ENDCHAR

STARTCHAR uni0E1D
ENCODING 3613
SWIDTH 568 0
DWIDTH 8 0
BBX 8 13 0 -2
BITMAP
00
00
00
01
01
62
62
42
94
94
68
00
00
ENDCHAR

STARTCHAR uni0E1E
ENCODING 3614
SWIDTH 568 0
DWIDTH 8 0
BBX 8 13 0 -2
BITMAP
00
00
00
00
00
6A
6A
2A
54
54
28
00
00
ENDCHAR

STARTCHAR uni0E1F
ENCODING 3615
SWIDTH 568 0
DWIDTH 8 0
BBX 8 13 0 -2
BITMAP
00
00
00
01
01
6A
6A
2A
54
54
28
00
00
ENDCHAR

STARTCHAR uni0E20
ENCODING 3616
SWIDTH 568 0
DWIDTH 8 0
BBX 8 13 0 -2
BITMAP
00
00
00
00
00
3C
42
22
44
C4
C4
00
00
ENDCHAR

STARTCHAR uni0E21
ENCODING 3617
SWIDTH 568 0
DWIDTH 8 0
BBX 8 13 0 -2
BITMAP
00
00
00
00
00
62
62
22
44
E4
D8
00
00
ENDCHAR

STARTCHAR uni0E22
ENCODING 3618
SWIDTH 568 0
DWIDTH 8 0
BBX 8 13 0 -2
BITMAP
00
00
00
00
00
62
62
42
64
84
78
00
00
ENDCHAR

STARTCHAR uni0E23
ENCODING 3619
SWIDTH 568 0
DWIDTH 8 0
BBX 8 13 0 -2
BITMAP
00
00
00
00
00
3C
40
70
08
30
30
00
00
ENDCHAR

STARTCHAR uni0E24
ENCODING 3620
SWIDTH 568 0
DWIDTH 8 0
BBX 8 13 0 -2
BITMAP
00
00
00
00
00
3C
42
22
44
64
64
08
08
ENDCHAR

STARTCHAR uni0E25
ENCODING 3621
SWIDTH 568 0
DWIDTH 8 0
BBX 8 13 0 -2
BITMAP
00
00
00
00
00
3C
42
3A
44
64
64
00
00
ENDCHAR

STARTCHAR uni0E26
ENCODING 3622
SWIDTH 568 0
DWIDTH 8 0
BBX 8 13 0 -2
BITMAP
00
00
00
00
00
3C
42
22
44
C4
C4
08
08
ENDCHAR

STARTCHAR uni0E27
ENCODING 3623
SWIDTH 568 0
DWIDTH 8 0
BBX 8 13 0 -2
BITMAP
00
00
00
00
00
3C
42
02
04
0C
0C
00
00
ENDCHAR

STARTCHAR uni0E28
ENCODING 3624
SWIDTH 568 0
DWIDTH 8 0
BBX 8 13 0 -2
BITMAP
00
00
00
01
01
3E
42
5A
BC
A4
64
00
00
ENDCHAR

STARTCHAR uni0E29
ENCODING 3625
SWIDTH 568 0
DWIDTH 8 0
BBX 8 13 0 -2
BITMAP
00
00
00
00
00
62
62
32
5C
44
38
00
00
ENDCHAR

STARTCHAR uni0E2A
ENCODING 3626
SWIDTH 568 0
DWIDTH 8 0
BBX 8 13 0 -2
BITMAP
00
00
00
01
01
3E
42
3A
44
64
64
00
00
ENDCHAR

STARTCHAR uni0E2B
ENCODING 3627
SWIDTH 568 0
DWIDTH 8 0
BBX 8 13 0 -2
BITMAP
00
00
00
00
00
66
66
2C
54
64
44
00
00
ENDCHAR

STARTCHAR uni0E2C
ENCODING 3628
SWIDTH 568 0
DWIDTH 8 0
BBX 8 13 0 -2
BITMAP
00
00
00
02
02
6C
62
2A
54
54
28
00
00
ENDCHAR

STARTCHAR uni0E2D
ENCODING 3629
SWIDTH 568 0
DWIDTH 8 0
BBX 8 13 0 -2
BITMAP
00
00
00
00
00
3C
42
32
74
44
38
00
00
ENDCHAR

STARTCHAR uni0E2E
ENCODING 3630
SWIDTH 568 0
DWIDTH 8 0
BBX 8 13 0 -2
BITMAP
00
00
00
01
01
3E
7A
32
74
44
38
00
00
ENDCHAR

STARTCHAR uni0E2F
ENCODING 3631
SWIDTH 568 0
DWIDTH 8 0
BBX 8 13 0 -2
BITMAP
00
00
00
00
00
6C
74
04
08
08
30
00
00
ENDCHAR

STARTCHAR uni0E30
ENCODING 3632
SWIDTH 568 0
DWIDTH 8 0
BBX 8 13 0 -2
BITMAP
00
00
00
00
00
00
34
38
00
68
70
00
00
ENDCHAR

STARTCHAR uni0E31
ENCODING 3633
SWIDTH 568 0
DWIDTH 8 0
BBX 8 13 0 -2
BITMAP
00
00
20
3E
00
00
00
00
00
00
00
00
00
ENDCHAR

STARTCHAR uni0E32
ENCODING 3634
SWIDTH 568 0
DWIDTH 8 0
BBX 8 13 0 -2
BITMAP
00
00
00
00
00
3C
42
02
04
04
04
00
00
ENDCHAR

STARTCHAR uni0E33
ENCODING 3635
SWIDTH 568 0
DWIDTH 8 0
BBX 8 13 0 -2
BITMAP
00
00
00
60
60
1C
22
02
04
04
04
00
00
ENDCHAR

STARTCHAR uni0E34
ENCODING 3636
SWIDTH 568 0
DWIDTH 8 0
BBX 8 13 0 -2
BITMAP
00
00
00
3F
00
00
00
00
00
00
00
00
00
ENDCHAR

STARTCHAR uni0E35
ENCODING 3637
SWIDTH 568 0
DWIDTH 8 0
BBX 8 13 0 -2
BITMAP
00
00
01
3F
00
00
00
00
00
00
00
00
00
ENDCHAR

STARTCHAR uni0E36
ENCODING 3638
SWIDTH 568 0
DWIDTH 8 0
BBX 8 13 0 -2
BITMAP
00
00
03
3F
00
00
00
00
00
00
00
00
00
ENDCHAR

STARTCHAR uni0E37
ENCODING 3639
SWIDTH 568 0
DWIDTH 8 0
BBX 8 13 0 -2
BITMAP
00
00
05
3F
00
00
00
00
00
00
00
00
00
ENDCHAR

STARTCHAR uni0E38
ENCODING 3640
SWIDTH 568 0
DWIDTH 8 0
BBX 8 13 0 -2
BITMAP
00
00
00
00
00
00
00
00
00
00
00
18
08
ENDCHAR

STARTCHAR uni0E39
ENCODING 3641
SWIDTH 568 0
DWIDTH 8 0
BBX 8 13 0 -2
BITMAP
00
00
00
00
00
00
00
00
00
00
00
68
38
ENDCHAR

STARTCHAR uni0E3A
ENCODING 3642
SWIDTH 568 0
DWIDTH 8 0
BBX 8 13 0 -2
BITMAP
00
00
00
00
00
00
00
00
00
00
00
30
30
ENDCHAR

STARTCHAR uni0E3F
ENCODING 3647
SWIDTH 568 0
DWIDTH 8 0
BBX 8 13 0 -2
BITMAP
00
00
00
14
7C
56
56
7C
AC
AC
F8
50
00
ENDCHAR

STARTCHAR uni0E40
ENCODING 3648
SWIDTH 568 0
DWIDTH 8 0
BBX 8 13 0 -2
BITMAP
00
00
00
00
00
10
10
10
20
30
30
00
00
ENDCHAR

STARTCHAR uni0E41
ENCODING 3649
SWIDTH 568 0
DWIDTH 8 0
BBX 8 13 0 -2
BITMAP
00
00
00
00
00
24
24
24
48
6C
6C
00
00
ENDCHAR

STARTCHAR uni0E42
ENCODING 3650
SWIDTH 568 0
DWIDTH 8 0
BBX 8 13 0 -2
BITMAP
00
00
00
1F
20
3C
04
04
08
0C
0C
00
00
ENDCHAR

STARTCHAR uni0E43
ENCODING 3651
SWIDTH 568 0
DWIDTH 8 0
BBX 8 13 0 -2
BITMAP
00
00
00
1C
22
54
34
04
08
0C
0C
00
00
ENDCHAR

STARTCHAR uni0E44
ENCODING 3652
SWIDTH 568 0
DWIDTH 8 0
BBX 8 13 0 -2
BITMAP
00
00
00
36
0A
04
04
04
08
0C
0C
00
00
ENDCHAR

STARTCHAR uni0E45
ENCODING 3653
SWIDTH 568 0
DWIDTH 8 0
BBX 8 13 0 -2
BITMAP
00
00
00
00
00
3C
42
02
04
04
04
08
08
ENDCHAR

STARTCHAR uni0E46
ENCODING 3654
SWIDTH 568 0
DWIDTH 8 0
BBX 8 13 0 -2
BITMAP
00
00
00
00
00
74
6A
02
04
04
04
08
30
ENDCHAR

STARTCHAR uni0E47
ENCODING 3655
SWIDTH 568 0
DWIDTH 8 0
BBX 8 13 0 -2
BITMAP
01
1E
2A
16
00
00
00
00
00
00
00
00
00
ENDCHAR

STARTCHAR uni0E48
ENCODING 3656
SWIDTH 568 0
DWIDTH 8 0
BBX 8 13 0 -2
BITMAP
01
01
00
00
00
00
00
00
00
00
00
00
00
ENDCHAR

STARTCHAR uni0E49
ENCODING 3657
SWIDTH 568 0
DWIDTH 8 0
BBX 8 13 0 -2
BITMAP
0D
06
00
00
00
00
00
00
00
00
00
00
00
ENDCHAR

STARTCHAR uni0E4A
ENCODING 3658
SWIDTH 568 0
DWIDTH 8 0
BBX 8 13 0 -2
BITMAP
15
1E
00
00
00
00
00
00
00
00
00
00
00
ENDCHAR

STARTCHAR uni0E4B
ENCODING 3659
SWIDTH 568 0
DWIDTH 8 0
BBX 8 13 0 -2
BITMAP
02
07
02
00
00
00
00
00
00
00
00
00
00
ENDCHAR

STARTCHAR uni0E4C
ENCODING 3660
SWIDTH 568 0
DWIDTH 8 0
BBX 8 13 0 -2
BITMAP
03
02
00
00
00
00
00
00
00
00
00
00
00
ENDCHAR

STARTCHAR uni0E4D
ENCODING 3661
SWIDTH 568 0
DWIDTH 8 0
BBX 8 13 0 -2
BITMAP
03
03
00
00
00
00
00
00
00
00
00
00
00
ENDCHAR

STARTCHAR uni0E4E
ENCODING 3662
SWIDTH 568 0
DWIDTH 8 0
BBX 8 13 0 -2
BITMAP
07
04
08
0C
00
00
00
00
00
00
00
00
00
ENDCHAR

STARTCHAR uni0E4F
ENCODING 3663
SWIDTH 568 0
DWIDTH 8 0
BBX 8 13 0 -2
BITMAP
00
00
00
00
00
00
38
44
A8
88
70
00
00
ENDCHAR

STARTCHAR uni0E50
ENCODING 3664
SWIDTH 568 0
DWIDTH 8 0
BBX 8 13 0 -2
BITMAP
00
00
00
00
00
00
3C
42
84
84
78
00
00
ENDCHAR

STARTCHAR uni0E51
ENCODING 3665
SWIDTH 568 0
DWIDTH 8 0
BBX 8 13 0 -2
BITMAP
00
00
00
00
00
00
3C
5A
74
04
78
00
00
ENDCHAR

STARTCHAR uni0E52
ENCODING 3666
SWIDTH 568 0
DWIDTH 8 0
BBX 8 13 0 -2
BITMAP
00
00
00
00
20
20
4A
56
B4
B4
78
00
00
ENDCHAR

STARTCHAR uni0E53
ENCODING 3667
SWIDTH 568 0
DWIDTH 8 0
BBX 8 13 0 -2
BITMAP
00
00
00
00
00
00
34
4A
94
D4
D4
00
00
ENDCHAR

STARTCHAR uni0E54
ENCODING 3668
SWIDTH 568 0
DWIDTH 8 0
BBX 8 13 0 -2
BITMAP
00
00
00
00
02
02
3C
40
98
98
7C
00
00
ENDCHAR

STARTCHAR uni0E55
ENCODING 3669
SWIDTH 568 0
DWIDTH 8 0
BBX 8 13 0 -2
BITMAP
00
00
00
00
02
1A
3C
40
98
98
7C
00
00
ENDCHAR

STARTCHAR uni0E56
ENCODING 3670
SWIDTH 568 0
DWIDTH 8 0
BBX 8 13 0 -2
BITMAP
00
00
00
00
00
40
2C
12
04
34
38
00
00
ENDCHAR

STARTCHAR uni0E57
ENCODING 3671
SWIDTH 568 0
DWIDTH 8 0
BBX 8 13 0 -2
BITMAP
00
00
00
00
01
01
2A
5A
94
94
C8
00
00
ENDCHAR

STARTCHAR uni0E58
ENCODING 3672
SWIDTH 568 0
DWIDTH 8 0
BBX 8 13 0 -2
BITMAP
00
00
00
00
00
02
3C
40
8C
EC
58
00
00
ENDCHAR

STARTCHAR uni0E59
ENCODING 3673
SWIDTH 568 0
DWIDTH 8 0
BBX 8 13 0 -2
BITMAP
00
00
00
00
01
01
0E
78
90
E8
64
00
00
ENDCHAR

STARTCHAR uni0E5A
ENCODING 3674
SWIDTH 568 0
DWIDTH 8 0
BBX 8 13 0 -2
BITMAP
00
00
00
00
00
6A
7A
0A
14
14
68
00
00
ENDCHAR

STARTCHAR uni0E5B
ENCODING 3675
SWIDTH 568 0
DWIDTH 8 0
BBX 8 13 0 -2
BITMAP
00
00
00
00
00
60
60
56
B8
A0
40
00
00
ENDCHAR

STARTCHAR uni1E00
ENCODING 7680
SWIDTH 568 0
DWIDTH 8 0
BBX 8 13 0 -2
BITMAP
00
00
18
24
42
42
42
7C
84
84
30
48
30
ENDCHAR

STARTCHAR uni1E01
ENCODING 7681
SWIDTH 568 0
DWIDTH 8 0
BBX 8 13 0 -2
BITMAP
00
00
00
00
3C
02
7C
84
8C
74
30
48
30
ENDCHAR

STARTCHAR uni1E02
ENCODING 7682
SWIDTH 568 0
DWIDTH 8 0
BBX 8 13 0 -2
BITMAP
00
18
00
7C
42
42
7C
84
84
84
F8
00
00
ENDCHAR

STARTCHAR uni1E03
ENCODING 7683
SWIDTH 568 0
DWIDTH 8 0
BBX 8 13 0 -2
BITMAP
00
08
40
40
40
5C
62
42
84
C4
B8
00
00
ENDCHAR

STARTCHAR uni1E04
ENCODING 7684
SWIDTH 568 0
DWIDTH 8 0
BBX 8 13 0 -2
BITMAP
00
00
78
44
42
44
78
84
84
88
F0
00
30
ENDCHAR

STARTCHAR uni1E05
ENCODING 7685
SWIDTH 568 0
DWIDTH 8 0
BBX 8 13 0 -2
BITMAP
00
00
40
40
40
5C
62
42
84
C4
B8
00
30
ENDCHAR

STARTCHAR uni1E06
ENCODING 7686
SWIDTH 568 0
DWIDTH 8 0
BBX 8 13 0 -2
BITMAP
00
00
78
44
42
44
78
88
84
88
F0
00
F8
ENDCHAR

STARTCHAR uni1E07
ENCODING 7687
SWIDTH 568 0
DWIDTH 8 0
BBX 8 13 0 -2
BITMAP
00
00
40
40
40
5C
62
42
84
C4
B8
00
FC
ENDCHAR

STARTCHAR uni1E08
ENCODING 7688
SWIDTH 568 0
DWIDTH 8 0
BBX 8 13 0 -2
BITMAP
00
08
10
00
3C
42
40
80
80
84
78
10
20
ENDCHAR

STARTCHAR uni1E09
ENCODING 7689
SWIDTH 568 0
DWIDTH 8 0
BBX 8 13 0 -2
BITMAP
00
00
08
10
00
3C
42
80
80
84
78
10
20
ENDCHAR

STARTCHAR uni1E0A
ENCODING 7690
SWIDTH 568 0
DWIDTH 8 0
BBX 8 13 0 -2
BITMAP
00
18
00
78
44
42
42
84
84
88
F0
00
00
ENDCHAR

STARTCHAR uni1E0B
ENCODING 7691
SWIDTH 568 0
DWIDTH 8 0
BBX 8 13 0 -2
BITMAP
00
18
02
02
02
3A
44
84
84
8C
74
00
00
ENDCHAR

STARTCHAR uni1E0C
ENCODING 7692
SWIDTH 568 0
DWIDTH 8 0
BBX 8 13 0 -2
BITMAP
00
00
78
44
42
42
42
84
84
88
F0
00
30
ENDCHAR

STARTCHAR uni1E0D
ENCODING 7693
SWIDTH 568 0
DWIDTH 8 0
BBX 8 13 0 -2
BITMAP
00
00
02
02
02
3A
44
84
84
8C
74
00
30
ENDCHAR

STARTCHAR uni1E0E
ENCODING 7694
SWIDTH 568 0
DWIDTH 8 0
BBX 8 13 0 -2
BITMAP
00
00
78
44
42
42
42
84
84
88
F0
00
F8
ENDCHAR

STARTCHAR uni1E0F
ENCODING 7695
SWIDTH 568 0
DWIDTH 8 0
BBX 8 13 0 -2
BITMAP
00
00
02
02
02
3A
44
84
84
8C
74
00
FC
ENDCHAR

STARTCHAR uni1E10
ENCODING 7696
SWIDTH 568 0
DWIDTH 8 0
BBX 8 13 0 -2
BITMAP
00
00
78
44
42
42
42
84
84
88
F0
10
20
ENDCHAR

STARTCHAR uni1E11
ENCODING 7697
SWIDTH 568 0
DWIDTH 8 0
BBX 8 13 0 -2
BITMAP
00
00
02
02
02
3A
44
84
84
8C
74
10
20
ENDCHAR

STARTCHAR uni1E12
ENCODING 7698
SWIDTH 568 0
DWIDTH 8 0
BBX 8 13 0 -2
BITMAP
00
00
78
44
42
42
42
84
84
88
F0
30
48
ENDCHAR

STARTCHAR uni1E13
ENCODING 7699
SWIDTH 568 0
DWIDTH 8 0
BBX 8 13 0 -2
BITMAP
00
00
02
02
3A
44
84
84
8C
74
00
30
48
ENDCHAR

STARTCHAR uni1E14
ENCODING 7700
SWIDTH 568 0
DWIDTH 8 0
BBX 8 13 0 -2
BITMAP
10
08
3C
00
7E
40
40
70
80
80
FC
00
00
ENDCHAR

STARTCHAR uni1E15
ENCODING 7701
SWIDTH 568 0
DWIDTH 8 0
BBX 8 13 0 -2
BITMAP
10
08
00
3C
00
3C
42
7C
80
84
78
00
00
ENDCHAR

STARTCHAR uni1E16
ENCODING 7702
SWIDTH 568 0
DWIDTH 8 0
BBX 8 13 0 -2
BITMAP
08
10
3C
00
7E
40
40
70
80
80
FC
00
00
ENDCHAR

STARTCHAR uni1E17
ENCODING 7703
SWIDTH 568 0
DWIDTH 8 0
BBX 8 13 0 -2
BITMAP
08
10
00
3C
00
3C
42
7C
80
84
78
00
00
ENDCHAR

STARTCHAR uni1E18
ENCODING 7704
SWIDTH 568 0
DWIDTH 8 0
BBX 8 13 0 -2
BITMAP
00
00
7E
40
40
78
80
80
80
FC
00
30
48
ENDCHAR

STARTCHAR uni1E19
ENCODING 7705
SWIDTH 568 0
DWIDTH 8 0
BBX 8 13 0 -2
BITMAP
00
00
00
00
3C
42
7C
80
84
78
00
30
48
ENDCHAR

STARTCHAR uni1E1A
ENCODING 7706
SWIDTH 568 0
DWIDTH 8 0
BBX 8 13 0 -2
BITMAP
00
00
7E
40
40
78
80
80
80
FC
00
64
98
ENDCHAR

STARTCHAR uni1E1B
ENCODING 7707
SWIDTH 568 0
DWIDTH 8 0
BBX 8 13 0 -2
BITMAP
00
00
00
00
3C
42
7C
80
84
78
00
64
98
ENDCHAR

STARTCHAR uni1E1C
ENCODING 7708
SWIDTH 568 0
DWIDTH 8 0
BBX 8 13 0 -2
BITMAP
00
42
3C
00
7E
40
40
70
80
80
FC
10
20
ENDCHAR

STARTCHAR uni1E1D
ENCODING 7709
SWIDTH 568 0
DWIDTH 8 0
BBX 8 13 0 -2
BITMAP
00
00
42
3C
00
3C
42
7C
80
84
78
10
20
ENDCHAR

STARTCHAR uni1E1E
ENCODING 7710
SWIDTH 568 0
DWIDTH 8 0
BBX 8 13 0 -2
BITMAP
00
18
00
7E
40
40
78
80
80
80
80
00
00
ENDCHAR

STARTCHAR uni1E1F
ENCODING 7711
SWIDTH 568 0
DWIDTH 8 0
BBX 8 13 0 -2
BITMAP
00
18
00
1C
22
20
7C
20
40
40
40
00
00
ENDCHAR

STARTCHAR uni1E20
ENCODING 7712
SWIDTH 568 0
DWIDTH 8 0
BBX 8 13 0 -2
BITMAP
00
7E
00
3C
42
40
40
9C
84
8C
74
00
00
ENDCHAR

STARTCHAR uni1E21
ENCODING 7713
SWIDTH 568 0
DWIDTH 8 0
BBX 8 13 0 -2
BITMAP
00
00
00
7E
00
3A
44
88
70
80
78
84
78
ENDCHAR

STARTCHAR uni1E22
ENCODING 7714
SWIDTH 568 0
DWIDTH 8 0
BBX 8 13 0 -2
BITMAP
00
18
00
42
42
42
7C
84
84
84
84
00
00
ENDCHAR

STARTCHAR uni1E23
ENCODING 7715
SWIDTH 568 0
DWIDTH 8 0
BBX 8 13 0 -2
BITMAP
00
08
40
40
40
5C
62
42
84
84
84
00
00
ENDCHAR

STARTCHAR uni1E24
ENCODING 7716
SWIDTH 568 0
DWIDTH 8 0
BBX 8 13 0 -2
BITMAP
00
00
42
42
42
42
7C
84
84
84
84
00
30
ENDCHAR

STARTCHAR uni1E25
ENCODING 7717
SWIDTH 568 0
DWIDTH 8 0
BBX 8 13 0 -2
BITMAP
00
00
40
40
40
5C
62
42
84
84
84
00
30
ENDCHAR

STARTCHAR uni1E26
ENCODING 7718
SWIDTH 568 0
DWIDTH 8 0
BBX 8 13 0 -2
BITMAP
00
24
24
00
42
42
42
7C
84
84
84
00
00
ENDCHAR

STARTCHAR uni1E27
ENCODING 7719
SWIDTH 568 0
DWIDTH 8 0
BBX 8 13 0 -2
BITMAP
00
24
24
00
40
40
5C
62
42
84
84
00
00
ENDCHAR

STARTCHAR uni1E28
ENCODING 7720
SWIDTH 568 0
DWIDTH 8 0
BBX 8 13 0 -2
BITMAP
00
00
42
42
42
42
7C
84
84
84
84
08
10
ENDCHAR

STARTCHAR uni1E29
ENCODING 7721
SWIDTH 568 0
DWIDTH 8 0
BBX 8 13 0 -2
BITMAP
00
00
20
20
40
5C
62
42
84
84
84
08
10
ENDCHAR

STARTCHAR uni1E2A
ENCODING 7722
SWIDTH 568 0
DWIDTH 8 0
BBX 8 13 0 -2
BITMAP
00
00
42
42
42
7C
84
84
84
84
00
84
78
ENDCHAR

STARTCHAR uni1E2B
ENCODING 7723
SWIDTH 568 0
DWIDTH 8 0
BBX 8 13 0 -2
BITMAP
00
00
20
20
40
5C
62
42
84
84
00
84
78
ENDCHAR

STARTCHAR uni1E2C
ENCODING 7724
SWIDTH 568 0
DWIDTH 8 0
BBX 8 13 0 -2
BITMAP
00
00
3E
08
08
08
10
10
10
7C
00
64
98
ENDCHAR

STARTCHAR uni1E2D
ENCODING 7725
SWIDTH 568 0
DWIDTH 8 0
BBX 8 13 0 -2
BITMAP
00
00
00
0C
00
0C
04
08
08
3E
00
32
4C
ENDCHAR

STARTCHAR uni1E2E
ENCODING 7726
SWIDTH 568 0
DWIDTH 8 0
BBX 8 13 0 -2
BITMAP
04
08
22
00
3E
08
08
10
10
10
7C
00
00
ENDCHAR

STARTCHAR uni1E2F
ENCODING 7727
SWIDTH 568 0
DWIDTH 8 0
BBX 8 13 0 -2
BITMAP
04
08
00
24
00
18
08
08
10
10
7C
00
00
ENDCHAR

STARTCHAR uni1E30
ENCODING 7728
SWIDTH 568 0
DWIDTH 8 0
BBX 8 13 0 -2
BITMAP
08
10
42
44
48
50
60
A0
90
88
84
00
00
ENDCHAR

STARTCHAR uni1E31
ENCODING 7729
SWIDTH 568 0
DWIDTH 8 0
BBX 8 13 0 -2
BITMAP
00
02
24
20
20
22
2C
30
48
44
42
00
00
ENDCHAR

STARTCHAR uni1E32
ENCODING 7730
SWIDTH 568 0
DWIDTH 8 0
BBX 8 13 0 -2
BITMAP
00
00
42
44
48
50
60
A0
90
88
84
00
30
ENDCHAR

STARTCHAR uni1E33
ENCODING 7731
SWIDTH 568 0
DWIDTH 8 0
BBX 8 13 0 -2
BITMAP
00
00
20
20
20
22
2C
30
48
44
42
00
18
ENDCHAR

STARTCHAR uni1E34
ENCODING 7732
SWIDTH 568 0
DWIDTH 8 0
BBX 8 13 0 -2
BITMAP
00
00
42
44
48
50
60
A0
90
88
84
00
FC
ENDCHAR

STARTCHAR uni1E35
ENCODING 7733
SWIDTH 568 0
DWIDTH 8 0
BBX 8 13 0 -2
BITMAP
00
00
20
20
20
22
2C
30
48
44
42
00
7E
ENDCHAR

STARTCHAR uni1E36
ENCODING 7734
SWIDTH 568 0
DWIDTH 8 0
BBX 8 13 0 -2
BITMAP
00
00
20
20
20
20
20
40
40
40
7E
00
18
ENDCHAR

STARTCHAR uni1E37
ENCODING 7735
SWIDTH 568 0
DWIDTH 8 0
BBX 8 13 0 -2
BITMAP
00
00
18
08
08
08
08
10
10
10
7C
00
18
ENDCHAR

STARTCHAR uni1E38
ENCODING 7736
SWIDTH 568 0
DWIDTH 8 0
BBX 8 13 0 -2
BITMAP
00
7E
00
40
40
40
40
80
80
80
FC
00
30
ENDCHAR

STARTCHAR uni1E39
ENCODING 7737
SWIDTH 568 0
DWIDTH 8 0
BBX 8 13 0 -2
BITMAP
00
3E
00
18
08
08
08
10
10
10
7C
00
18
ENDCHAR

STARTCHAR uni1E3A
ENCODING 7738
SWIDTH 568 0
DWIDTH 8 0
BBX 8 13 0 -2
BITMAP
00
00
20
20
20
20
20
40
40
40
7E
00
7E
ENDCHAR

STARTCHAR uni1E3B
ENCODING 7739
SWIDTH 568 0
DWIDTH 8 0
BBX 8 13 0 -2
BITMAP
00
00
18
08
08
08
08
10
10
10
7C
00
7C
ENDCHAR

STARTCHAR uni1E3C
ENCODING 7740
SWIDTH 568 0
DWIDTH 8 0
BBX 8 13 0 -2
BITMAP
00
00
20
20
20
20
40
40
40
7E
00
18
24
ENDCHAR

STARTCHAR uni1E3D
ENCODING 7741
SWIDTH 568 0
DWIDTH 8 0
BBX 8 13 0 -2
BITMAP
00
00
18
08
08
08
10
10
10
7C
00
10
28
ENDCHAR

STARTCHAR uni1E3E
ENCODING 7742
SWIDTH 568 0
DWIDTH 8 0
BBX 8 13 0 -2
BITMAP
00
04
08
41
63
55
49
92
82
82
82
00
00
ENDCHAR

STARTCHAR uni1E3F
ENCODING 7743
SWIDTH 568 0
DWIDTH 8 0
BBX 8 13 0 -2
BITMAP
00
00
04
08
00
76
49
49
92
92
82
00
00
ENDCHAR

STARTCHAR uni1E40
ENCODING 7744
SWIDTH 568 0
DWIDTH 8 0
BBX 8 13 0 -2
BITMAP
00
18
00
41
63
55
49
82
82
82
82
00
00
ENDCHAR

STARTCHAR uni1E41
ENCODING 7745
SWIDTH 568 0
DWIDTH 8 0
BBX 8 13 0 -2
BITMAP
00
00
08
08
00
76
49
49
92
92
82
00
00
ENDCHAR

STARTCHAR uni1E42
ENCODING 7746
SWIDTH 568 0
DWIDTH 8 0
BBX 8 13 0 -2
BITMAP
00
00
41
41
63
55
49
92
82
82
82
10
10
ENDCHAR

STARTCHAR uni1E43
ENCODING 7747
SWIDTH 568 0
DWIDTH 8 0
BBX 8 13 0 -2
BITMAP
00
00
00
00
00
76
49
49
92
92
82
10
10
ENDCHAR

STARTCHAR uni1E44
ENCODING 7748
SWIDTH 568 0
DWIDTH 8 0
BBX 8 13 0 -2
BITMAP
00
18
00
42
42
62
52
94
8C
84
84
00
00
ENDCHAR

STARTCHAR uni1E45
ENCODING 7749
SWIDTH 568 0
DWIDTH 8 0
BBX 8 13 0 -2
BITMAP
00
00
00
18
00
5C
62
42
84
84
84
00
00
ENDCHAR

STARTCHAR uni1E46
ENCODING 7750
SWIDTH 568 0
DWIDTH 8 0
BBX 8 13 0 -2
BITMAP
00
00
42
42
62
52
4A
8C
84
84
84
00
30
ENDCHAR

STARTCHAR uni1E47
ENCODING 7751
SWIDTH 568 0
DWIDTH 8 0
BBX 8 13 0 -2
BITMAP
00
00
00
00
00
5C
62
42
84
84
84
00
30
ENDCHAR

STARTCHAR uni1E48
ENCODING 7752
SWIDTH 568 0
DWIDTH 8 0
BBX 8 13 0 -2
BITMAP
00
00
42
42
62
52
4A
8C
84
84
84
00
FC
ENDCHAR

STARTCHAR uni1E49
ENCODING 7753
SWIDTH 568 0
DWIDTH 8 0
BBX 8 13 0 -2
BITMAP
00
00
00
00
00
5C
62
42
84
84
84
00
FC
ENDCHAR

STARTCHAR uni1E4A
ENCODING 7754
SWIDTH 568 0
DWIDTH 8 0
BBX 8 13 0 -2
BITMAP
00
00
42
42
62
52
4A
8C
84
84
00
30
48
ENDCHAR

STARTCHAR uni1E4B
ENCODING 7755
SWIDTH 568 0
DWIDTH 8 0
BBX 8 13 0 -2
BITMAP
00
00
00
00
00
5C
62
42
84
84
84
30
48
ENDCHAR

STARTCHAR uni1E4C
ENCODING 7756
SWIDTH 568 0
DWIDTH 8 0
BBX 8 13 0 -2
BITMAP
02
04
19
26
00
3E
41
41
82
82
7C
00
00
ENDCHAR

STARTCHAR uni1E4D
ENCODING 7757
SWIDTH 568 0
DWIDTH 8 0
BBX 8 13 0 -2
BITMAP
04
08
00
32
4C
00
3C
42
82
84
78
00
00
ENDCHAR

STARTCHAR uni1E4E
ENCODING 7758
SWIDTH 568 0
DWIDTH 8 0
BBX 8 13 0 -2
BITMAP
12
00
19
26
00
3E
41
41
82
82
7C
00
00
ENDCHAR

STARTCHAR uni1E4F
ENCODING 7759
SWIDTH 568 0
DWIDTH 8 0
BBX 8 13 0 -2
BITMAP
00
24
00
32
4C
00
3C
42
82
84
78
00
00
ENDCHAR

STARTCHAR uni1E50
ENCODING 7760
SWIDTH 568 0
DWIDTH 8 0
BBX 8 13 0 -2
BITMAP
10
08
3E
00
3E
41
41
82
82
82
7C
00
00
ENDCHAR

STARTCHAR uni1E51
ENCODING 7761
SWIDTH 568 0
DWIDTH 8 0
BBX 8 13 0 -2
BITMAP
20
10
00
3C
00
3C
42
42
84
84
78
00
00
ENDCHAR

STARTCHAR uni1E52
ENCODING 7762
SWIDTH 568 0
DWIDTH 8 0
BBX 8 13 0 -2
BITMAP
04
08
3E
00
3E
41
41
82
82
82
7C
00
00
ENDCHAR

STARTCHAR uni1E53
ENCODING 7763
SWIDTH 568 0
DWIDTH 8 0
BBX 8 13 0 -2
BITMAP
04
08
00
3C
00
3C
42
42
84
84
78
00
00
ENDCHAR

STARTCHAR uni1E54
ENCODING 7764
SWIDTH 568 0
DWIDTH 8 0
BBX 8 13 0 -2
BITMAP
00
08
10
00
7C
42
42
7C
80
80
80
00
00
ENDCHAR

STARTCHAR uni1E55
ENCODING 7765
SWIDTH 568 0
DWIDTH 8 0
BBX 8 13 0 -2
BITMAP
00
00
08
10
00
5C
62
42
44
B8
80
80
80
ENDCHAR

STARTCHAR uni1E56
ENCODING 7766
SWIDTH 568 0
DWIDTH 8 0
BBX 8 13 0 -2
BITMAP
00
18
00
7C
42
42
7C
80
80
80
80
00
00
ENDCHAR

STARTCHAR uni1E57
ENCODING 7767
SWIDTH 568 0
DWIDTH 8 0
BBX 8 13 0 -2
BITMAP
00
00
00
18
00
5C
62
42
44
B8
80
80
80
ENDCHAR

STARTCHAR uni1E58
ENCODING 7768
SWIDTH 568 0
DWIDTH 8 0
BBX 8 13 0 -2
BITMAP
00
18
00
7C
42
42
7C
A0
90
88
84
00
00
ENDCHAR

STARTCHAR uni1E59
ENCODING 7769
SWIDTH 568 0
DWIDTH 8 0
BBX 8 13 0 -2
BITMAP
00
00
00
18
00
5C
22
20
40
40
40
00
00
ENDCHAR

STARTCHAR uni1E5A
ENCODING 7770
SWIDTH 568 0
DWIDTH 8 0
BBX 8 13 0 -2
BITMAP
00
00
7C
42
42
42
7C
A0
90
88
84
00
30
ENDCHAR

STARTCHAR uni1E5B
ENCODING 7771
SWIDTH 568 0
DWIDTH 8 0
BBX 8 13 0 -2
BITMAP
00
00
00
00
00
5C
22
20
40
40
40
00
30
ENDCHAR

STARTCHAR uni1E5C
ENCODING 7772
SWIDTH 568 0
DWIDTH 8 0
BBX 8 13 0 -2
BITMAP
00
3C
00
7C
42
42
7C
A0
90
88
84
00
30
ENDCHAR

STARTCHAR uni1E5D
ENCODING 7773
SWIDTH 568 0
DWIDTH 8 0
BBX 8 13 0 -2
BITMAP
00
00
00
3C
00
5C
22
20
40
40
40
00
30
ENDCHAR

STARTCHAR uni1E5E
ENCODING 7774
SWIDTH 568 0
DWIDTH 8 0
BBX 8 13 0 -2
BITMAP
00
00
7C
42
42
42
7C
A0
90
88
84
00
FC
ENDCHAR

STARTCHAR uni1E5F
ENCODING 7775
SWIDTH 568 0
DWIDTH 8 0
BBX 8 13 0 -2
BITMAP
00
00
00
00
00
5C
22
20
40
40
40
00
FC
ENDCHAR

STARTCHAR uni1E60
ENCODING 7776
SWIDTH 568 0
DWIDTH 8 0
BBX 8 13 0 -2
BITMAP
00
18
00
3C
42
40
38
04
04
84
78
00
00
ENDCHAR

STARTCHAR uni1E61
ENCODING 7777
SWIDTH 568 0
DWIDTH 8 0
BBX 8 13 0 -2
BITMAP
00
00
00
18
00
3C
42
30
08
84
78
00
00
ENDCHAR

STARTCHAR uni1E62
ENCODING 7778
SWIDTH 568 0
DWIDTH 8 0
BBX 8 13 0 -2
BITMAP
00
00
3C
42
40
40
38
04
04
84
78
00
30
ENDCHAR

STARTCHAR uni1E63
ENCODING 7779
SWIDTH 568 0
DWIDTH 8 0
BBX 8 13 0 -2
BITMAP
00
00
00
00
00
3C
42
30
08
84
78
00
30
ENDCHAR

STARTCHAR uni1E64
ENCODING 7780
SWIDTH 568 0
DWIDTH 8 0
BBX 8 13 0 -2
BITMAP
20
08
10
00
3C
42
40
38
04
84
78
00
00
ENDCHAR

STARTCHAR uni1E65
ENCODING 7781
SWIDTH 568 0
DWIDTH 8 0
BBX 8 13 0 -2
BITMAP
00
20
08
10
00
3C
42
30
08
84
78
00
00
ENDCHAR

STARTCHAR uni1E66
ENCODING 7782
SWIDTH 568 0
DWIDTH 8 0
BBX 8 13 0 -2
BITMAP
18
00
24
18
3C
42
40
38
04
84
78
00
00
ENDCHAR

STARTCHAR uni1E67
ENCODING 7783
SWIDTH 568 0
DWIDTH 8 0
BBX 8 13 0 -2
BITMAP
18
00
24
18
00
3C
42
30
08
84
78
00
00
ENDCHAR

STARTCHAR uni1E68
ENCODING 7784
SWIDTH 568 0
DWIDTH 8 0
BBX 8 13 0 -2
BITMAP
00
18
00
3C
42
40
38
04
04
84
78
00
30
ENDCHAR

STARTCHAR uni1E69
ENCODING 7785
SWIDTH 568 0
DWIDTH 8 0
BBX 8 13 0 -2
BITMAP
00
00
00
18
00
3C
42
30
08
84
78
00
30
ENDCHAR

STARTCHAR uni1E6A
ENCODING 7786
SWIDTH 568 0
DWIDTH 8 0
BBX 8 13 0 -2
BITMAP
00
10
00
FE
10
10
10
20
20
20
20
00
00
ENDCHAR

STARTCHAR uni1E6B
ENCODING 7787
SWIDTH 568 0
DWIDTH 8 0
BBX 8 13 0 -2
BITMAP
00
30
00
20
20
7C
20
40
40
44
38
00
00
ENDCHAR

STARTCHAR uni1E6C
ENCODING 7788
SWIDTH 568 0
DWIDTH 8 0
BBX 8 13 0 -2
BITMAP
00
00
FE
10
10
10
10
20
20
20
20
00
20
ENDCHAR

STARTCHAR uni1E6D
ENCODING 7789
SWIDTH 568 0
DWIDTH 8 0
BBX 8 13 0 -2
BITMAP
00
00
00
20
20
7C
20
20
40
44
38
00
30
ENDCHAR

STARTCHAR uni1E6E
ENCODING 7790
SWIDTH 568 0
DWIDTH 8 0
BBX 8 13 0 -2
BITMAP
00
00
7F
08
08
08
08
10
10
10
10
00
FE
ENDCHAR

STARTCHAR uni1E6F
ENCODING 7791
SWIDTH 568 0
DWIDTH 8 0
BBX 8 13 0 -2
BITMAP
00
00
00
10
10
3E
10
20
20
22
1C
00
7E
ENDCHAR

STARTCHAR uni1E70
ENCODING 7792
SWIDTH 568 0
DWIDTH 8 0
BBX 8 13 0 -2
BITMAP
00
00
FE
10
10
10
10
20
20
20
00
20
50
ENDCHAR

STARTCHAR uni1E71
ENCODING 7793
SWIDTH 568 0
DWIDTH 8 0
BBX 8 13 0 -2
BITMAP
00
00
00
20
20
7C
20
40
44
38
00
30
48
ENDCHAR

STARTCHAR uni1E72
ENCODING 7794
SWIDTH 568 0
DWIDTH 8 0
BBX 8 13 0 -2
BITMAP
00
00
42
42
42
42
42
84
84
84
78
00
CC
ENDCHAR

STARTCHAR uni1E73
ENCODING 7795
SWIDTH 568 0
DWIDTH 8 0
BBX 8 13 0 -2
BITMAP
00
00
00
00
00
22
22
22
44
44
3A
00
6C
ENDCHAR

STARTCHAR uni1E74
ENCODING 7796
SWIDTH 568 0
DWIDTH 8 0
BBX 8 13 0 -2
BITMAP
00
00
42
42
42
42
84
84
84
78
00
64
98
ENDCHAR

STARTCHAR uni1E75
ENCODING 7797
SWIDTH 568 0
DWIDTH 8 0
BBX 8 13 0 -2
BITMAP
00
00
00
00
00
22
22
44
44
3A
00
32
4C
ENDCHAR

STARTCHAR uni1E76
ENCODING 7798
SWIDTH 568 0
DWIDTH 8 0
BBX 8 13 0 -2
BITMAP
00
00
42
42
42
42
84
84
84
78
00
30
48
ENDCHAR

STARTCHAR uni1E77
ENCODING 7799
SWIDTH 568 0
DWIDTH 8 0
BBX 8 13 0 -2
BITMAP
00
00
00
00
00
22
22
44
44
3A
00
18
24
ENDCHAR

STARTCHAR uni1E78
ENCODING 7800
SWIDTH 568 0
DWIDTH 8 0
BBX 8 13 0 -2
BITMAP
04
08
32
4C
00
42
42
84
84
84
78
00
00
ENDCHAR

STARTCHAR uni1E79
ENCODING 7801
SWIDTH 568 0
DWIDTH 8 0
BBX 8 13 0 -2
BITMAP
04
08
00
32
4C
00
44
44
88
88
74
00
00
ENDCHAR

STARTCHAR uni1E7A
ENCODING 7802
SWIDTH 568 0
DWIDTH 8 0
BBX 8 13 0 -2
BITMAP
24
00
3C
00
42
42
42
84
84
84
78
00
00
ENDCHAR

STARTCHAR uni1E7B
ENCODING 7803
SWIDTH 568 0
DWIDTH 8 0
BBX 8 13 0 -2
BITMAP
00
22
00
3E
00
22
22
44
44
44
3A
00
00
ENDCHAR

STARTCHAR uni1E7C
ENCODING 7804
SWIDTH 568 0
DWIDTH 8 0
BBX 8 13 0 -2
BITMAP
00
32
4C
00
82
82
84
48
50
50
20
00
00
ENDCHAR

STARTCHAR uni1E7D
ENCODING 7805
SWIDTH 568 0
DWIDTH 8 0
BBX 8 13 0 -2
BITMAP
00
00
32
4C
00
22
22
24
28
28
10
00
00
ENDCHAR

STARTCHAR uni1E7E
ENCODING 7806
SWIDTH 568 0
DWIDTH 8 0
BBX 8 13 0 -2
BITMAP
00
00
82
82
44
44
44
48
50
50
20
00
30
ENDCHAR

STARTCHAR uni1E7F
ENCODING 7807
SWIDTH 568 0
DWIDTH 8 0
BBX 8 13 0 -2
BITMAP
00
00
00
00
00
44
44
48
50
50
20
00
30
ENDCHAR

STARTCHAR Wgrave
ENCODING 7808
SWIDTH 568 0
DWIDTH 8 0
BBX 8 13 0 -2
BITMAP
00
10
08
00
41
41
49
92
92
AA
44
00
00
ENDCHAR

STARTCHAR wgrave
ENCODING 7809
SWIDTH 568 0
DWIDTH 8 0
BBX 8 13 0 -2
BITMAP
00
00
10
08
00
41
41
92
92
AA
44
00
00
ENDCHAR

STARTCHAR Wacute
ENCODING 7810
SWIDTH 568 0
DWIDTH 8 0
BBX 8 13 0 -2
BITMAP
00
04
08
00
41
41
49
92
92
AA
44
00
00
ENDCHAR

STARTCHAR wacute
ENCODING 7811
SWIDTH 568 0
DWIDTH 8 0
BBX 8 13 0 -2
BITMAP
00
00
04
08
00
41
41
92
92
AA
44
00
00
ENDCHAR

STARTCHAR Wdieresis
ENCODING 7812
SWIDTH 568 0
DWIDTH 8 0
BBX 8 13 0 -2
BITMAP
00
22
22
00
41
41
49
92
92
AA
44
00
00
ENDCHAR

STARTCHAR wdieresis
ENCODING 7813
SWIDTH 568 0
DWIDTH 8 0
BBX 8 13 0 -2
BITMAP
00
00
22
22
00
41
41
92
92
AA
44
00
00
ENDCHAR

STARTCHAR uni1E86
ENCODING 7814
SWIDTH 568 0
DWIDTH 8 0
BBX 8 13 0 -2
BITMAP
00
08
08
41
41
41
49
92
92
AA
44
00
00
ENDCHAR

STARTCHAR uni1E87
ENCODING 7815
SWIDTH 568 0
DWIDTH 8 0
BBX 8 13 0 -2
BITMAP
00
00
08
08
00
41
41
92
92
AA
44
00
00
ENDCHAR

STARTCHAR uni1E88
ENCODING 7816
SWIDTH 568 0
DWIDTH 8 0
BBX 8 13 0 -2
BITMAP
00
00
41
41
41
41
49
92
92
AA
44
10
10
ENDCHAR

STARTCHAR uni1E89
ENCODING 7817
SWIDTH 568 0
DWIDTH 8 0
BBX 8 13 0 -2
BITMAP
00
00
00
00
00
41
41
92
92
AA
44
10
10
ENDCHAR

STARTCHAR uni1E8A
ENCODING 7818
SWIDTH 568 0
DWIDTH 8 0
BBX 8 13 0 -2
BITMAP
00
08
08
00
41
22
14
18
28
44
82
00
00
ENDCHAR

STARTCHAR uni1E8B
ENCODING 7819
SWIDTH 568 0
DWIDTH 8 0
BBX 8 13 0 -2
BITMAP
00
00
00
18
00
42
24
18
30
48
84
00
00
ENDCHAR

STARTCHAR uni1E8C
ENCODING 7820
SWIDTH 568 0
DWIDTH 8 0
BBX 8 13 0 -2
BITMAP
00
22
22
00
41
22
14
18
28
44
82
00
00
ENDCHAR

STARTCHAR uni1E8D
ENCODING 7821
SWIDTH 568 0
DWIDTH 8 0
BBX 8 13 0 -2
BITMAP
00
00
24
24
00
42
24
18
30
48
84
00
00
ENDCHAR

STARTCHAR uni1E8E
ENCODING 7822
SWIDTH 568 0
DWIDTH 8 0
BBX 8 13 0 -2
BITMAP
00
10
10
82
82
44
28
10
10
20
20
00
00
ENDCHAR

STARTCHAR uni1E8F
ENCODING 7823
SWIDTH 568 0
DWIDTH 8 0
BBX 8 13 0 -2
BITMAP
00
00
00
18
00
42
42
84
8C
74
04
84
78
ENDCHAR

STARTCHAR uni1E90
ENCODING 7824
SWIDTH 568 0
DWIDTH 8 0
BBX 8 13 0 -2
BITMAP
00
18
24
00
7E
02
0C
10
20
40
FC
00
00
ENDCHAR

STARTCHAR uni1E91
ENCODING 7825
SWIDTH 568 0
DWIDTH 8 0
BBX 8 13 0 -2
BITMAP
00
00
18
24
00
7E
04
18
20
40
FC
00
00
ENDCHAR

STARTCHAR uni1E92
ENCODING 7826
SWIDTH 568 0
DWIDTH 8 0
BBX 8 13 0 -2
BITMAP
00
00
7E
02
04
08
10
20
40
80
FC
00
30
ENDCHAR

STARTCHAR uni1E93
ENCODING 7827
SWIDTH 568 0
DWIDTH 8 0
BBX 8 13 0 -2
BITMAP
00
00
00
00
00
7E
04
18
20
40
FC
00
30
ENDCHAR

STARTCHAR uni1E94
ENCODING 7828
SWIDTH 568 0
DWIDTH 8 0
BBX 8 13 0 -2
BITMAP
00
00
7E
02
04
08
10
20
40
80
FC
00
78
ENDCHAR

STARTCHAR uni1E95
ENCODING 7829
SWIDTH 568 0
DWIDTH 8 0
BBX 8 13 0 -2
BITMAP
00
00
00
00
00
7E
04
18
20
40
FC
00
78
ENDCHAR

STARTCHAR uni1E96
ENCODING 7830
SWIDTH 568 0
DWIDTH 8 0
BBX 8 13 0 -2
BITMAP
00
00
40
40
40
5C
62
42
84
84
84
00
78
ENDCHAR

STARTCHAR uni1E97
ENCODING 7831
SWIDTH 568 0
DWIDTH 8 0
BBX 8 13 0 -2
BITMAP
00
28
28
00
20
20
7C
20
40
44
38
00
00
ENDCHAR

STARTCHAR uni1E98
ENCODING 7832
SWIDTH 568 0
DWIDTH 8 0
BBX 8 13 0 -2
BITMAP
00
00
18
24
18
41
41
92
92
AA
44
00
00
ENDCHAR

STARTCHAR uni1E99
ENCODING 7833
SWIDTH 568 0
DWIDTH 8 0
BBX 8 13 0 -2
BITMAP
00
00
18
24
18
42
42
84
8C
74
04
84
78
ENDCHAR

STARTCHAR uni1E9A
ENCODING 7834
SWIDTH 568 0
DWIDTH 8 0
BBX 8 13 0 -2
BITMAP
04
02
02
04
00
3C
02
7C
84
8C
74
00
00
ENDCHAR

STARTCHAR uni1E9B
ENCODING 7835
SWIDTH 568 0
DWIDTH 8 0
BBX 8 13 0 -2
BITMAP
00
0C
00
0C
12
10
10
60
20
20
20
00
00
ENDCHAR

STARTCHAR Ygrave
ENCODING 7922
SWIDTH 568 0
DWIDTH 8 0
BBX 8 13 0 -2
BITMAP
00
20
10
00
82
44
28
10
10
20
20
00
00
ENDCHAR

STARTCHAR ygrave
ENCODING 7923
SWIDTH 568 0
DWIDTH 8 0
BBX 8 13 0 -2
BITMAP
00
00
10
08
00
42
42
84
8C
74
04
84
78
ENDCHAR

STARTCHAR uni2000
ENCODING 8192
SWIDTH 568 0
DWIDTH 8 0
BBX 8 13 0 -2
BITMAP
00
00
00
00
00
00
00
00
00
00
00
00
00
ENDCHAR

STARTCHAR uni2001
ENCODING 8193
SWIDTH 568 0
DWIDTH 8 0
BBX 8 13 0 -2
BITMAP
00
00
00
00
00
00
00
00
00
00
00
00
00
ENDCHAR

STARTCHAR uni2002
ENCODING 8194
SWIDTH 568 0
DWIDTH 8 0
BBX 8 13 0 -2
BITMAP
00
00
00
00
00
00
00
00
00
00
00
00
00
ENDCHAR

STARTCHAR uni2003
ENCODING 8195
SWIDTH 568 0
DWIDTH 8 0
BBX 8 13 0 -2
BITMAP
00
00
00
00
00
00
00
00
00
00
00
00
00
ENDCHAR

STARTCHAR uni2004
ENCODING 8196
SWIDTH 568 0
DWIDTH 8 0
BBX 8 13 0 -2
BITMAP
00
00
00
00
00
00
00
00
00
00
00
00
00
ENDCHAR

STARTCHAR uni2005
ENCODING 8197
SWIDTH 568 0
DWIDTH 8 0
BBX 8 13 0 -2
BITMAP
00
00
00
00
00
00
00
00
00
00
00
00
00
ENDCHAR

STARTCHAR uni2006
ENCODING 8198
SWIDTH 568 0
DWIDTH 8 0
BBX 8 13 0 -2
BITMAP
00
00
00
00
00
00
00
00
00
00
00
00
00
ENDCHAR

STARTCHAR uni2007
ENCODING 8199
SWIDTH 568 0
DWIDTH 8 0
BBX 8 13 0 -2
BITMAP
00
00
00
00
00
00
00
00
00
00
00
00
00
ENDCHAR

STARTCHAR uni2008
ENCODING 8200
SWIDTH 568 0
DWIDTH 8 0
BBX 8 13 0 -2
BITMAP
00
00
00
00
00
00
00
00
00
00
00
00
00
ENDCHAR

STARTCHAR uni2009
ENCODING 8201
SWIDTH 568 0
DWIDTH 8 0
BBX 8 13 0 -2
BITMAP
00
00
00
00
00
00
00
00
00
00
00
00
00
ENDCHAR

STARTCHAR uni200A
ENCODING 8202
SWIDTH 568 0
DWIDTH 8 0
BBX 8 13 0 -2
BITMAP
00
00
00
00
00
00
00
00
00
00
00
00
00
ENDCHAR

STARTCHAR uni2010
ENCODING 8208
SWIDTH 568 0
DWIDTH 8 0
BBX 8 13 0 -2
BITMAP
00
00
00
00
00
00
3C
00
00
00
00
00
00
ENDCHAR

STARTCHAR uni2011
ENCODING 8209
SWIDTH 568 0
DWIDTH 8 0
BBX 8 13 0 -2
BITMAP
00
00
00
00
00
00
3C
00
00
00
00
00
00
ENDCHAR

STARTCHAR figuredash
ENCODING 8210
SWIDTH 568 0
DWIDTH 8 0
BBX 8 13 0 -2
BITMAP
00
00
00
00
00
00
7E
00
00
00
00
00
00
ENDCHAR

STARTCHAR endash
ENCODING 8211
SWIDTH 568 0
DWIDTH 8 0
BBX 8 13 0 -2
BITMAP
00
00
00
00
00
00
7E
00
00
00
00
00
00
ENDCHAR

STARTCHAR emdash
ENCODING 8212
SWIDTH 568 0
DWIDTH 8 0
BBX 8 13 0 -2
BITMAP
00
00
00
00
00
00
FE
00
00
00
00
00
00
ENDCHAR

STARTCHAR afii00208
ENCODING 8213
SWIDTH 568 0
DWIDTH 8 0
BBX 8 13 0 -2
BITMAP
00
00
00
00
00
00
FE
00
00
00
00
00
00
ENDCHAR

STARTCHAR uni2016
ENCODING 8214
SWIDTH 568 0
DWIDTH 8 0
BBX 8 13 0 -2
BITMAP
00
00
14
14
14
14
14
28
28
28
28
00
00
ENDCHAR

STARTCHAR underscoredbl
ENCODING 8215
SWIDTH 568 0
DWIDTH 8 0
BBX 8 13 0 -2
BITMAP
00
00
00
00
00
00
00
00
00
00
FE
00
FE
ENDCHAR

STARTCHAR quoteleft
ENCODING 8216
SWIDTH 568 0
DWIDTH 8 0
BBX 8 13 0 -2
BITMAP
00
08
10
18
00
00
00
00
00
00
00
00
00
ENDCHAR

STARTCHAR quoteright
ENCODING 8217
SWIDTH 568 0
DWIDTH 8 0
BBX 8 13 0 -2
BITMAP
00
00
18
08
10
00
00
00
00
00
00
00
00
ENDCHAR

STARTCHAR quotesinglbase
ENCODING 8218
SWIDTH 568 0
DWIDTH 8 0
BBX 8 13 0 -2
BITMAP
00
00
00
00
00
00
00
00
00
18
08
10
00
ENDCHAR

STARTCHAR quotereversed
ENCODING 8219
SWIDTH 568 0
DWIDTH 8 0
BBX 8 13 0 -2
BITMAP
00
00
18
10
08
00
00
00
00
00
00
00
00
ENDCHAR

STARTCHAR quotedblleft
ENCODING 8220
SWIDTH 568 0
DWIDTH 8 0
BBX 8 13 0 -2
BITMAP
00
24
48
6C
00
00
00
00
00
00
00
00
00
ENDCHAR

STARTCHAR quotedblright
ENCODING 8221
SWIDTH 568 0
DWIDTH 8 0
BBX 8 13 0 -2
BITMAP
00
00
6C
24
48
00
00
00
00
00
00
00
00
ENDCHAR

STARTCHAR quotedblbase
ENCODING 8222
SWIDTH 568 0
DWIDTH 8 0
BBX 8 13 0 -2
BITMAP
00
00
00
00
00
00
00
00
00
6C
24
48
00
ENDCHAR

STARTCHAR uni201F
ENCODING 8223
SWIDTH 568 0
DWIDTH 8 0
BBX 8 13 0 -2
BITMAP
00
00
6C
48
24
00
00
00
00
00
00
00
00
ENDCHAR

STARTCHAR dagger
ENCODING 8224
SWIDTH 568 0
DWIDTH 8 0
BBX 8 13 0 -2
BITMAP
00
00
10
10
7C
10
10
20
20
20
20
00
00
ENDCHAR

STARTCHAR daggerdbl
ENCODING 8225
SWIDTH 568 0
DWIDTH 8 0
BBX 8 13 0 -2
BITMAP
00
00
08
08
3E
08
08
10
7C
10
10
00
00
ENDCHAR

STARTCHAR bullet
ENCODING 8226
SWIDTH 568 0
DWIDTH 8 0
BBX 8 13 0 -2
BITMAP
00
00
00
00
1C
3E
7E
7C
38
00
00
00
00
ENDCHAR

STARTCHAR uni2023
ENCODING 8227
SWIDTH 568 0
DWIDTH 8 0
BBX 8 13 0 -2
BITMAP
00
00
00
20
30
38
3C
70
60
40
00
00
00
ENDCHAR

STARTCHAR onedotenleader
ENCODING 8228
SWIDTH 568 0
DWIDTH 8 0
BBX 8 13 0 -2
BITMAP
00
00
00
00
00
00
00
00
00
00
10
00
00
ENDCHAR

STARTCHAR twodotenleader
ENCODING 8229
SWIDTH 568 0
DWIDTH 8 0
BBX 8 13 0 -2
BITMAP
00
00
00
00
00
00
00
00
00
00
28
00
00
ENDCHAR

STARTCHAR ellipsis
ENCODING 8230
SWIDTH 568 0
DWIDTH 8 0
BBX 8 13 0 -2
BITMAP
00
00
00
00
00
00
00
00
00
00
54
00
00
ENDCHAR

STARTCHAR uni2027
ENCODING 8231
SWIDTH 568 0
DWIDTH 8 0
BBX 8 13 0 -2
BITMAP
00
00
00
00
00
00
18
00
00
00
00
00
00
ENDCHAR

STARTCHAR uni202F
ENCODING 8239
SWIDTH 568 0
DWIDTH 8 0
BBX 8 13 0 -2
BITMAP
00
00
00
00
00
00
00
00
00
00
00
00
00
ENDCHAR

STARTCHAR perthousand
ENCODING 8240
SWIDTH 568 0
DWIDTH 8 0
BBX 8 13 0 -2
BITMAP
00
00
22
52
24
08
10
20
4A
95
8A
00
00
ENDCHAR

STARTCHAR uni2031
ENCODING 8241
SWIDTH 568 0
DWIDTH 8 0
BBX 8 13 0 -2
BITMAP
00
00
22
52
24
08
10
20
6A
D5
AA
00
00
ENDCHAR

STARTCHAR minute
ENCODING 8242
SWIDTH 568 0
DWIDTH 8 0
BBX 8 13 0 -2
BITMAP
00
00
08
08
10
00
00
00
00
00
00
00
00
ENDCHAR

STARTCHAR second
ENCODING 8243
SWIDTH 568 0
DWIDTH 8 0
BBX 8 13 0 -2
BITMAP
00
00
24
24
48
00
00
00
00
00
00
00
00
ENDCHAR

STARTCHAR uni2034
ENCODING 8244
SWIDTH 568 0
DWIDTH 8 0
BBX 8 13 0 -2
BITMAP
00
00
49
49
92
00
00
00
00
00
00
00
00
ENDCHAR

STARTCHAR uni2035
ENCODING 8245
SWIDTH 568 0
DWIDTH 8 0
BBX 8 13 0 -2
BITMAP
00
00
10
10
08
00
00
00
00
00
00
00
00
ENDCHAR

STARTCHAR uni2036
ENCODING 8246
SWIDTH 568 0
DWIDTH 8 0
BBX 8 13 0 -2
BITMAP
00
00
48
48
24
00
00
00
00
00
00
00
00
ENDCHAR

STARTCHAR uni2037
ENCODING 8247
SWIDTH 568 0
DWIDTH 8 0
BBX 8 13 0 -2
BITMAP
00
00
92
92
49
00
00
00
00
00
00
00
00
ENDCHAR

STARTCHAR uni2038
ENCODING 8248
SWIDTH 568 0
DWIDTH 8 0
BBX 8 13 0 -2
BITMAP
00
00
00
00
00
00
00
00
00
00
10
28
44
ENDCHAR

STARTCHAR guilsinglleft
ENCODING 8249
SWIDTH 568 0
DWIDTH 8 0
BBX 8 13 0 -2
BITMAP
00
00
00
04
08
10
20
20
10
08
00
00
00
ENDCHAR

STARTCHAR guilsinglright
ENCODING 8250
SWIDTH 568 0
DWIDTH 8 0
BBX 8 13 0 -2
BITMAP
00
00
00
10
08
04
04
08
10
20
00
00
00
ENDCHAR

STARTCHAR uni203B
ENCODING 8251
SWIDTH 568 0
DWIDTH 8 0
BBX 8 13 0 -2
BITMAP
00
00
49
22
14
08
2A
10
28
44
92
00
00
ENDCHAR

STARTCHAR exclamdbl
ENCODING 8252
SWIDTH 568 0
DWIDTH 8 0
BBX 8 13 0 -2
BITMAP
00
00
24
24
24
24
24
48
48
00
48
00
00
ENDCHAR

STARTCHAR uni203D
ENCODING 8253
SWIDTH 568 0
DWIDTH 8 0
BBX 8 13 0 -2
BITMAP
00
00
3C
4A
0A
0A
0C
10
10
00
10
00
00
ENDCHAR

STARTCHAR uni203E
ENCODING 8254
SWIDTH 568 0
DWIDTH 8 0
BBX 8 13 0 -2
BITMAP
00
7E
00
00
00
00
00
00
00
00
00
00
00
ENDCHAR

STARTCHAR uni203F
ENCODING 8255
SWIDTH 568 0
DWIDTH 8 0
BBX 8 13 0 -2
BITMAP
00
00
00
00
00
00
00
00
00
00
00
42
3C
ENDCHAR

STARTCHAR uni2040
ENCODING 8256
SWIDTH 568 0
DWIDTH 8 0
BBX 8 13 0 -2
BITMAP
00
3C
42
00
00
00
00
00
00
00
00
00
00
ENDCHAR

STARTCHAR uni2041
ENCODING 8257
SWIDTH 568 0
DWIDTH 8 0
BBX 8 13 0 -2
BITMAP
00
00
00
00
00
04
04
08
10
10
20
50
50
ENDCHAR

STARTCHAR uni2042
ENCODING 8258
SWIDTH 568 0
DWIDTH 8 0
BBX 8 13 0 -2
BITMAP
00
00
00
00
08
1C
08
44
EE
44
00
00
00
ENDCHAR

STARTCHAR uni2043
ENCODING 8259
SWIDTH 568 0
DWIDTH 8 0
BBX 8 13 0 -2
BITMAP
00
00
00
00
00
00
3C
78
00
00
00
00
00
ENDCHAR

STARTCHAR fraction
ENCODING 8260
SWIDTH 568 0
DWIDTH 8 0
BBX 8 13 0 -2
BITMAP
00
00
02
04
08
08
10
20
20
40
80
00
00
ENDCHAR

STARTCHAR uni2045
ENCODING 8261
SWIDTH 568 0
DWIDTH 8 0
BBX 8 13 0 -2
BITMAP
00
00
1C
10
10
10
1C
20
20
20
38
00
00
ENDCHAR

STARTCHAR uni2046
ENCODING 8262
SWIDTH 568 0
DWIDTH 8 0
BBX 8 13 0 -2
BITMAP
00
00
1C
04
04
04
18
08
08
08
38
00
00
ENDCHAR

STARTCHAR uni2048
ENCODING 8264
SWIDTH 568 0
DWIDTH 8 0
BBX 8 13 0 -2
BITMAP
00
00
72
8A
8A
12
22
44
44
00
44
00
00
ENDCHAR

STARTCHAR uni2049
ENCODING 8265
SWIDTH 568 0
DWIDTH 8 0
BBX 8 13 0 -2
BITMAP
00
00
4E
51
51
42
84
88
88
00
88
00
00
ENDCHAR

STARTCHAR uni204A
ENCODING 8266
SWIDTH 568 0
DWIDTH 8 0
BBX 8 13 0 -2
BITMAP
00
00
00
00
00
00
7C
04
04
08
08
00
00
ENDCHAR

STARTCHAR uni204B
ENCODING 8267
SWIDTH 568 0
DWIDTH 8 0
BBX 8 13 0 -2
BITMAP
00
00
7C
2E
2E
2E
2C
50
50
50
50
00
00
ENDCHAR

STARTCHAR uni204C
ENCODING 8268
SWIDTH 568 0
DWIDTH 8 0
BBX 8 13 0 -2
BITMAP
00
00
00
00
1E
3A
3A
74
3C
00
00
00
00
ENDCHAR

STARTCHAR uni204D
ENCODING 8269
SWIDTH 568 0
DWIDTH 8 0
BBX 8 13 0 -2
BITMAP
00
00
00
00
3C
2E
2E
5C
78
00
00
00
00
ENDCHAR

STARTCHAR uni20A0
ENCODING 8352
SWIDTH 568 0
DWIDTH 8 0
BBX 8 13 0 -2
BITMAP
00
00
00
18
20
20
4E
48
3C
10
1C
00
00
ENDCHAR

STARTCHAR peseta
ENCODING 8359
SWIDTH 568 0
DWIDTH 8 0
BBX 8 13 0 -2
BITMAP
00
00
7C
42
FE
42
7C
80
80
80
80
00
00
ENDCHAR

STARTCHAR uni20A8
ENCODING 8360
SWIDTH 568 0
DWIDTH 8 0
BBX 8 13 0 -2
BITMAP
00
00
70
48
48
4B
74
A8
A4
92
8C
00
00
ENDCHAR

STARTCHAR uni20A9
ENCODING 8361
SWIDTH 568 0
DWIDTH 8 0
BBX 8 13 0 -2
BITMAP
00
00
44
44
FE
44
FE
88
A8
D8
88
00
00
ENDCHAR

STARTCHAR afii57636
ENCODING 8362
SWIDTH 568 0
DWIDTH 8 0
BBX 8 13 0 -2
BITMAP
00
00
39
45
55
55
55
AA
AA
A2
9C
00
00
ENDCHAR

STARTCHAR dong
ENCODING 8363
SWIDTH 568 0
DWIDTH 8 0
BBX 8 13 0 -2
BITMAP
00
00
02
3E
02
3A
46
42
84
8C
74
00
78
ENDCHAR

STARTCHAR Euro
ENCODING 8364
SWIDTH 568 0
DWIDTH 8 0
BBX 8 13 0 -2
BITMAP
00
00
1E
21
20
7C
20
F8
40
42
3C
00
00
ENDCHAR

STARTCHAR uni20AD
ENCODING 8365
SWIDTH 568 0
DWIDTH 8 0
BBX 8 13 0 -2
BITMAP
00
00
42
44
48
50
FC
A0
90
88
84
00
00
ENDCHAR

STARTCHAR uni20AE
ENCODING 8366
SWIDTH 568 0
DWIDTH 8 0
BBX 8 13 0 -2
BITMAP
00
00
FE
10
18
30
10
38
60
20
20
00
00
ENDCHAR

STARTCHAR uni20AF
ENCODING 8367
SWIDTH 568 0
DWIDTH 8 0
BBX 8 13 0 -2
BITMAP
00
00
20
38
64
22
22
44
44
E4
D8
00
00
ENDCHAR

STARTCHAR uni2102
ENCODING 8450
SWIDTH 568 0
DWIDTH 8 0
BBX 8 13 0 -2
BITMAP
00
00
3C
52
50
50
50
A0
A0
A4
78
00
00
ENDCHAR

STARTCHAR uni2103
ENCODING 8451
SWIDTH 568 0
DWIDTH 8 0
BBX 8 13 0 -2
BITMAP
00
40
AC
52
10
10
10
20
20
24
18
00
00
ENDCHAR

STARTCHAR uni2104
ENCODING 8452
SWIDTH 568 0
DWIDTH 8 0
BBX 8 13 0 -2
BITMAP
00
00
08
08
1C
28
28
50
38
10
1C
00
00
ENDCHAR

STARTCHAR uni2109
ENCODING 8457
SWIDTH 568 0
DWIDTH 8 0
BBX 8 13 0 -2
BITMAP
20
50
20
1E
10
10
1C
20
20
20
20
00
00
ENDCHAR

STARTCHAR uni210D
ENCODING 8461
SWIDTH 568 0
DWIDTH 8 0
BBX 8 13 0 -2
BITMAP
00
00
51
51
51
51
5F
A2
A2
A2
A2
00
00
ENDCHAR

STARTCHAR uni210E
ENCODING 8462
SWIDTH 568 0
DWIDTH 8 0
BBX 8 13 0 -2
BITMAP
00
00
08
08
08
10
1E
22
22
44
44
00
00
ENDCHAR

STARTCHAR uni210F
ENCODING 8463
SWIDTH 568 0
DWIDTH 8 0
BBX 8 13 0 -2
BITMAP
00
00
08
0E
38
10
1E
22
22
44
44
00
00
ENDCHAR

STARTCHAR afii61289
ENCODING 8467
SWIDTH 568 0
DWIDTH 8 0
BBX 8 13 0 -2
BITMAP
00
00
08
14
14
14
28
28
10
30
4C
00
00
ENDCHAR

STARTCHAR uni2114
ENCODING 8468
SWIDTH 568 0
DWIDTH 8 0
BBX 8 13 0 -2
BITMAP
00
00
48
7E
48
4A
4D
92
92
B2
4C
00
00
ENDCHAR

STARTCHAR uni2115
ENCODING 8469
SWIDTH 568 0
DWIDTH 8 0
BBX 8 13 0 -2
BITMAP
00
00
71
59
59
55
55
A6
A6
A2
A2
00
00
ENDCHAR

STARTCHAR afii61352
ENCODING 8470
SWIDTH 568 0
DWIDTH 8 0
BBX 8 13 0 -2
BITMAP
00
00
48
4A
4D
6A
68
BE
B0
90
90
00
00
ENDCHAR

STARTCHAR uni2117
ENCODING 8471
SWIDTH 568 0
DWIDTH 8 0
BBX 8 13 0 -2
BITMAP
00
00
3E
41
59
55
59
A2
A2
82
7C
00
00
ENDCHAR

STARTCHAR weierstrass
ENCODING 8472
SWIDTH 568 0
DWIDTH 8 0
BBX 8 13 0 -2
BITMAP
00
00
00
00
20
4E
51
42
42
B2
AC
A0
40
ENDCHAR

STARTCHAR uni2119
ENCODING 8473
SWIDTH 568 0
DWIDTH 8 0
BBX 8 13 0 -2
BITMAP
00
00
7C
52
52
52
52
BC
A0
A0
A0
00
00
ENDCHAR

STARTCHAR uni211A
ENCODING 8474
SWIDTH 568 0
DWIDTH 8 0
BBX 8 13 0 -2
BITMAP
00
00
3E
51
51
51
51
A2
A2
A2
7C
02
00
ENDCHAR

STARTCHAR uni211D
ENCODING 8477
SWIDTH 568 0
DWIDTH 8 0
BBX 8 13 0 -2
BITMAP
00
00
7C
52
52
52
5C
A4
A4
A4
A4
00
00
ENDCHAR

STARTCHAR trademark
ENCODING 8482
SWIDTH 568 0
DWIDTH 8 0
BBX 8 13 0 -2
BITMAP
00
00
EA
4E
94
94
00
00
00
00
00
00
00
ENDCHAR

STARTCHAR Omega
ENCODING 8486
SWIDTH 568 0
DWIDTH 8 0
BBX 8 13 0 -2
BITMAP
00
00
3E
41
41
41
82
82
6C
28
EE
00
00
ENDCHAR

STARTCHAR uni2127
ENCODING 8487
SWIDTH 568 0
DWIDTH 8 0
BBX 8 13 0 -2
BITMAP
00
00
66
24
24
42
42
84
84
84
78
00
00
ENDCHAR

STARTCHAR onethird
ENCODING 8531
SWIDTH 568 0
DWIDTH 8 0
BBX 8 13 0 -2
BITMAP
00
00
20
20
40
40
58
04
18
08
30
00
00
ENDCHAR

STARTCHAR twothirds
ENCODING 8532
SWIDTH 568 0
DWIDTH 8 0
BBX 8 13 0 -2
BITMAP
00
00
60
10
60
80
EC
02
0C
04
18
00
00
ENDCHAR

STARTCHAR uni2155
ENCODING 8533
SWIDTH 568 0
DWIDTH 8 0
BBX 8 13 0 -2
BITMAP
00
00
20
20
40
40
5C
20
30
08
30
00
00
ENDCHAR

STARTCHAR uni2156
ENCODING 8534
SWIDTH 568 0
DWIDTH 8 0
BBX 8 13 0 -2
BITMAP
00
60
10
60
80
E0
0E
10
18
04
18
00
00
ENDCHAR

STARTCHAR uni2157
ENCODING 8535
SWIDTH 568 0
DWIDTH 8 0
BBX 8 13 0 -2
BITMAP
00
30
08
30
10
60
0E
10
18
04
18
00
00
ENDCHAR

STARTCHAR uni2158
ENCODING 8536
SWIDTH 568 0
DWIDTH 8 0
BBX 8 13 0 -2
BITMAP
00
00
40
50
70
20
0E
10
18
04
18
00
00
ENDCHAR

STARTCHAR uni2159
ENCODING 8537
SWIDTH 568 0
DWIDTH 8 0
BBX 8 13 0 -2
BITMAP
00
00
20
20
40
40
4C
10
30
28
10
00
00
ENDCHAR

STARTCHAR uni215A
ENCODING 8538
SWIDTH 568 0
DWIDTH 8 0
BBX 8 13 0 -2
BITMAP
00
00
38
40
60
10
66
08
18
14
08
00
00
ENDCHAR

STARTCHAR oneeighth
ENCODING 8539
SWIDTH 568 0
DWIDTH 8 0
BBX 8 13 0 -2
BITMAP
00
20
20
40
40
4C
12
1C
24
24
18
00
00
ENDCHAR

STARTCHAR threeeighths
ENCODING 8540
SWIDTH 568 0
DWIDTH 8 0
BBX 8 13 0 -2
BITMAP
00
60
10
60
20
CC
12
1C
24
24
18
00
00
ENDCHAR

STARTCHAR fiveeighths
ENCODING 8541
SWIDTH 568 0
DWIDTH 8 0
BBX 8 13 0 -2
BITMAP
00
70
80
C0
20
CC
12
1C
24
24
18
00
00
ENDCHAR

STARTCHAR seveneighths
ENCODING 8542
SWIDTH 568 0
DWIDTH 8 0
BBX 8 13 0 -2
BITMAP
00
E0
20
40
40
8C
92
1C
24
24
18
00
00
ENDCHAR

STARTCHAR uni215F
ENCODING 8543
SWIDTH 568 0
DWIDTH 8 0
BBX 8 13 0 -2
BITMAP
00
00
08
08
10
10
10
00
00
00
00
00
00
ENDCHAR

STARTCHAR uni2160
ENCODING 8544
SWIDTH 568 0
DWIDTH 8 0
BBX 8 13 0 -2
BITMAP
00
00
08
08
08
08
08
10
10
10
10
00
00
ENDCHAR

STARTCHAR uni2161
ENCODING 8545
SWIDTH 568 0
DWIDTH 8 0
BBX 8 13 0 -2
BITMAP
00
00
24
24
24
24
24
48
48
48
48
00
00
ENDCHAR

STARTCHAR uni2162
ENCODING 8546
SWIDTH 568 0
DWIDTH 8 0
BBX 8 13 0 -2
BITMAP
00
00
2A
2A
2A
2A
2A
54
54
54
54
00
00
ENDCHAR

STARTCHAR uni2163
ENCODING 8547
SWIDTH 568 0
DWIDTH 8 0
BBX 8 13 0 -2
BITMAP
00
00
51
51
51
51
52
94
94
88
88
00
00
ENDCHAR

STARTCHAR uni2164
ENCODING 8548
SWIDTH 568 0
DWIDTH 8 0
BBX 8 13 0 -2
BITMAP
00
00
44
44
44
44
48
50
50
20
20
00
00
ENDCHAR

STARTCHAR uni2165
ENCODING 8549
SWIDTH 568 0
DWIDTH 8 0
BBX 8 13 0 -2
BITMAP
00
00
8A
8A
8A
8A
92
A4
A4
44
44
00
00
ENDCHAR

STARTCHAR uni2166
ENCODING 8550
SWIDTH 568 0
DWIDTH 8 0
BBX 8 13 0 -2
BITMAP
00
00
55
55
55
55
55
AA
AA
4A
4A
00
00
ENDCHAR

STARTCHAR uni2167
ENCODING 8551
SWIDTH 568 0
DWIDTH 8 0
BBX 8 13 0 -2
BITMAP
00
00
57
57
57
57
57
AE
AE
4E
4E
00
00
ENDCHAR

STARTCHAR uni2168
ENCODING 8552
SWIDTH 568 0
DWIDTH 8 0
BBX 8 13 0 -2
BITMAP
00
00
51
51
4A
4A
4C
94
94
A2
A2
00
00
ENDCHAR

STARTCHAR uni2169
ENCODING 8553
SWIDTH 568 0
DWIDTH 8 0
BBX 8 13 0 -2
BITMAP
00
00
22
22
14
14
18
28
28
44
44
00
00
ENDCHAR

STARTCHAR uni216A
ENCODING 8554
SWIDTH 568 0
DWIDTH 8 0
BBX 8 13 0 -2
BITMAP
00
00
45
45
29
29
31
52
52
8A
8A
00
00
ENDCHAR

STARTCHAR uni216B
ENCODING 8555
SWIDTH 568 0
DWIDTH 8 0
BBX 8 13 0 -2
BITMAP
00
00
55
55
55
25
25
4A
AA
AA
AA
00
00
ENDCHAR

STARTCHAR uni216C
ENCODING 8556
SWIDTH 568 0
DWIDTH 8 0
BBX 8 13 0 -2
BITMAP
00
00
20
20
20
20
20
40
40
40
7E
00
00
ENDCHAR

STARTCHAR uni216D
ENCODING 8557
SWIDTH 568 0
DWIDTH 8 0
BBX 8 13 0 -2
BITMAP
00
00
3C
42
40
40
40
80
80
84
78
00
00
ENDCHAR

STARTCHAR uni216E
ENCODING 8558
SWIDTH 568 0
DWIDTH 8 0
BBX 8 13 0 -2
BITMAP
00
00
7C
22
22
22
22
44
44
44
F8
00
00
ENDCHAR

STARTCHAR uni216F
ENCODING 8559
SWIDTH 568 0
DWIDTH 8 0
BBX 8 13 0 -2
BITMAP
00
00
41
63
55
49
49
82
82
82
82
00
00
ENDCHAR

STARTCHAR uni2170
ENCODING 8560
SWIDTH 568 0
DWIDTH 8 0
BBX 8 13 0 -2
BITMAP
00
00
00
08
00
08
08
08
10
10
10
00
00
ENDCHAR

STARTCHAR uni2171
ENCODING 8561
SWIDTH 568 0
DWIDTH 8 0
BBX 8 13 0 -2
BITMAP
00
00
00
24
00
24
24
24
48
48
48
00
00
ENDCHAR

STARTCHAR uni2172
ENCODING 8562
SWIDTH 568 0
DWIDTH 8 0
BBX 8 13 0 -2
BITMAP
00
00
00
2A
00
2A
2A
2A
54
54
54
00
00
ENDCHAR

STARTCHAR uni2173
ENCODING 8563
SWIDTH 568 0
DWIDTH 8 0
BBX 8 13 0 -2
BITMAP
00
00
00
40
00
51
51
52
94
88
88
00
00
ENDCHAR

STARTCHAR uni2174
ENCODING 8564
SWIDTH 568 0
DWIDTH 8 0
BBX 8 13 0 -2
BITMAP
00
00
00
00
00
44
44
48
50
50
20
00
00
ENDCHAR

STARTCHAR uni2175
ENCODING 8565
SWIDTH 568 0
DWIDTH 8 0
BBX 8 13 0 -2
BITMAP
00
00
00
02
00
8A
8A
92
A4
44
44
00
00
ENDCHAR

STARTCHAR uni2176
ENCODING 8566
SWIDTH 568 0
DWIDTH 8 0
BBX 8 13 0 -2
BITMAP
00
00
00
05
00
55
55
55
AA
4A
4A
00
00
ENDCHAR

STARTCHAR uni2177
ENCODING 8567
SWIDTH 568 0
DWIDTH 8 0
BBX 8 13 0 -2
BITMAP
00
00
00
07
00
57
57
57
AE
4E
4E
00
00
ENDCHAR

STARTCHAR uni2178
ENCODING 8568
SWIDTH 568 0
DWIDTH 8 0
BBX 8 13 0 -2
BITMAP
00
00
00
40
00
51
4A
8C
88
94
A2
00
00
ENDCHAR

STARTCHAR uni2179
ENCODING 8569
SWIDTH 568 0
DWIDTH 8 0
BBX 8 13 0 -2
BITMAP
00
00
00
00
00
22
14
18
10
28
44
00
00
ENDCHAR

STARTCHAR uni217A
ENCODING 8570
SWIDTH 568 0
DWIDTH 8 0
BBX 8 13 0 -2
BITMAP
00
00
00
01
00
45
29
31
22
52
8A
00
00
ENDCHAR

STARTCHAR uni217B
ENCODING 8571
SWIDTH 568 0
DWIDTH 8 0
BBX 8 13 0 -2
BITMAP
00
00
00
05
00
55
55
6A
4A
AA
AA
00
00
ENDCHAR

STARTCHAR uni217C
ENCODING 8572
SWIDTH 568 0
DWIDTH 8 0
BBX 8 13 0 -2
BITMAP
00
00
18
08
08
08
08
10
10
10
38
00
00
ENDCHAR

STARTCHAR uni217D
ENCODING 8573
SWIDTH 568 0
DWIDTH 8 0
BBX 8 13 0 -2
BITMAP
00
00
00
00
00
3C
42
80
80
84
78
00
00
ENDCHAR

STARTCHAR uni217E
ENCODING 8574
SWIDTH 568 0
DWIDTH 8 0
BBX 8 13 0 -2
BITMAP
00
00
02
02
02
3E
42
42
84
84
7C
00
00
ENDCHAR

STARTCHAR uni217F
ENCODING 8575
SWIDTH 568 0
DWIDTH 8 0
BBX 8 13 0 -2
BITMAP
00
00
00
00
00
76
49
92
92
92
82
00
00
ENDCHAR

STARTCHAR uni2180
ENCODING 8576
SWIDTH 568 0
DWIDTH 8 0
BBX 8 13 0 -2
BITMAP
00
00
3E
49
49
49
49
92
92
92
7C
00
00
ENDCHAR

STARTCHAR uni2181
ENCODING 8577
SWIDTH 568 0
DWIDTH 8 0
BBX 8 13 0 -2
BITMAP
00
00
7C
42
72
52
52
A4
E4
84
F8
00
00
ENDCHAR

STARTCHAR uni2182
ENCODING 8578
SWIDTH 568 0
DWIDTH 8 0
BBX 8 13 0 -2
BITMAP
00
00
3E
49
5D
55
55
AA
BA
92
7C
00
00
ENDCHAR

STARTCHAR uni2183
ENCODING 8579
SWIDTH 568 0
DWIDTH 8 0
BBX 8 13 0 -2
BITMAP
00
00
3C
42
02
02
02
04
04
84
78
00
00
ENDCHAR

STARTCHAR arrowleft
ENCODING 8592
SWIDTH 568 0
DWIDTH 8 0
BBX 8 13 0 -2
BITMAP
00
00
00
00
20
40
FE
80
40
00
00
00
00
ENDCHAR

STARTCHAR arrowup
ENCODING 8593
SWIDTH 568 0
DWIDTH 8 0
BBX 8 13 0 -2
BITMAP
00
00
10
38
54
10
10
20
20
20
20
00
00
ENDCHAR

STARTCHAR arrowright
ENCODING 8594
SWIDTH 568 0
DWIDTH 8 0
BBX 8 13 0 -2
BITMAP
00
00
00
00
04
02
7E
04
08
00
00
00
00
ENDCHAR

STARTCHAR arrowdown
ENCODING 8595
SWIDTH 568 0
DWIDTH 8 0
BBX 8 13 0 -2
BITMAP
00
00
08
08
08
08
08
10
54
38
10
00
00
ENDCHAR

STARTCHAR arrowboth
ENCODING 8596
SWIDTH 568 0
DWIDTH 8 0
BBX 8 13 0 -2
BITMAP
00
00
00
00
24
42
FE
84
48
00
00
00
00
ENDCHAR

STARTCHAR arrowupdn
ENCODING 8597
SWIDTH 568 0
DWIDTH 8 0
BBX 8 13 0 -2
BITMAP
00
00
00
08
1C
2A
08
10
54
38
10
00
00
ENDCHAR

STARTCHAR minus
ENCODING 8722
SWIDTH 568 0
DWIDTH 8 0
BBX 8 13 0 -2
BITMAP
00
00
00
00
00
00
7C
00
00
00
00
00
00
ENDCHAR

STARTCHAR notequal
ENCODING 8800
SWIDTH 568 0
DWIDTH 8 0
BBX 8 13 0 -2
BITMAP
00
00
00
04
08
7E
10
10
FC
20
40
00
00
ENDCHAR

STARTCHAR lessequal
ENCODING 8804
SWIDTH 568 0
DWIDTH 8 0
BBX 8 13 0 -2
BITMAP
00
00
00
00
07
18
60
10
0E
00
FE
00
00
ENDCHAR

STARTCHAR greaterequal
ENCODING 8805
SWIDTH 568 0
DWIDTH 8 0
BBX 8 13 0 -2
BITMAP
00
00
00
00
70
0C
03
1C
E0
00
FE
00
00
ENDCHAR

STARTCHAR uni2409
ENCODING 9225
SWIDTH 568 0
DWIDTH 8 0
BBX 8 13 0 -2
BITMAP
00
00
50
50
60
A0
AE
04
04
08
08
00
00
ENDCHAR

STARTCHAR uni240A
ENCODING 9226
SWIDTH 568 0
DWIDTH 8 0
BBX 8 13 0 -2
BITMAP
00
00
40
40
80
80
EE
08
0C
10
10
00
00
ENDCHAR

STARTCHAR uni240B
ENCODING 9227
SWIDTH 568 0
DWIDTH 8 0
BBX 8 13 0 -2
BITMAP
00
00
48
48
50
50
2E
04
04
08
08
00
00
ENDCHAR

STARTCHAR uni240C
ENCODING 9228
SWIDTH 568 0
DWIDTH 8 0
BBX 8 13 0 -2
BITMAP
00
00
70
40
60
80
8E
08
0C
10
10
00
00
ENDCHAR

STARTCHAR uni240D
ENCODING 9229
SWIDTH 568 0
DWIDTH 8 0
BBX 8 13 0 -2
BITMAP
00
00
30
40
80
80
6C
0A
0C
14
14
00
00
ENDCHAR

STARTCHAR uni240E
ENCODING 9230
SWIDTH 568 0
DWIDTH 8 0
BBX 8 13 0 -2
BITMAP
00
00
30
40
40
20
C4
0A
12
14
08
00
00
ENDCHAR

STARTCHAR uni240F
ENCODING 9231
SWIDTH 568 0
DWIDTH 8 0
BBX 8 13 0 -2
BITMAP
00
00
30
40
40
20
CE
04
08
08
1C
00
00
ENDCHAR

STARTCHAR uni241B
ENCODING 9243
SWIDTH 568 0
DWIDTH 8 0
BBX 8 13 0 -2
BITMAP
00
00
70
40
6C
90
FB
0C
34
04
02
00
00
ENDCHAR

STARTCHAR uni2424
ENCODING 9252
SWIDTH 568 0
DWIDTH 8 0
BBX 8 13 0 -2
BITMAP
00
00
48
48
68
B0
94
04
08
08
0E
00
00
ENDCHAR

STARTCHAR musicalnote
ENCODING 9834
SWIDTH 568 0
DWIDTH 8 0
BBX 8 13 0 -2
BITMAP
00
00
0C
0B
08
08
10
70
F0
F0
60
00
00
ENDCHAR

STARTCHAR ff
ENCODING 64256
SWIDTH 568 0
DWIDTH 8 0
BBX 8 13 0 -2
BITMAP
00
00
24
5A
48
48
FC
48
90
90
90
00
00
ENDCHAR

STARTCHAR fi
ENCODING 64257
SWIDTH 568 0
DWIDTH 8 0
BBX 8 13 0 -2
BITMAP
00
00
18
24
20
24
7C
24
48
48
48
00
00
ENDCHAR

STARTCHAR fl
ENCODING 64258
SWIDTH 568 0
DWIDTH 8 0
BBX 8 13 0 -2
BITMAP
00
00
1A
26
22
22
7E
22
44
44
44
00
00
ENDCHAR

STARTCHAR ffi
ENCODING 64259
SWIDTH 568 0
DWIDTH 8 0
BBX 8 13 0 -2
BITMAP
00
00
36
49
48
48
FF
49
92
92
92
00
00
ENDCHAR

STARTCHAR ffl
ENCODING 64260
SWIDTH 568 0
DWIDTH 8 0
BBX 8 13 0 -2
BITMAP
00
00
37
49
49
49
FF
49
92
92
92
00
00
ENDCHAR

STARTCHAR uniFB05
ENCODING 64261
SWIDTH 568 0
DWIDTH 8 0
BBX 8 13 0 -2
BITMAP
00
00
30
48
48
48
DE
48
90
94
88
00
00
ENDCHAR

STARTCHAR uniFB06
ENCODING 64262
SWIDTH 568 0
DWIDTH 8 0
BBX 8 13 0 -2
BITMAP
00
00
0C
14
14
37
44
48
28
2A
C4
00
00
ENDCHAR

STARTCHAR uniFFFD
ENCODING 65533
SWIDTH 568 0
DWIDTH 8 0
BBX 8 13 0 -2
BITMAP
00
00
3E
63
5D
7B
77
EE
FE
EE
7C
00
00
ENDCHAR
ENDFONT
